<?xml version="1.0" encoding="utf-8"?>
<!-- Generator: Adobe Illustrator 23.0.3, SVG Export Plug-In . SVG Version: 6.00 Build 0)  -->
<svg version="1.1" id="Capa_1" xmlns="http://www.w3.org/2000/svg" xmlns:xlink="http://www.w3.org/1999/xlink" x="0px" y="0px"
	 viewBox="0 0 363.1 272.7" style="enable-background:new 0 0 363.1 272.7;" xml:space="preserve">
<style type="text/css">
	.st0{fill:#505050;}
</style>
<path class="st0" d="M165.8,134.5c9.1,6.1,25.2,6.1,34.3,0c0,0,0,0,0,0L355.7,30.8C350.6,16,336.5,5.4,320.1,5.4H45.8
	C29.3,5.4,15.3,16,10.1,30.8L165.8,134.5C165.8,134.5,165.8,134.5,165.8,134.5L165.8,134.5z"/>
<path class="st0" d="M211.4,151.6C211.4,151.6,211.4,151.6,211.4,151.6c-8,5.3-18.3,8-28.5,8c-10.3,0-20.5-2.7-28.5-8c0,0,0,0,0,0
	L8.1,54v175.6c0,20.8,16.9,37.7,37.7,37.7h274.3c20.8,0,37.7-16.9,37.7-37.7V54L211.4,151.6z"/>
</svg>
