<?xml version="1.0" encoding="utf-8"?>
<!-- Generator: Adobe Illustrator 23.0.3, SVG Export Plug-In . SVG Version: 6.00 Build 0)  -->
<svg version="1.1" id="Capa_1" xmlns="http://www.w3.org/2000/svg" xmlns:xlink="http://www.w3.org/1999/xlink" x="0px" y="0px"
	 viewBox="0 0 203 280.3" style="enable-background:new 0 0 203 280.3;" xml:space="preserve">
<style type="text/css">
	.st0{fill:#505050;}
</style>
<g>
	<g>
		<path class="st0" d="M101.7,3.1c-52.9,0-96,43.1-96,96c0,51.2,87.8,167.9,91.5,172.8c1.1,1.4,2.7,2.2,4.5,2.2
			c1.8,0,3.4-0.8,4.5-2.2c3.7-4.9,91.5-121.6,91.5-172.8C197.7,46.1,154.7,3.1,101.7,3.1z M101.7,149.9c-28,0-50.8-22.8-50.8-50.8
			s22.8-50.8,50.8-50.8s50.8,22.8,50.8,50.8S129.7,149.9,101.7,149.9z"/>
	</g>
</g>
</svg>
