<?xml version="1.0" encoding="utf-8"?>
<!-- Generator: Adobe Illustrator 23.0.3, SVG Export Plug-In . SVG Version: 6.00 Build 0)  -->
<svg version="1.1" id="Capa_1" xmlns="http://www.w3.org/2000/svg" xmlns:xlink="http://www.w3.org/1999/xlink" x="0px" y="0px"
	 viewBox="0 0 256.3 257.4" style="enable-background:new 0 0 256.3 257.4;" xml:space="preserve">
<style type="text/css">
	.st0{fill:#505050;}
</style>
<g id="Page-1">
	<g transform="translate(-1)">
		<path id="Shape" class="st0" d="M110,149.2c-23.2-23.2-28.5-46.4-29.6-55.7c-0.3-2.6,0.6-5.2,2.4-7l18.8-18.8
			c2.8-2.8,3.3-7.1,1.2-10.4L72.8,10.9c-2.3-3.7-7-5-10.9-3.1L14,30.4c-3.1,1.5-5,4.9-4.6,8.3c2.5,23.9,12.9,82.7,70.7,140.4
			s116.5,68.2,140.4,70.7c3.5,0.4,6.8-1.5,8.3-4.6l22.6-48c1.9-3.9,0.6-8.6-3-10.8l-46.4-29.9c-3.3-2.1-7.6-1.6-10.4,1.2l-18.8,18.8
			c-1.8,1.8-4.4,2.7-7,2.4C156.4,177.6,133.2,172.4,110,149.2L110,149.2z"/>
	</g>
</g>
</svg>
