<?xml version="1.0" encoding="utf-8"?>
<!-- Generator: Adobe Illustrator 23.0.3, SVG Export Plug-In . SVG Version: 6.00 Build 0)  -->
<svg version="1.1" id="Capa_1" xmlns="http://www.w3.org/2000/svg" xmlns:xlink="http://www.w3.org/1999/xlink" x="0px" y="0px"
	 viewBox="0 0 427 427" style="enable-background:new 0 0 427 427;" xml:space="preserve">
<style type="text/css">
	.st0{fill-rule:evenodd;clip-rule:evenodd;fill:#505050;}
</style>
<path class="st0" d="M357.1,69.6c-38-38.1-88.6-59.1-142.5-59.1c-111,0-201.4,90.4-201.4,201.4c0,35.5,9.3,70.2,26.9,100.7L11.4,417
	l106.8-28c29.4,16.1,62.5,24.5,96.3,24.5h0.1c111,0,201.4-90.4,201.4-201.4C416,158.3,395.1,107.7,357.1,69.6z M214.6,379.5
	L214.6,379.5c-30.1,0-59.6-8.1-85.3-23.3l-6.1-3.6l-63.4,16.6l16.9-61.8l-4-6.3C56,274.4,47.1,243.6,47.1,212
	c0-92.3,75.1-167.4,167.5-167.4c44.7,0,86.8,17.5,118.4,49.1s49,73.7,49,118.4C382,304.4,306.8,379.5,214.6,379.5z M306.4,254.1
	c-5-2.5-29.8-14.7-34.4-16.4c-4.6-1.7-8-2.5-11.3,2.5c-3.4,5-13,16.4-15.9,19.7c-2.9,3.4-5.9,3.8-10.9,1.3c-5-2.5-21.3-7.8-40.5-25
	c-15-13.3-25.1-29.8-28-34.9c-2.9-5,0-7.5,2.2-10.3c5.4-6.8,10.9-13.9,12.6-17.2c1.7-3.4,0.8-6.3-0.4-8.8
	c-1.3-2.5-11.3-27.3-15.5-37.4c-4.1-9.8-8.2-8.5-11.3-8.6c-2.9-0.1-6.3-0.2-9.6-0.2c-3.4,0-8.8,1.3-13.4,6.3
	c-4.6,5-17.6,17.2-17.6,42s18,48.7,20.6,52.1c2.5,3.4,35.5,54.2,86,76c12,5.2,21.4,8.3,28.7,10.6c12.1,3.8,23,3.3,31.7,2
	c9.7-1.4,29.8-12.2,34-23.9c4.2-11.8,4.2-21.8,2.9-23.9C314.8,257.9,311.4,256.6,306.4,254.1z"/>
</svg>
