<svg xmlns="http://www.w3.org/2000/svg" viewBox="0 0 571.681 124.698"><defs><style>.cls-1{fill:#fff;}.cls-2{fill:#ef3e36;}.cls-3{fill:none;stroke:#000;stroke-miterlimit:10;stroke-width:5px;}</style></defs><title>accumulators</title><g id="Capa_3" data-name="Capa 3"><path class="cls-1" d="M588.17,78.553H569.61a49.937,49.937,0,0,0-7.205-21.25,67.17,67.17,0,0,0-15.858-17.88c-8.72-6.62-20.6-11.911-31.7-11.911-10.085,0-410.512.062-410.553.062-12.271,0-24.051,2.167-34.686,8.578a59.275,59.275,0,0,0-17.5,16.18c-4.948,6.9-9.05,14.332-10.486,22.817H21.872V99.83H42.15c1.374,9.246,4,15.562,8.531,21.574,6.638,8.809,21.191,25.787,48.638,25.787h414.3c19,0,34.489-11.093,45.707-25.622q.625-.81,1.228-1.639a48.512,48.512,0,0,0,9.141-23.675H588.17Z" transform="translate(-19.372 -24.994)"/><path class="cls-2" d="M244.317,85.427c-.259-8.351-3.646-13.647-8.376-13.84-3.4-.138-6.205,1.908-8.491,6.186-.68,1.272-1,1.148-1.491-.292a9.431,9.431,0,0,0-3.076-4.606c-3.588-2.756-8.112-1.253-10.89,3.57-.4.7-.673,1.68-1.458,2.179,0-1.634-.029-3.114.01-4.589.028-1.055-.169-1.456-.8-1.442-2.271.05-4.544.045-6.816,0-.638-.012-.8.475-.8,1.491q.016,21.51,0,43.019c0,1.172.218,1.535.881,1.518,2.232-.06,4.467-.092,6.7.011.885.04,1.2-.29,1.186-1.992-.061-7.272-.03-14.545-.024-21.818a32.384,32.384,0,0,1,.479-6.081c.685-3.553,2.437-5.474,4.559-5.012,1.705.371,2.7,2.47,2.927,6.249.058.953.073,1.917.073,2.876.006,7.89.023,15.78-.013,23.67-.007,1.529.155,2.183,1.146,2.118a58.952,58.952,0,0,1,6.58-.009c.829.039,1.045-.378,1.036-1.822-.043-7.478-.006-14.957-.031-22.435a37.677,37.677,0,0,1,.3-4.689c.485-3.985,2.407-6.413,4.636-5.96,1.893.385,3.01,2.99,3.057,7.145.009.754,0,1.509,0,2.264q0,11.835,0,23.67c0,1.033-.027,1.851.825,1.821,2.428-.083,4.858-.055,7.286-.01.568.01.742-.317.735-1.3C244.388,106.689,244.647,96.048,244.317,85.427Z" transform="translate(-19.372 -24.994)"/><path class="cls-2" d="M274.907,74c0-1.352-.239-1.781-1.01-1.754-2.191.078-4.386.11-6.576-.01-.934-.051-1.191.42-1.18,2.061.051,7.541.021,15.084.022,22.627a22.743,22.743,0,0,1-.68,6c-.879,3.213-2.77,4.772-5.025,4.181-1.64-.43-2.623-2.441-2.918-6.093-.1-1.216-.138-2.456-.14-3.685-.012-7.749-.027-15.5.013-23.245.007-1.468-.253-1.864-1.064-1.833-2.231.087-4.463.058-6.695.013-.656-.014-1.011.2-1,1.561.074,10.419-.146,20.844.143,31.256a20.851,20.851,0,0,0,2.422,9.983c3.678,6.241,10.663,5.664,14.215-1.163.277-.533.45-1.3,1.112-1.494,0,1.469.044,2.875-.013,4.269-.05,1.243.165,1.655.907,1.624,2.152-.089,4.306-.08,6.459,0,.748.026,1.013-.318,1.011-1.707Q274.869,95.288,274.907,74Z" transform="translate(-19.372 -24.994)"/><path class="cls-2" d="M196.612,72.58a57.233,57.233,0,0,1-6.227,0c-.95-.054-1.275.352-1.261,2.127.058,7.545.027,15.093.023,22.639a21.827,21.827,0,0,1-.758,6.173c-.907,3.055-2.839,4.548-5,3.912-1.641-.483-2.615-2.529-2.887-6.168-.086-1.152-.116-2.324-.118-3.486q-.015-11.731,0-23.463c0-.954.031-1.741-.757-1.72-2.389.062-4.78.045-7.169.006-.616-.01-.82.405-.814,1.456.065,10.562-.163,21.13.152,31.683a19.552,19.552,0,0,0,2.461,9.73c2.979,4.752,6.454,5.014,10.121,3.287,2.048-.964,3.525-3.4,4.864-6.158l.286.178c0,1.416.044,2.837-.013,4.246-.052,1.266.191,1.641.919,1.612,2.114-.085,4.231-.106,6.345.006.88.047,1.122-.4,1.119-1.946q-.051-20.994,0-41.986C197.9,72.9,197.544,72.532,196.612,72.58Z" transform="translate(-19.372 -24.994)"/><path class="cls-2" d="M424.727,102.292c-.225-5.416-2.195-9.216-5.714-10.954a27.337,27.337,0,0,0-5.27-1.729A18.693,18.693,0,0,1,408.6,87.9c-1.636-.978-2.084-3.688-.957-5.537,1.663-2.73,6.754-2.419,7.461,2.73.152,1.108.468,1.36,1.109,1.341a65.03,65.03,0,0,1,6.638.02c1.2.088,1.277-.725,1.1-2.292-.618-5.383-2.6-8.769-5.612-10.725-3.477-2.256-7.082-2.361-10.725-1.794a10.627,10.627,0,0,0-6.454,3.586c-2.547,2.841-3.6,6.956-3.416,11.92.171,4.7,1.495,8.178,4.143,10.264a16.476,16.476,0,0,0,5.257,2.534c2.239.76,4.567.854,6.7,2.425a3.935,3.935,0,0,1,1.423,3.34,4.175,4.175,0,0,1-1.305,3.49c-2.089,1.627-4.2,1.493-6.271-.155a3.392,3.392,0,0,1-1.3-2.4c-.21-3.386-1.545-3.376-3.063-3.125a11.539,11.539,0,0,1-1.878.017v-.011c-1.253,0-2.506.042-3.758-.018-.611-.03-.822.324-.773,1.319.2,4.1,1.067,7.654,3.1,10.206a11.939,11.939,0,0,0,8.826,4.539c3.857.4,7.691.131,11.28-2.6C423.58,114.335,425.03,109.592,424.727,102.292Z" transform="translate(-19.372 -24.994)"/><path class="cls-2" d="M165.948,102.074c-2.466.082-4.933.042-7.4.013-.494-.005-.764.227-.937,1.125-.793,4.1-1.8,5.464-3.926,5.471-2.209.007-3.671-1.811-4.392-5.585a43.446,43.446,0,0,1-.332-12.793,15.72,15.72,0,0,1,1.209-5.062c1.108-2.317,2.546-2.937,4.211-2.619s2.659,1.931,3.106,4.58c.2,1.2.535,1.454,1.165,1.418,1.173-.066,2.349-.019,3.524-.019,1.253,0,2.506-.032,3.758.013.628.022.778-.327.7-1.457-.378-5.43-1.89-9.538-4.6-12.189-4.162-4.064-8.621-4.223-13.1-2.357-4.236,1.765-7.082,6.5-8.4,13.828a52.348,52.348,0,0,0,.048,18.792c1.106,6.028,3.406,10.306,6.785,12.544a11.136,11.136,0,0,0,12.547.256c3.765-2.2,6.177-6.8,6.747-13.929C166.728,103.15,166.98,102.04,165.948,102.074Z" transform="translate(-19.372 -24.994)"/><path class="cls-2" d="M135.819,102.062c-2.388.11-4.778.068-7.167.018-.611-.012-.881.29-1.033,1.4-.364,2.666-1.272,4.5-2.889,5.055-2.5.85-4.546-1.1-5.4-5.3a45.2,45.2,0,0,1-.407-12.394,17.455,17.455,0,0,1,1.149-5.335c1.685-4.071,5.865-4.214,6.958.135.747,2.973,1.771,3.185,3.215,2.975a12.96,12.96,0,0,1,1.88-.016c1.214,0,2.43-.077,3.641.027.834.071.97-.5.866-1.809-.4-5.091-1.809-9.076-4.346-11.6-4.6-4.581-9.495-4.689-14.418-2.006-3.687,2.01-6.041,6.6-7.292,12.965a50.662,50.662,0,0,0-.785,10.957c.188,7.884,1.59,14.94,5.717,18.921,5.574,5.376,11.356,5.123,16.926-.21,2.591-2.481,3.874-6.829,4.255-11.948C136.781,102.729,136.7,102.021,135.819,102.062Z" transform="translate(-19.372 -24.994)"/><path class="cls-2" d="M340.143,107.683c-.531-.974-1.641-.2-2.492-.33-.232-.036-.461-.124-.693-.169-1.182-.229-1.726-1.475-1.73-3.462-.013-6.718,0-13.437-.017-20.155,0-.984.183-1.327.74-1.3,1.173.05,2.35-.049,3.522.038.7.052.981-.276.947-1.589-.057-2.189-.047-4.388,0-6.579.023-1.147-.169-1.6-.855-1.543-1.015.087-2.04-.088-3.051.055-.99.14-1.386-.292-1.318-2.206.106-2.936,0-5.893.04-8.84.016-1.2-.163-1.741-.91-1.722-2.309.059-4.619.052-6.928,0-.717-.015-.96.466-.946,1.7.034,3.015-.052,6.038.035,9.047.049,1.712-.312,2.144-1.2,2.006-.7-.109-1.41.024-2.112-.037-.552-.049-.782.293-.773,1.282.021,2.331.025,4.662,0,6.992-.012,1.043.177,1.49.808,1.424.78-.081,1.568.053,2.347-.039.727-.086.933.388.921,1.64-.042,4.044-.016,8.089-.016,13.179.12,3.814-.244,8.7.173,13.536.378,4.386,1.762,6.759,4.269,7.569,2.912.941,5.855.314,8.783.449.5.023.692-.389.682-1.251-.019-1.645.03-3.293-.012-4.935C340.313,110.821,340.759,108.816,340.143,107.683Z" transform="translate(-19.372 -24.994)"/><path class="cls-2" d="M289.109,57.706c0-1.352-.249-1.762-1.02-1.732-2.191.086-4.386.114-6.576-.007-.954-.053-1.252.365-1.243,2.119.052,9.734.025,19.47.025,29.205,0,9.8.02,19.608-.021,29.412-.006,1.536.214,1.984,1.1,1.936,2.229-.119,4.463-.082,6.693-.014.73.022,1.042-.267,1.041-1.684Q289.079,87.324,289.109,57.706Z" transform="translate(-19.372 -24.994)"/><path class="cls-2" d="M394.128,73c0-.958-.244-1.341-.775-1.375a6.791,6.791,0,0,0-4.271,1.007c-1.927,1.237-3.25,3.642-4.209,6.775l-.3-.167c0-1.695-.031-3.393.011-5.084.028-1.131-.164-1.589-.853-1.57-2.231.061-4.463.051-6.694.006-.646-.014-.905.335-.9,1.524q.024,21.5,0,42.99c0,1.176.224,1.529.882,1.513,2.27-.057,4.543-.111,6.811.02.933.054,1.079-.522,1.067-1.984q-.069-8.842-.009-17.689c.049-6.906,1.862-10.876,5.444-11.873A9.345,9.345,0,0,1,393.372,87c.555.03.768-.243.763-1.245C394.114,81.505,394.119,77.254,394.128,73Z" transform="translate(-19.372 -24.994)"/><path class="cls-2" d="M97.172,58.359c-.262-1.239-.612-1.661-1.357-1.644-3.015.069-6.032.125-9.045-.024-1.093-.053-1.563.577-1.934,2.349q-5,23.825-10.094,47.587c-.829,3.9-1.637,7.809-2.508,11.969,3.235,0,6.317-.01,9.4.009.557,0,.6-.753.715-1.362.6-3.113,1.21-6.225,1.766-9.364.213-1.2.52-1.73,1.306-1.713,3.72.083,7.44.072,11.16.006.716-.013,1.036.391,1.245,1.569.568,3.2,1.211,6.368,1.815,9.553.142.753.281,1.334.859,1.326,3.09-.043,6.18-.02,9.257-.02a4.734,4.734,0,0,0-.224-1.887Q103.345,87.54,97.172,58.359Zm-2.981,35.66C92,93.966,89.805,94,87.612,94c-.445,0-.878.122-.643-1.186,1.236-6.856,2.432-13.734,3.641-20.605a1.137,1.137,0,0,1,.456-.86c.585,3.314,1.16,6.622,1.753,9.921.669,3.723,1.314,7.462,2.05,11.146C95.147,93.808,94.928,94.037,94.191,94.019Z" transform="translate(-19.372 -24.994)"/><path class="cls-2" d="M319.3,85.907c.1-6.811-2.08-10.782-5.12-12.481a13.2,13.2,0,0,0-14.4.336c-2.96,1.874-4.76,5.584-5.215,11.159-.119,1.466.07,2.122,1.021,2.057A46.191,46.191,0,0,1,301,86.969c1.035.051,1.933.06,2.117-2.291a3.291,3.291,0,0,1,.8-1.726,3.894,3.894,0,0,1,5.823-.22,4.8,4.8,0,0,1-.141,5.647,4.984,4.984,0,0,1-2.675,1.408c-2.249.527-4.507.971-6.735,1.7-4.987,1.636-7.5,7.866-6.817,16.674.5,6.43,4.053,11.411,8.286,11.524,3.429.092,6.5-1.478,8.847-6.429.215,1.441.372,2.7.6,3.912.131.7.321,1.429.872,1.427,2.687,0,5.375,0,8.194,0a30.181,30.181,0,0,1-.891-8.609C319.274,101.959,319.181,93.929,319.3,85.907Zm-8.749,13.32c-.026.405,0,.819,0,1.229-.008,6.158-2.16,9.886-5.524,9.566-1.475-.14-2.359-1.251-2.729-3.429a7.844,7.844,0,0,1,1.217-5.95,5.912,5.912,0,0,1,2.842-1.777,14.974,14.974,0,0,0,3.071-1.222C310.47,96.975,310.651,97.643,310.551,99.227Z" transform="translate(-19.372 -24.994)"/><path class="cls-2" d="M357.189,71.349a10.517,10.517,0,0,0-9.219,4.8c-4.9,6.836-5.534,16.076-4.46,25.914,1.014,9.3,4.454,14.868,9.779,16.905a11.48,11.48,0,0,0,9.157-.343c3.516-1.595,6.168-5.08,7.871-10.641a39.229,39.229,0,0,0,1.524-10.132c.256-7.7-.548-14.879-3.979-20.445C364.944,72.672,361.324,71.317,357.189,71.349Zm4.606,32.825c-.82,3.427-2.548,4.552-4.593,4.431-1.991-.117-3.414-1.746-4.189-4.92a31.542,31.542,0,0,1-.767-8.167,34.091,34.091,0,0,1,.665-7.82c.762-3.487,2.249-5.284,4.373-5.385,2.037-.1,3.761,1.167,4.544,4.594A37.681,37.681,0,0,1,361.8,104.174Z" transform="translate(-19.372 -24.994)"/><path d="M495.061,119.692h-8.609v-1.354c0-8.639.021-17.279-.02-25.918a30.657,30.657,0,0,0-.425-4.8c-.423-2.553-1.544-3.6-2.919-3.854-3.341-.623-5.158,3.686-5.218,8.858-.1,8.561-.051,17.129-.038,25.693,0,1.08-.111,1.477-.764,1.457-2.581-.078-5.164-.032-7.79-.032V72.531h8.188V78.7l.161.128a8.018,8.018,0,0,0,.48-.837c2.423-5.526,5.636-7.194,9.354-6.5a7.017,7.017,0,0,1,4.483,3.176c1.887,2.7,2.73,6.41,2.97,10.621.128,2.251.137,4.531.141,6.8q.022,13.071.006,26.142Z" transform="translate(-19.372 -24.994)"/><path d="M526.52,102.568c-.108,4.684-.953,8.653-2.893,11.821a11.289,11.289,0,0,1-6.68,5.358,11.477,11.477,0,0,1-11.152-2.11c-3.378-2.78-5.454-7.545-6.333-13.8a54.4,54.4,0,0,1,.232-17.163c1.185-6.651,3.683-11.3,7.465-13.509,4.542-2.657,9.129-2.424,13.553.842,3.11,2.3,5.08,6.433,5.655,12.364.229,2.361.193,2.449-1.194,2.449-2.41,0-4.819-.013-7.229.011-.4,0-.618-.178-.719-.9-.669-4.794-2.852-5.972-5.284-5.149-1.757.594-2.755,2.681-3.26,5.424a42.965,42.965,0,0,0,0,15.47c1.057,5.839,4.573,6.507,6.7,4.651,1.111-.968,1.628-2.731,1.89-4.713.12-.913.351-1.146.859-1.138,2.558.04,5.116.017,7.673.021C526.012,102.5,526.219,102.539,526.52,102.568Z" transform="translate(-19.372 -24.994)"/><path d="M465.019,55.963v63.319H454.238v-1.349q0-30.255,0-60.509c0-1.457,0-1.46.931-1.461h9.85Z" transform="translate(-19.372 -24.994)"/><path d="M428.7,132.936v-5.594a3.771,3.771,0,0,0,2.854-2.394,13.969,13.969,0,0,0,.74-5.568h-3.718c-.019-.383-.047-.693-.047-1,0-3.986.015-7.973-.015-11.958-.007-.845.214-1.044.791-1.039q4.692.044,9.386,0c.627-.007.839.247.821,1.115-.086,4.341-.082,8.686-.215,13.024A21.768,21.768,0,0,1,438.042,126a9.258,9.258,0,0,1-6.873,6.479C430.374,132.686,429.564,132.78,428.7,132.936Z" transform="translate(-19.372 -24.994)"/><path d="M539.206,119.3H528.29c-.019-.35-.054-.693-.054-1.036,0-3.888.012-7.776-.015-11.663-.006-.857.138-1.2.832-1.192,3.128.047,6.257.038,9.385.005.586-.006.787.207.782,1.04C539.191,110.693,539.206,114.938,539.206,119.3Z" transform="translate(-19.372 -24.994)"/><path d="M584.956,26.658a12.569,12.569,0,0,1,4.458,16.981,12.22,12.22,0,0,1-4.458,4.528,12.122,12.122,0,0,1-12.263,0,12.565,12.565,0,0,1-4.458-16.98,12.215,12.215,0,0,1,4.458-4.529,12.129,12.129,0,0,1,12.263,0Zm-.935,19.894a10.652,10.652,0,0,0,0-18.278,10.249,10.249,0,0,0-10.393,0,10.652,10.652,0,0,0,0,18.278,10.249,10.249,0,0,0,10.393,0Zm-1.888-2.382L579.1,38.533h-2.567V44.17h-2.5V29.957h6.348a4.381,4.381,0,0,1,3.227,1.152,4.225,4.225,0,0,1,1.159,3.136,4.452,4.452,0,0,1-.784,2.7,3.6,3.6,0,0,1-2.212,1.39l3.245,5.836Zm-5.6-7.9h3.5a2.306,2.306,0,0,0,1.64-.536,2.226,2.226,0,0,0,0-2.977,2.3,2.3,0,0,0-1.64-.537h-3.5Z" transform="translate(-19.372 -24.994)"/></g><g id="Capa_4" data-name="Capa 4"><path class="cls-3" d="M588.17,78.553H569.61a49.937,49.937,0,0,0-7.205-21.25,67.17,67.17,0,0,0-15.858-17.88c-8.72-6.62-20.6-11.911-31.7-11.911-10.085,0-410.512.062-410.553.062-12.271,0-24.051,2.167-34.686,8.578a59.275,59.275,0,0,0-17.5,16.18c-4.948,6.9-9.05,14.332-10.486,22.817H21.872V99.83H42.15c1.374,9.246,4,15.562,8.531,21.574,6.638,8.809,21.191,25.787,48.638,25.787h414.3c19,0,34.489-11.093,45.707-25.622q.625-.81,1.228-1.639a48.512,48.512,0,0,0,9.141-23.675H588.17Z" transform="translate(-19.372 -24.994)"/></g></svg>