<svg xmlns="http://www.w3.org/2000/svg" viewBox="0 0 571.681 124.698"><defs><style>.cls-1{fill:#ef3e36;}.cls-2{fill:none;stroke:#000;stroke-miterlimit:10;stroke-width:5px;}</style></defs><title>accumulators</title><g id="Capa_3" data-name="Capa 3"><path class="cls-1" d="M259.381,238.789c-.259-8.351-3.646-13.648-8.376-13.84-3.4-.138-6.2,1.908-8.491,6.186-.68,1.271-1,1.148-1.491-.292a9.431,9.431,0,0,0-3.076-4.606c-3.588-2.756-8.112-1.254-10.89,3.569-.4.7-.673,1.681-1.458,2.179,0-1.634-.029-3.114.01-4.588.027-1.055-.169-1.457-.8-1.443-2.272.051-4.544.046-6.816,0-.638-.012-.8.476-.8,1.492q.017,21.508,0,43.019c0,1.171.218,1.535.881,1.517,2.232-.059,4.467-.091,6.7.011.885.041,1.2-.289,1.186-1.992-.061-7.271-.03-14.544-.024-21.817a32.377,32.377,0,0,1,.479-6.081c.685-3.554,2.436-5.474,4.559-5.012,1.705.371,2.7,2.47,2.927,6.249.058.952.073,1.917.073,2.875.006,7.89.023,15.781-.013,23.671-.007,1.529.155,2.183,1.146,2.118a58.713,58.713,0,0,1,6.58-.01c.829.039,1.044-.378,1.036-1.822-.043-7.477-.007-14.956-.031-22.435a37.661,37.661,0,0,1,.3-4.688c.485-3.985,2.407-6.413,4.635-5.96,1.894.384,3.011,2.99,3.058,7.145.008.754,0,1.509,0,2.264q0,11.835,0,23.67c0,1.033-.027,1.85.825,1.821,2.428-.083,4.858-.055,7.286-.011.568.011.742-.317.735-1.3C259.452,260.051,259.711,249.41,259.381,238.789Z" transform="translate(-34.436 -178.355)"/><path class="cls-1" d="M289.97,227.36c0-1.353-.238-1.781-1.009-1.754-2.191.078-4.386.109-6.576-.01-.934-.051-1.191.419-1.18,2.06.05,7.542.021,15.085.022,22.627a22.733,22.733,0,0,1-.68,6c-.88,3.214-2.77,4.773-5.025,4.182-1.64-.43-2.623-2.441-2.918-6.094-.1-1.216-.138-2.455-.14-3.685-.012-7.748-.028-15.5.012-23.244.008-1.468-.252-1.865-1.063-1.833-2.231.086-4.464.057-6.695.012-.656-.013-1.011.2-1,1.562.073,10.419-.147,20.844.143,31.256a20.862,20.862,0,0,0,2.421,9.983c3.679,6.241,10.664,5.663,14.216-1.164.277-.532.45-1.295,1.112-1.493,0,1.469.043,2.875-.013,4.268-.05,1.243.165,1.656.906,1.625,2.153-.089,4.307-.081,6.46,0,.748.026,1.013-.318,1.011-1.707Q289.933,248.65,289.97,227.36Z" transform="translate(-34.436 -178.355)"/><path class="cls-1" d="M211.676,225.941a57.252,57.252,0,0,1-6.228,0c-.949-.054-1.274.352-1.26,2.127.058,7.545.027,15.092.023,22.639a21.815,21.815,0,0,1-.758,6.172c-.907,3.055-2.839,4.549-5,3.912-1.64-.482-2.614-2.528-2.886-6.168-.086-1.151-.116-2.323-.118-3.486q-.015-11.732,0-23.462c0-.954.031-1.741-.758-1.721-2.389.063-4.779.046-7.168.006-.617-.01-.82.405-.814,1.457.065,10.561-.163,21.13.152,31.683a19.55,19.55,0,0,0,2.461,9.729c2.978,4.753,6.454,5.014,10.121,3.288,2.048-.964,3.525-3.4,4.863-6.158l.287.177c0,1.417.044,2.838-.013,4.247-.052,1.266.191,1.641.918,1.612,2.115-.085,4.232-.106,6.345.006.881.046,1.123-.4,1.12-1.947q-.051-20.993,0-41.986C212.968,226.266,212.608,225.893,211.676,225.941Z" transform="translate(-34.436 -178.355)"/><path class="cls-1" d="M439.791,255.654c-.225-5.416-2.195-9.216-5.715-10.954a27.365,27.365,0,0,0-5.27-1.73,18.661,18.661,0,0,1-5.139-1.713c-1.636-.978-2.084-3.688-.957-5.537,1.663-2.73,6.754-2.42,7.461,2.729.152,1.109.467,1.36,1.109,1.342a65.03,65.03,0,0,1,6.638.02c1.2.088,1.276-.725,1.1-2.292-.618-5.383-2.6-8.769-5.612-10.726-3.477-2.255-7.082-2.36-10.726-1.793a10.623,10.623,0,0,0-6.453,3.586c-2.547,2.841-3.595,6.956-3.416,11.919.17,4.706,1.5,8.178,4.143,10.264a16.458,16.458,0,0,0,5.257,2.535c2.239.76,4.567.854,6.7,2.425a3.938,3.938,0,0,1,1.424,3.34,4.176,4.176,0,0,1-1.305,3.49c-2.089,1.627-4.206,1.493-6.272-.156a3.391,3.391,0,0,1-1.3-2.4c-.209-3.386-1.544-3.376-3.062-3.125a11.54,11.54,0,0,1-1.878.017v-.011c-1.253,0-2.506.042-3.758-.018-.611-.03-.822.324-.773,1.319.2,4.1,1.067,7.653,3.1,10.206a11.937,11.937,0,0,0,8.826,4.538c3.856.4,7.691.132,11.28-2.6C438.644,267.7,440.094,262.954,439.791,255.654Z" transform="translate(-34.436 -178.355)"/><path class="cls-1" d="M181.012,255.436c-2.466.081-4.934.042-7.4.013-.494-.006-.764.226-.937,1.125-.793,4.1-1.8,5.464-3.926,5.47-2.209.008-3.671-1.81-4.392-5.584a43.446,43.446,0,0,1-.333-12.793,15.766,15.766,0,0,1,1.209-5.062c1.109-2.317,2.546-2.938,4.212-2.619,1.65.315,2.658,1.93,3.106,4.58.2,1.195.535,1.454,1.165,1.418,1.173-.067,2.349-.019,3.523-.02,1.253,0,2.507-.032,3.759.014.628.022.778-.327.7-1.458-.378-5.429-1.89-9.537-4.6-12.188-4.162-4.065-8.622-4.224-13.1-2.357-4.236,1.765-7.082,6.5-8.4,13.827a52.354,52.354,0,0,0,.048,18.793c1.106,6.028,3.405,10.306,6.785,12.543a11.137,11.137,0,0,0,12.547.257c3.765-2.2,6.177-6.8,6.747-13.929C181.792,256.512,182.044,255.4,181.012,255.436Z" transform="translate(-34.436 -178.355)"/><path class="cls-1" d="M150.883,255.423c-2.388.111-4.778.068-7.167.019-.611-.012-.882.29-1.033,1.4-.364,2.665-1.272,4.5-2.889,5.054-2.5.851-4.546-1.1-5.4-5.3a45.233,45.233,0,0,1-.408-12.394,17.485,17.485,0,0,1,1.15-5.335c1.685-4.071,5.865-4.214,6.958.136.747,2.973,1.771,3.185,3.215,2.974a13.091,13.091,0,0,1,1.879-.015c1.215,0,2.431-.077,3.642.026.834.072.97-.5.866-1.808-.4-5.091-1.809-9.076-4.347-11.6-4.6-4.581-9.494-4.69-14.417-2.006-3.687,2.01-6.042,6.6-7.292,12.965a50.585,50.585,0,0,0-.785,10.956c.188,7.885,1.59,14.94,5.717,18.921,5.573,5.376,11.356,5.124,16.926-.209,2.591-2.481,3.874-6.829,4.255-11.948C151.844,256.09,151.765,255.383,150.883,255.423Z" transform="translate(-34.436 -178.355)"/><path class="cls-1" d="M355.207,261.045c-.531-.974-1.641-.2-2.492-.33-.232-.036-.461-.124-.693-.169-1.182-.229-1.726-1.475-1.73-3.462-.013-6.719,0-13.437-.017-20.156,0-.983.183-1.326.739-1.3,1.174.05,2.35-.05,3.523.038.7.052.981-.276.947-1.589-.058-2.189-.047-4.388,0-6.579.023-1.148-.169-1.6-.855-1.544-1.015.087-2.04-.087-3.051.056-.99.14-1.386-.292-1.318-2.206.106-2.936,0-5.894.04-8.84.015-1.2-.163-1.741-.91-1.722-2.309.059-4.619.052-6.928,0-.717-.015-.96.466-.946,1.7.034,3.015-.052,6.038.035,9.046.049,1.712-.312,2.145-1.2,2.007-.7-.109-1.41.024-2.113-.038-.551-.048-.782.294-.773,1.283.021,2.33.025,4.662,0,6.992-.013,1.043.177,1.49.808,1.424.78-.082,1.568.052,2.347-.039.727-.086.933.388.92,1.64-.041,4.043-.015,8.089-.015,13.178.12,3.815-.244,8.7.173,13.537.378,4.386,1.762,6.759,4.269,7.569,2.912.94,5.855.314,8.783.449.5.023.692-.389.682-1.251-.019-1.645.03-3.293-.012-4.935C355.377,264.183,355.823,262.177,355.207,261.045Z" transform="translate(-34.436 -178.355)"/><path class="cls-1" d="M304.173,211.068c0-1.353-.249-1.763-1.02-1.732-2.191.086-4.386.114-6.576-.008-.954-.053-1.252.366-1.243,2.119.051,9.735.025,19.471.025,29.206,0,9.8.019,19.608-.021,29.412-.007,1.536.214,1.983,1.1,1.936,2.229-.119,4.462-.082,6.693-.014.73.022,1.042-.267,1.041-1.684Q304.143,240.686,304.173,211.068Z" transform="translate(-34.436 -178.355)"/><path class="cls-1" d="M409.192,226.365c0-.959-.244-1.341-.775-1.375A6.781,6.781,0,0,0,404.146,226c-1.927,1.236-3.25,3.642-4.209,6.774l-.3-.167c0-1.7-.031-3.392.011-5.084.028-1.13-.164-1.588-.853-1.57-2.231.062-4.463.052-6.695.006-.645-.013-.9.336-.9,1.525q.024,21.5,0,42.99c0,1.175.224,1.529.882,1.513,2.27-.057,4.542-.111,6.811.02.933.054,1.079-.523,1.067-1.984q-.069-8.844-.01-17.689c.05-6.907,1.863-10.877,5.445-11.873a9.368,9.368,0,0,1,3.045-.1c.555.031.769-.242.764-1.245C409.178,234.867,409.183,230.615,409.192,226.365Z" transform="translate(-34.436 -178.355)"/><path class="cls-1" d="M112.236,211.721c-.262-1.24-.612-1.662-1.358-1.645-3.014.069-6.031.125-9.044-.023-1.093-.054-1.563.577-1.935,2.349q-5,23.825-10.094,47.587c-.828,3.9-1.636,7.809-2.507,11.969,3.235,0,6.316-.011,9.4.009.558,0,.6-.753.716-1.362.6-3.113,1.21-6.225,1.766-9.364.213-1.2.52-1.731,1.306-1.713,3.72.082,7.44.072,11.16.006.716-.013,1.036.391,1.245,1.569.568,3.2,1.211,6.367,1.814,9.553.143.753.282,1.334.86,1.326,3.09-.044,6.18-.021,9.257-.021a4.72,4.72,0,0,0-.225-1.887Q118.408,240.9,112.236,211.721Zm-2.982,35.66c-2.192-.053-4.385-.018-6.578-.02-.445,0-.879.121-.643-1.186,1.236-6.857,2.432-13.734,3.641-20.605a1.137,1.137,0,0,1,.456-.86c.585,3.314,1.16,6.622,1.753,9.92.669,3.724,1.314,7.463,2.05,11.146C110.211,247.17,109.992,247.4,109.254,247.381Z" transform="translate(-34.436 -178.355)"/><path class="cls-1" d="M334.364,239.269c.1-6.811-2.08-10.783-5.12-12.481a13.2,13.2,0,0,0-14.4.336c-2.96,1.874-4.76,5.584-5.215,11.159-.119,1.466.07,2.122,1.021,2.057a46.191,46.191,0,0,1,5.405-.01c1.034.052,1.933.06,2.117-2.29a3.279,3.279,0,0,1,.8-1.726,3.9,3.9,0,0,1,5.823-.221,4.806,4.806,0,0,1-.141,5.648,4.993,4.993,0,0,1-2.676,1.408c-2.248.527-4.507.971-6.734,1.7-4.987,1.636-7.5,7.865-6.817,16.673.5,6.431,4.053,11.412,8.286,11.525,3.429.092,6.5-1.478,8.847-6.429.215,1.441.372,2.695.6,3.911.13.7.32,1.429.871,1.428,2.688,0,5.376,0,8.194,0a30.263,30.263,0,0,1-.891-8.61C334.337,255.321,334.245,247.29,334.364,239.269Zm-8.749,13.319c-.026.405,0,.819,0,1.229-.008,6.159-2.161,9.886-5.524,9.567-1.475-.14-2.359-1.251-2.729-3.429a7.842,7.842,0,0,1,1.217-5.95,5.92,5.92,0,0,1,2.841-1.778,14.818,14.818,0,0,0,3.071-1.222C325.534,250.337,325.715,251.005,325.615,252.588Z" transform="translate(-34.436 -178.355)"/><path class="cls-1" d="M372.253,224.711a10.514,10.514,0,0,0-9.219,4.8c-4.9,6.836-5.534,16.075-4.461,25.914,1.015,9.3,4.455,14.867,9.78,16.905a11.48,11.48,0,0,0,9.157-.343c3.516-1.595,6.167-5.08,7.871-10.641a39.229,39.229,0,0,0,1.524-10.132c.256-7.7-.548-14.879-3.979-20.446C380.008,226.034,376.388,224.679,372.253,224.711Zm4.606,32.825c-.821,3.426-2.548,4.552-4.593,4.431-1.991-.118-3.414-1.747-4.19-4.92a31.546,31.546,0,0,1-.766-8.167,34.091,34.091,0,0,1,.665-7.82c.762-3.487,2.249-5.284,4.373-5.385,2.037-.1,3.761,1.166,4.544,4.594A37.681,37.681,0,0,1,376.859,257.536Z" transform="translate(-34.436 -178.355)"/><path d="M510.125,273.053h-8.609V271.7c0-8.64.021-17.28-.02-25.919a30.655,30.655,0,0,0-.425-4.8c-.423-2.553-1.544-3.6-2.919-3.854-3.341-.624-5.158,3.686-5.218,8.858-.1,8.561-.051,17.128-.038,25.693,0,1.079-.111,1.476-.764,1.457-2.582-.078-5.164-.032-7.79-.032V225.892h8.187v6.173l.162.129a8.123,8.123,0,0,0,.48-.837c2.422-5.527,5.636-7.194,9.354-6.5a7.019,7.019,0,0,1,4.483,3.176c1.887,2.7,2.73,6.41,2.97,10.621.128,2.251.137,4.531.141,6.8q.022,13.069.006,26.141Z" transform="translate(-34.436 -178.355)"/><path d="M541.584,255.929c-.108,4.685-.953,8.653-2.893,11.822a11.293,11.293,0,0,1-6.68,5.358A11.477,11.477,0,0,1,520.859,271c-3.378-2.78-5.454-7.544-6.333-13.8a54.407,54.407,0,0,1,.232-17.164c1.185-6.651,3.683-11.3,7.464-13.508,4.542-2.658,9.13-2.425,13.553.842,3.111,2.3,5.081,6.433,5.656,12.364.229,2.361.193,2.449-1.194,2.449-2.41,0-4.819-.013-7.229.011-.4,0-.618-.178-.719-.9-.669-4.794-2.852-5.971-5.284-5.149-1.757.595-2.755,2.681-3.26,5.424a42.965,42.965,0,0,0,0,15.47c1.057,5.84,4.573,6.507,6.7,4.652,1.111-.968,1.628-2.731,1.889-4.713.121-.913.351-1.147.86-1.139,2.558.041,5.115.018,7.673.022C541.075,255.863,541.283,255.9,541.584,255.929Z" transform="translate(-34.436 -178.355)"/><path d="M480.083,209.324v63.32H469.3V271.3q0-30.255,0-60.51c0-1.457,0-1.46.931-1.46q4.476,0,8.952,0Z" transform="translate(-34.436 -178.355)"/><path d="M443.761,286.3V280.7a3.774,3.774,0,0,0,2.854-2.394,13.992,13.992,0,0,0,.74-5.569h-3.719c-.018-.382-.046-.692-.046-1,0-3.987.015-7.973-.015-11.959-.007-.844.214-1.044.79-1.038q4.694.043,9.386,0c.628-.007.839.248.822,1.116-.086,4.341-.082,8.686-.215,13.024a21.756,21.756,0,0,1-1.252,6.486,9.26,9.26,0,0,1-6.873,6.48C445.438,286.048,444.628,286.142,443.761,286.3Z" transform="translate(-34.436 -178.355)"/><path d="M554.27,272.656H543.354c-.019-.349-.054-.692-.055-1.035,0-3.888.013-7.776-.014-11.664-.006-.856.138-1.2.832-1.192,3.128.048,6.257.038,9.385.006.586-.006.787.206.782,1.04C554.254,264.055,554.27,268.3,554.27,272.656Z" transform="translate(-34.436 -178.355)"/><path d="M600.02,180.02a12.513,12.513,0,0,1,0,21.509,12.129,12.129,0,0,1-12.263,0,12.512,12.512,0,0,1,0-21.509,12.122,12.122,0,0,1,12.263,0Zm-.935,19.894a10.654,10.654,0,0,0,0-18.279,10.251,10.251,0,0,0-10.394,0,10.655,10.655,0,0,0,0,18.279,10.251,10.251,0,0,0,10.394,0Zm-1.888-2.382-3.032-5.638H591.6v5.638h-2.5V183.319h6.347a4.38,4.38,0,0,1,3.228,1.152,4.225,4.225,0,0,1,1.158,3.136,4.454,4.454,0,0,1-.783,2.7,3.6,3.6,0,0,1-2.212,1.39l3.245,5.836Zm-5.6-7.9h3.5a2.309,2.309,0,0,0,1.64-.535,2.227,2.227,0,0,0,0-2.978,2.309,2.309,0,0,0-1.64-.536h-3.5Z" transform="translate(-34.436 -178.355)"/></g><g id="Capa_4" data-name="Capa 4"><path class="cls-2" d="M603.234,231.915H584.673a49.926,49.926,0,0,0-7.2-21.251,67.166,67.166,0,0,0-15.858-17.879c-8.721-6.62-20.6-11.911-31.7-11.911-10.085,0-410.512.062-410.553.062-12.271,0-24.051,2.166-34.686,8.577a59.279,59.279,0,0,0-17.5,16.181c-4.948,6.9-9.05,14.332-10.487,22.817H36.936v24.68H57.214c1.374,9.247,4,15.562,8.531,21.575,6.638,8.808,21.191,25.787,48.638,25.787h414.3c19,0,34.489-11.093,45.707-25.622q.625-.81,1.228-1.639a48.512,48.512,0,0,0,9.141-23.675h18.477Z" transform="translate(-34.436 -178.355)"/></g></svg>