<svg id="Capa_5" data-name="Capa 5" xmlns="http://www.w3.org/2000/svg" xmlns:xlink="http://www.w3.org/1999/xlink" viewBox="0 0 623.089 165.008"><defs><style>.cls-1{fill:url(#Degradado_sin_nombre_23);}.cls-2{fill:url(#Degradado_sin_nombre_23-2);}.cls-3{fill:url(#Degradado_sin_nombre_23-3);}.cls-4{fill:url(#Degradado_sin_nombre_23-4);}.cls-5{fill:url(#Degradado_sin_nombre_23-5);}.cls-6{fill:url(#Degradado_sin_nombre_23-6);}.cls-7{fill:url(#Degradado_sin_nombre_23-7);}.cls-8{fill:url(#Degradado_sin_nombre_23-8);}.cls-11,.cls-9{fill:#195883;}.cls-10{fill:none;stroke-width:1.5px;}.cls-10,.cls-11{stroke:#195883;stroke-miterlimit:10;}.cls-11{stroke-width:0.25px;}</style><linearGradient id="Degradado_sin_nombre_23" x1="181.833" y1="31.4" x2="181.833" y2="127.362" gradientUnits="userSpaceOnUse"><stop offset="0" stop-color="#f4f4f4"/><stop offset="1" stop-color="#585858"/></linearGradient><linearGradient id="Degradado_sin_nombre_23-2" x1="250.365" y1="31.246" x2="250.365" y2="126.131" xlink:href="#Degradado_sin_nombre_23"/><linearGradient id="Degradado_sin_nombre_23-3" x1="459.982" y1="31.246" x2="459.982" y2="126.131" xlink:href="#Degradado_sin_nombre_23"/><linearGradient id="Degradado_sin_nombre_23-4" x1="509.737" y1="31.054" x2="509.737" y2="125.939" xlink:href="#Degradado_sin_nombre_23"/><linearGradient id="Degradado_sin_nombre_23-5" x1="574.79" y1="31.17" x2="574.79" y2="126.863" xlink:href="#Degradado_sin_nombre_23"/><linearGradient id="Degradado_sin_nombre_23-6" x1="398.578" y1="31.146" x2="398.578" y2="125.339" xlink:href="#Degradado_sin_nombre_23"/><linearGradient id="Degradado_sin_nombre_23-7" x1="353.769" y1="31.146" x2="353.769" y2="125.339" xlink:href="#Degradado_sin_nombre_23"/><linearGradient id="Degradado_sin_nombre_23-8" x1="309.386" y1="31.299" x2="309.386" y2="126.557" xlink:href="#Degradado_sin_nombre_23"/></defs><title>acriflex</title><g id="Capa_3" data-name="Capa 3"><polygon class="cls-1" points="152.748 70.698 163.301 70.698 165.684 68.187 165.046 32.698 168.492 30.4 197.599 30.4 198.748 32.698 198.748 36.528 197.471 37.421 172.835 37.306 172.578 46.23 173.216 50.549 181.003 50.549 198.748 50.549 198.748 67.677 200.152 70.698 208.578 70.698 212.152 69.209 212.152 30.4 209.344 24.4 204.748 19.677 198.748 17.634 165.046 17.634 159.429 19.677 154.961 23.89 152.152 29.762 151.514 67.038 152.748 70.698"/><polygon class="cls-2" points="237.258 30.4 233.812 32.698 233.726 56.57 236.28 57.592 279.812 57.975 279.812 70.102 231.812 69.719 224.663 64.868 221.109 58.416 220.918 29.762 223.726 23.89 228.195 19.677 233.812 17.634 271.131 17.634 272.535 19.166 272.535 28.741 271.131 30.528 237.258 30.4"/><polygon class="cls-3" points="443.429 17.634 430.535 17.634 430.535 21.464 430.535 29.762 430.726 58.416 434.28 64.868 441.429 69.719 489.429 70.102 482.28 63.464 478.322 57.209 445.897 57.592 443.344 56.57 443.429 32.698 443.429 17.634"/><polygon class="cls-4" points="496.28 30.209 492.833 32.507 492.818 36.74 532.833 37.421 532.788 49.931 492.769 50.357 492.748 56.379 495.301 57.4 538.833 57.783 538.833 69.911 490.833 69.528 483.684 64.677 480.131 58.225 479.939 29.57 482.748 23.698 487.216 19.485 492.833 17.443 538.131 17.443 539.535 18.975 539.535 28.549 538.131 30.336 496.28 30.209"/><polygon class="cls-5" points="604.322 19.719 592.918 33.847 590.28 36.741 586.961 39.719 583.929 43.667 592.152 53.336 603.812 66.187 604.748 69.911 589.173 69.911 575.131 54.528 560.152 70.358 551.216 69.911 544.833 68.996 566.109 43.677 547.01 21.993 545.599 17.443 556.28 17.443 561.344 17.443 574.62 32.911 589.514 17.443 602.961 17.443 604.322 19.719"/><polygon class="cls-6" points="381.514 69.719 368.492 69.719 368.492 60.315 368.665 30.825 371.982 23.89 376.45 19.677 382.067 17.634 427.258 17.634 428.663 19.166 428.663 28.741 427.258 30.528 385.514 30.4 382.067 32.698 382.053 36.74 416.578 36.741 418.875 38.358 418.875 48.826 417.258 50.613 382.705 50.783 381.982 56.57 381.514 69.719"/><polygon class="cls-7" points="360.492 69.719 349.684 69.719 347.556 69.081 347.046 19.804 348.492 17.634 359.301 17.634 360.492 19.634 360.492 69.719"/><polygon class="cls-8" points="339.216 37.166 337.429 40.911 336.578 44.017 339.216 49.081 339.216 69.421 327.216 70.309 326.28 67.209 325.684 51.804 323.046 50.273 290.365 50.443 289.599 38.783 291.726 37.166 324.833 37.081 324.918 31.209 279.812 30.06 279.216 23.464 280.578 17.634 292.705 17.932 330.024 17.932 331.429 19.464 337.258 25.507 339.556 32.656 339.216 37.166"/></g><g id="Capa_2" data-name="Capa 2"><path class="cls-9" d="M500.619,63.322a16.054,16.054,0,0,1,0-1.923l38.742-.148a1.821,1.821,0,0,0,1.815-1.825l-.026-12.218a1.5,1.5,0,0,0-1.485-1.492l-4.737-.033-34.351-.117.05-2.091c-.071-1.963,2.883-1.959,4.34-1.983,9.108-.146,33.3-.259,40.66-.291a2.169,2.169,0,0,0,2.158-2.175V27.651a2.013,2.013,0,0,0-1.883-1.928c-6.8-.134-32.167-.174-43.011-.13-11.826.047-18.584,6.258-18.638,18.194-.025,5.65-.225,11.459-.085,17.107.041,1.648.085,4.085.085,4.085s-2.879.023-7.433.036c-5.631.017-12.5-.079-17.375-.028-8.043.085-8.043-.093-8-4.008.1-8.165.292-27.328.341-33.51a1.961,1.961,0,0,0-1.962-1.979c-1,0-2.426,0-4.336.02-17.606.187-35.215.032-52.823.1-12.291.047-18.741,6.475-18.857,18.717-.084,8.809-.031,17.62-.036,26.429,0,4.087,0,6.67-.008,8.2a1.922,1.922,0,0,0,1.93,1.924h12.186a1.66,1.66,0,0,0,1.66-1.649l.117-18,35.354.041a2.009,2.009,0,0,0,2.011-2l.063-11.665a2.073,2.073,0,0,0-2.071-2.084l-35.156-.03.009-1.87c.012-1.908,2.5-2.1,3.766-2.115,13.614-.155,27.23-.1,41.6-.1,0,7.223-.1,13.841.021,20.455.226,12.575,7.092,19.336,19.581,19.346,25.721.019,79.8,0,90.922,0a2.027,2.027,0,0,0,2.024-2.033V67a1.55,1.55,0,0,0-1.543-1.556c-6.382-.019-30.86-.1-41.219-.227C503.548,65.2,500.643,65.283,500.619,63.322ZM433.787,28.465V38.711s-6.413.034-8.284.035c-10.293,0-20.587-.02-30.88,0-7.082.017-7.763,1.425-7.381,9.575,12.2,0,24.42-.084,36.646-.084V58.514H386.9c0,5.747-.107,19.935-.107,19.935H376.563s-.207-28.158.006-35.7c.254-9.005,6.035-14.362,15.022-14.435Zm46.292,49.972c-8.462-.007-16.925.067-25.385-.044-10.5-.137-16.035-5.272-16.472-15.775-.393-9.439-.106-34.127-.106-34.127s8.44-.075,10.651.028V54.7c0,2.488.057,4.979-.015,7.465-.123,4.246,2.053,5.984,6.116,5.96,7.632-.045,15.268-.039,22.892-.1,2.291-.02,6.921.063,6.921.063.6,1.575,1.541,3.545,2.232,4.924a25.922,25.922,0,0,0,2.986,4.469c.1.121.612.959.729.959C486.505,78.437,483.292,78.439,480.079,78.437Zm58.133-30.113-.031,10.067s-27.036.079-40.4.079c0,8.278-.151,9.916,7.883,9.87,10.137-.058,20.33.028,30.468,0,4.424-.012,8.553.1,8.553.1V78.477s-29.536.024-40.836-.055c-10.782-.076-16.185-5.316-16.1-16.465.052-6.81-.211-13.412.085-20.212a14.168,14.168,0,0,1,13.712-13.361c1.109-.019,43.437-.14,43.437-.14V38.73c-7.6,0-15.5.015-22.754.014-5.484,0-10.969-.014-16.453,0-7.568.015-7.846,1.332-7.8,9.482Z" transform="translate(-6.912 -9.557)"/><path class="cls-9" d="M202.139,25.62q-12.962-.153-25.926.006c-11.342.132-18.148,6.807-18.4,18.331-.232,10.632-.038,21.272-.13,31.907-.031,3.675,1.281,5.712,5.256,5.4,1.486-.117,2.989,0,4.485,0,5.85-.007,6.64-.745,6.664-6.569q.06-14.458.011-28.918c-.006-2.3-.019-4.372,3.22-4.345,6.585.057,20.88.061,25.668.06a1.634,1.634,0,0,1,1.633,1.6l.041,2.4-25.558.151a1.255,1.255,0,0,0-1.247,1.249l-.069,12.715a1.75,1.75,0,0,0,1.756,1.764c4.695-.018,18.517-.066,24.19-.052a1.027,1.027,0,0,1,1.013,1.028c0,2.941,0,5.431,0,7.921.018,11.566.106,11.56,11.715,11,3.261-.156,4.456-1.658,4.454-4.625-.008-11.135.351-22.286-.136-33.4C220.285,31.916,213.423,25.753,202.139,25.62Zm15.405,51.633a1,1,0,0,1-1,1H209a1,1,0,0,1-1-1V59.764a1,1,0,0,0-1-1H182.441c-1.484-.008-1.854-.374-1.854-.927l.051-8.559c.039-.834.543-.958,1.8-.933,7.468.145,20.483-.17,24.115-.215a1,1,0,0,0,.982-.985l.073-4.52a3.618,3.618,0,0,0-3.576-3.68c-6.516-.073-20-.217-25.328-.21-6.42.008-7.277.8-7.343,7.057-.083,7.864-.158,26.917-.175,31.475a1,1,0,0,1-1,.992H161.6a1,1,0,0,1-1-.98c-.026-1.645-.075-4.979-.077-6.984-.007-8.3-.183-16.6-.039-24.9.207-12.006,5.587-17.125,17.65-17.119,8.3.005,16.6-.066,24.9.054,8.946.13,14.482,5.8,14.5,14.7C217.565,54.286,217.545,65.542,217.544,77.253Z" transform="translate(-6.912 -9.557)"/><path class="cls-9" d="M611.576,25.782l-16.38-.277s-9.949,11.466-13.4,15.282c-2.351-2.659-13.328-15.282-13.328-15.282l-16.53.064a2.328,2.328,0,0,0-1.8,3.848l20.676,23.945L550.8,76.766A2.888,2.888,0,0,0,553,81.531l15.684-.317S578.2,70.1,581.8,65.957c2.679,2.942,12.636,15.011,12.636,15.011l17.171.08a2.412,2.412,0,0,0,1.81-4.018L592.225,53.286l20.9-24.025A2.1,2.1,0,0,0,611.576,25.782Zm-.851,52.8-13.873-.122S585.578,65.4,581.8,61.191c-3.244,3.716-14.743,17.264-14.743,17.264h-13.2s14.081-16.979,21.043-25.1c-7.02-8.071-21.185-25.046-21.185-25.046l13.131.307s1.909,2.165,3.933,4.467c3.48,3.957,7.3,7.9,11.023,12.177,3.428-3.915,15.076-16.964,15.076-16.964h13.449L588.476,53.35C595.307,61.284,610.725,78.581,610.725,78.581Z" transform="translate(-6.912 -9.557)"/><path class="cls-9" d="M346.364,49.471C350.27,38.1,343.108,26.182,330.985,25.7c-6.8-.268-13.612-.048-20.419-.048V25.59c-5.385,0-19.763.108-24.21.142a1.338,1.338,0,0,0-1.326,1.346l.034,12.295a1.876,1.876,0,0,0,1.865,1.873c6.775.035,30.283.158,40.6.246,1.23.011,3.207.37,3.674,1.668.074,1.727-2.453,2.173-3.712,2.212-7.133.222-14.277.121-21.417.123-5.068,0-8.1.066-9.6.112a1.2,1.2,0,0,0-1.163,1.22l-.069,12.611a1.859,1.859,0,0,0,1.864,1.874c5.127-.017,19.407-.057,25.481.011,9.875.111,9.045-1.332,9.128,9.048.033,4.147.049,6.81.056,8.4a1.967,1.967,0,0,0,1.975,1.958h12.343a2.153,2.153,0,0,0,2.156-2.154c-.007-5.459-.314-19.713-3.255-24.006C344.157,52.782,345.869,50.914,346.364,49.471Zm-1.018,28.583H334.712s0-9.419-.15-12.732c-.252-5.457-1.569-6.67-6.985-6.688-7.638-.026-29.158.261-29.158.261s-.2-9.05-.028-10.733h24.887c1.5,0,2.989-.016,4.483-.007,3.292.019,6.24-.764,6.242-4.707,0-3.906-2.837-4.743-6.2-4.726-10.627.056-21.254.041-31.881.053-2.481,0-4.962,0-8.034,0V28.3h17.527c8.136,0,16.274-.106,24.409.021,11.709.183,17.522,11.747,12.455,22.328-1.246,2.552-1.34,4.251-.053,5.638C345.6,59.913,345.346,78.054,345.346,78.054Z" transform="translate(-6.912 -9.557)"/><path class="cls-9" d="M243.3,65.28a1.349,1.349,0,0,1-.778-.461,1.951,1.951,0,0,1-.383-.757,8.309,8.309,0,0,1-.2-1.793c-.166-3.9.214-11.5.049-16.11-.136-3.8,1.457-4.861,5.037-4.777,6.617.156,26.309-.042,32.121-.106a1.678,1.678,0,0,0,1.659-1.652l.2-12.491a1.525,1.525,0,0,0-1.519-1.553c-5.929-.022-27.386-.085-37.059.142a16.076,16.076,0,0,0-16.044,15.789c-.337,7.233-.086,14.492-.162,21.735-.118,11.18,6.964,18.008,18.389,17.962,11.456-.046,22.912,0,34.368.033,3.557.011,5.719.014,7.019.013a1.889,1.889,0,0,0,1.889-1.892V66.5a1.265,1.265,0,0,0-1.265-1.264Zm39.314,13.091c-13.117.084-26.24.263-39.35-.061C234.7,78.1,229.181,72.126,229,63.534c-.156-7.3-.229-14.616.07-21.909A13.925,13.925,0,0,1,241.143,28.44a31.457,31.457,0,0,1,4.475-.141c10.6-.01,32.426-.011,32.426-.011l.064,10.295s.458.152-7.116.152c-8.469,0-16.938.1-25.405-.027a6.09,6.09,0,0,0-6.215,6.338c.156,5.125-.005,10.259-.006,15.389,0,6.58,1.036,7.629,7.861,7.659,11.126.048,38.012-.03,38.012-.03l.127,10.2S283.732,78.364,282.618,78.371Z" transform="translate(-6.912 -9.557)"/><path class="cls-9" d="M352.375,32.23q-.051,19.182,0,38.366c0,3.787,0,6.41-.006,8.06a2.221,2.221,0,0,0,2.228,2.227H366.7a2.049,2.049,0,0,0,2.05-2.038l.31-51.017a2.253,2.253,0,0,0-2.245-2.266l-12.208-.045a2.218,2.218,0,0,0-2.231,2.224C352.38,28.738,352.38,30.172,352.375,32.23Zm3.235-3.545h10.417c0,2.709.009,5.3,0,7.891-.05,11.784,0,41.463,0,41.463l-10.42.015Z" transform="translate(-6.912 -9.557)"/><path class="cls-9" d="M162,88.787a20.2,20.2,0,0,1,.972,6.942,35.735,35.735,0,0,1-1.072,6.364,39.423,39.423,0,0,1-4.824,10.882,79.073,79.073,0,0,1-8.852,11.167A146.953,146.953,0,0,1,80.885,166.4a128.321,128.321,0,0,1-19.834,4.68,36.434,36.434,0,0,1-18.885-2.232,40.489,40.489,0,0,1-4.97-2.56c-.683-.413-1.355-.843-2.02-1.283q-.552-.364-1.095-.742c-.217-.15-.832-.762-1.081-.762l-.918,1.021c.074.156.444.33.584.462.285.269.539.58.811.863q.786.816,1.607,1.6a26.528,26.528,0,0,0,6.045,4.6,21.3,21.3,0,0,0,8.174,2.306,93.051,93.051,0,0,0,20.562-.909c2.678-.407,5.338-.934,7.964-1.6a137.891,137.891,0,0,0,16.587-5.36,145.465,145.465,0,0,0,16.074-7.512,158.668,158.668,0,0,0,15.515-9.64,177.062,177.062,0,0,0,14.909-11.744l.365-.32c11.247-9.907,18.146-18.83,22.372-28.933,2.65-6.334,2.881-12.2.647-17.5Z" transform="translate(-6.912 -9.557)"/><path class="cls-9" d="M106.433,68.934c-9.777,14.949-24.33,25.51-45.8,33.238-6.811,2.451-12.506,3.479-17.914,3.269a34.9,34.9,0,0,1-6.636-.919,27.2,27.2,0,0,1-4.393-1.429,23.1,23.1,0,0,1-2.121-1.034c-.117-.064-.284-.135-.467-.216-.155-.066-.314-.135-.469-.209a6.721,6.721,0,0,0,1.073,1.657,13.361,13.361,0,0,0,7.22,3.6,40.576,40.576,0,0,0,9.566.861,49.024,49.024,0,0,0,9.673-1.519c2.839-.681,5.668-1.51,8.406-2.465A89.617,89.617,0,0,0,80.839,96.15a106.178,106.178,0,0,0,11.515-7.971,90.567,90.567,0,0,0,8.89-7.876A49.707,49.707,0,0,0,108.9,70.3a28.5,28.5,0,0,0,2.385-4.944,17.361,17.361,0,0,0,.657-5.637q0-.32,0-.643a10.951,10.951,0,0,0-.294-3.157,8.276,8.276,0,0,0-1.282-2c.006.816.029,2.156.106,2.942a11.52,11.52,0,0,1-.344,3.729,25.04,25.04,0,0,1-2.474,6.3C107.286,67.568,106.875,68.257,106.433,68.934Z" transform="translate(-6.912 -9.557)"/><path class="cls-9" d="M140.8,52.707c-.09-.519-.2-1.035-.32-1.548a12.046,12.046,0,0,0-.7-2.2,9.8,9.8,0,0,0-1.312-1.892H137.4c.219,0,.448,1.115.5,1.288a15.393,15.393,0,0,1,.173,4.491,32.788,32.788,0,0,1-.982,7.272,34.7,34.7,0,0,1-2.957,7.421,53.529,53.529,0,0,1-5.088,7.7q-.78,1-1.594,1.977A147.15,147.15,0,0,1,110.268,94.7,144.375,144.375,0,0,1,90.432,109,152.121,152.121,0,0,1,68.1,119.981a160.48,160.48,0,0,1-28.7,8.656c-7.377,1.414-15.514,1.944-22.556-1.276a22.825,22.825,0,0,1-5.776-3.774,22.134,22.134,0,0,1-2.193-2.245c-.254.1-.512.211-.767.318.041-.017,2.3,3.1,2.461,3.285a27.332,27.332,0,0,0,5.018,4.784c3.073,2.19,6.805,2.683,10.461,3a67.561,67.561,0,0,0,15.093-.451,101.435,101.435,0,0,0,14.775-3.522c3.592-1.059,7.168-2.107,10.7-3.328.856-.3,2.185-1.09,3.078-1.09a147.348,147.348,0,0,0,22.577-11.184A155.86,155.86,0,0,0,113.04,98.041,173.194,173.194,0,0,0,127.928,83.56,54.909,54.909,0,0,0,138.2,68.169a34.536,34.536,0,0,0,2.7-9.429,22.445,22.445,0,0,0,.143-4.13A18.726,18.726,0,0,0,140.8,52.707Z" transform="translate(-6.912 -9.557)"/><path class="cls-9" d="M147.739,64.046c-.089-.519-.2-1.035-.319-1.547a12.059,12.059,0,0,0-.7-2.2,9.842,9.842,0,0,0-1.311-1.892h-1.064c.218,0,.448,1.115.5,1.289a15.356,15.356,0,0,1,.172,4.491,32.771,32.771,0,0,1-.982,7.271,34.578,34.578,0,0,1-2.957,7.421,53.551,53.551,0,0,1-5.087,7.7q-.782,1-1.594,1.977a147.16,147.16,0,0,1-17.184,17.48,144.615,144.615,0,0,1-19.837,14.3A152.117,152.117,0,0,1,75.039,131.32a160.516,160.516,0,0,1-28.7,8.657c-7.376,1.413-15.514,1.944-22.555-1.276A22.876,22.876,0,0,1,18,134.927a22.031,22.031,0,0,1-2.192-2.246c-.254.1-.512.212-.767.318.041-.017,2.3,3.1,2.46,3.286a27.463,27.463,0,0,0,5.018,4.784c3.074,2.189,6.805,2.682,10.462,3a67.561,67.561,0,0,0,15.093-.451,101.6,101.6,0,0,0,14.775-3.523c3.592-1.058,7.168-2.107,10.7-3.327.856-.3,2.185-1.091,3.078-1.091a147.246,147.246,0,0,0,22.576-11.184,155.863,155.863,0,0,0,20.768-15.111A173.194,173.194,0,0,0,134.864,94.9a54.9,54.9,0,0,0,10.27-15.391,34.574,34.574,0,0,0,2.7-9.428,22.539,22.539,0,0,0,.143-4.13A18.5,18.5,0,0,0,147.739,64.046Z" transform="translate(-6.912 -9.557)"/><path class="cls-9" d="M8.882,51.945a15.667,15.667,0,0,0-1.968,7.7,15.87,15.87,0,0,0,2.263,8.69q.474.743.992,1.457c.364.5.744.992,1.135,1.473.292.358.591.709.893,1.057a.08.08,0,0,1-.018-.027c.11.093.223.183.329.281a.374.374,0,0,1,.132.227A11.891,11.891,0,0,0,16.255,80a13.105,13.105,0,0,0,1.835,1.347,20.63,20.63,0,0,0,8.871,3.5,18.921,18.921,0,0,0,2.122.1c15.869,0,29.406-7.027,39.426-13.149,1.735-1.06,3.286-2.044,4.743-3.009,1.723-1.141,3.291-2.24,4.8-3.361,1.663-1.238,3.243-2.505,4.7-3.765,1.591-1.379,3.095-2.8,4.469-4.235a58.207,58.207,0,0,0,4.115-4.772,52.345,52.345,0,0,0,3.634-5.377,27.6,27.6,0,0,0,3.029-6.669,15.626,15.626,0,0,0,.386-1.883,14.446,14.446,0,0,0-.595-6.882,10.043,10.043,0,0,0-3.426-5.087c-.154-.106-.307-.214-.46-.322l-.177-.125c-.027-.019-.061-.039-.095-.06l-.136-.1a2.549,2.549,0,0,0-.285-.27l-.083-.071-.005-.108a10.392,10.392,0,0,0-.979-4.021,15.324,15.324,0,0,0-2.51-3.8l-.091-.075a2.114,2.114,0,0,0-.433-.366l-.121-.1a19.238,19.238,0,0,0-9.691-4.2,45.379,45.379,0,0,0-5.413-.325c-11.067,0-20.722,4.058-29.577,8.571C27.028,30.194,16.1,39.618,8.882,51.945ZM92.8,28.469c.074-.4.15-.813.238-1.261l.076-.39.319.237c.088.066.233.162.389.266.255.169.519.344.66.465a10.2,10.2,0,0,1,1.261,1.283,6.3,6.3,0,0,1,1.3,2.74,11.334,11.334,0,0,1,.4,3.668,11.746,11.746,0,0,1-.96,3.389,47.356,47.356,0,0,1-5.706,9.7C79.719,63.232,64.284,73.45,43.588,79.8a61.631,61.631,0,0,1-8.709,2.1,36.52,36.52,0,0,1-5.595.447,29.194,29.194,0,0,1-4.681-.364,29.805,29.805,0,0,1-3.9-.932,12.309,12.309,0,0,1-4.511-2.164,7.8,7.8,0,0,1-1.678-2.213,9.006,9.006,0,0,1-.683-1.636,12.205,12.205,0,0,1-.382-2.061l.3.081c.418.147.835.3,1.251.452,1.029.377,2.094.768,3.167,1.053a17.94,17.94,0,0,0,4.887.428c1.5-.013,3.069-.088,4.675-.226a65.336,65.336,0,0,0,8.9-1.392,71.082,71.082,0,0,0,8.292-2.439A81.948,81.948,0,0,0,52.6,67.692c2.319-1.118,4.7-2.393,7.072-3.79,2.093-1.232,4.266-2.608,6.459-4.092,1.69-1.142,3.419-2.365,5.287-3.736,6.856-5.033,11.509-9.407,15.083-14.181,2.1-2.808,4.261-5.689,5.271-9A35.363,35.363,0,0,0,92.8,28.469ZM13.713,70.99l.081-.242C18.553,56.4,27.819,48.082,40.268,40c11.56-7.5,29.4-17.139,50.755-14.176l.248.034-.034.247C89.8,36.673,77.713,49.777,59.688,60.306c-13.331,7.787-26.458,11.973-36.9,11.973a29.968,29.968,0,0,1-8.83-1.213ZM61.334,17.951c9.543-2.776,17.785-5.173,26.9.221,1.119.75,3.647,2.831,3.215,6.1l-.046.351-.316-.161a19.044,19.044,0,0,0-4.657-1.512,33.828,33.828,0,0,0-10.186-.516c-1.447.128-2.939.327-4.559.609A71.807,71.807,0,0,0,58.44,26.721a89.611,89.611,0,0,0-13.312,6.464c-.877.516-1.76,1.052-2.624,1.594q-.878.55-1.751,1.111T39,37.035q-.874.581-1.74,1.176t-1.724,1.212q-.86.615-1.7,1.25t-1.679,1.292q-.833.659-1.65,1.338T28.888,44.69q-.8.708-1.58,1.441t-1.538,1.5q-.76.765-1.493,1.557t-1.443,1.621q-.711.83-1.388,1.688t-1.331,1.759q-.654.9-1.268,1.833T17.645,58q-.588.983-1.13,1.993-.552,1.026-1.056,2.078-.514,1.072-.977,2.167-.473,1.119-.893,2.259c-.338.917-.677,1.829-.936,2.772-.059.217-.116.436-.169.655a4.965,4.965,0,0,1-.133.618c-.01.027-.916-.522-1-.583a3.827,3.827,0,0,1-.788-.8,5.51,5.51,0,0,1-.606-.982,8.677,8.677,0,0,1-.65-2.032l-.009-.04a14.161,14.161,0,0,1-.239-3.753,24.794,24.794,0,0,1,2.028-8.025A29.881,29.881,0,0,1,15.19,47.31l.086-.108c.111-.14.222-.281.342-.413A97.986,97.986,0,0,1,61.334,17.951Z" transform="translate(-6.912 -9.557)"/><circle class="cls-10" cx="614.6" cy="8.489" r="7.739"/><path class="cls-11" d="M618.83,22.383V13.711h2.727a3.127,3.127,0,0,1,1.988.55,1.928,1.928,0,0,1,.691,1.6,2.41,2.41,0,0,1-.478,1.471,3.024,3.024,0,0,1-1.343.99l3.008,4.061h-1.57l-2.567-3.668H620.1v3.668ZM620.1,17.8h.415a2.972,2.972,0,0,0,1.8-.463,1.588,1.588,0,0,0,.616-1.354q0-1.347-2.025-1.347H620.1Z" transform="translate(-6.912 -9.557)"/></g><g id="Capa_4" data-name="Capa 4"><path class="cls-9" d="M246.128,117.319h2.723l-9.362-21.276-9.617,21.276H231.4l3.48-7.843h8.072Zm-10.816-8.808,3.794-8.554,3.459,8.554Z" transform="translate(-6.912 -9.557)"/><path class="cls-9" d="M410.593,117.319h2.724l-9.362-21.276-9.617,21.276h1.532l3.479-7.843h8.072Zm-10.816-8.808,3.8-8.554,3.459,8.554Z" transform="translate(-6.912 -9.557)"/><path class="cls-9" d="M281.362,99.574c-.106,0-.365-.245-.452-.3-1.605-1.011-3.618-2.129-5.58-2.157a7.977,7.977,0,0,0-7.4,4.355,14.126,14.126,0,0,0-1.058,5.209,11.465,11.465,0,0,0,2.681,8.213s1.468,2.127,5.553,2.127,5.916-1.859,5.916-1.859l.978.029v1.32s-2.17,1.7-6.894,1.7a12.418,12.418,0,0,1-6.766-1.66,9.724,9.724,0,0,1-3.812-5.7,13.23,13.23,0,0,1-.464-3.813,13.749,13.749,0,0,1,.726-4.323c1.363-3.832,5.343-6.138,9.243-6.531a13.816,13.816,0,0,1,7.322,1.4c.056.027.645.262.645.329v1.659Z" transform="translate(-6.912 -9.557)"/><path class="cls-9" d="M320.1,102.72c-1.358-3.818-5.342-6.138-9.243-6.531-3.7-.374-7.779.653-10.4,3.41a9.889,9.889,0,0,0-2.467,5.639,14.484,14.484,0,0,0,.472,6.374c1.362,3.911,5.146,6.149,9.113,6.56,3.822.4,8.049-.656,10.678-3.6a10.525,10.525,0,0,0,2.537-6.125A13.714,13.714,0,0,0,320.1,102.72Zm-4.882,12.036a9.162,9.162,0,0,1-10.817.934,7.711,7.711,0,0,1-3.2-4.405,13.826,13.826,0,0,1-.605-4.6,14.126,14.126,0,0,1,1.058-5.209c1.773-4,7.02-4.9,10.817-3.678a7.918,7.918,0,0,1,3.55,2.208,9.236,9.236,0,0,1,1.966,5.562,14.27,14.27,0,0,1-.7,6A8.293,8.293,0,0,1,315.214,114.756Z" transform="translate(-6.912 -9.557)"/><path class="cls-9" d="M586.479,102.72c-1.358-3.818-5.342-6.138-9.242-6.531-3.7-.374-7.78.653-10.4,3.41a9.876,9.876,0,0,0-2.467,5.639,14.484,14.484,0,0,0,.471,6.374c1.362,3.911,5.146,6.149,9.114,6.56,3.821.4,8.048-.656,10.677-3.6a10.525,10.525,0,0,0,2.537-6.125A13.714,13.714,0,0,0,586.479,102.72ZM581.6,114.756a9.162,9.162,0,0,1-10.817.934,7.711,7.711,0,0,1-3.2-4.405,13.826,13.826,0,0,1-.6-4.6,14.126,14.126,0,0,1,1.058-5.209c1.773-4,7.02-4.9,10.817-3.678A7.912,7.912,0,0,1,582.4,100a9.236,9.236,0,0,1,1.966,5.562,14.254,14.254,0,0,1-.7,6A8.293,8.293,0,0,1,581.6,114.756Z" transform="translate(-6.912 -9.557)"/><path class="cls-9" d="M337.064,96.551v20.956h2.893v-9.276a34.056,34.056,0,0,0,5.7-.468,6.853,6.853,0,0,0,4.671-3.281,4.5,4.5,0,0,0,.6-2.237,6.851,6.851,0,0,0-.363-2.463,4.773,4.773,0,0,0-1.843-2.019,8.173,8.173,0,0,0-4.085-1.234Zm11.4,6.561a4.631,4.631,0,0,1-.759,1.714,4.121,4.121,0,0,1-1.267,1.131,10.034,10.034,0,0,1-4.34,1.054h-2.043V97.6s2.649-.1,4.436,0a4.79,4.79,0,0,1,2.261.619,3.464,3.464,0,0,1,1.521,1.736A5.8,5.8,0,0,1,348.462,103.112Z" transform="translate(-6.912 -9.557)"/><polygon class="cls-9" points="360.961 87.251 363.641 87.251 363.641 106.826 372.067 106.826 372.067 108.23 360.961 108.23 360.961 87.251"/><polygon class="cls-9" points="443.514 108.017 446.024 108.017 443.79 86.953 443.28 86.89 434.024 103.102 433.514 103.166 424.833 86.783 424.258 86.783 421.578 107.762 421.578 108.017 422.982 108.017 425.188 91.564 433.195 108.017 433.801 108.017 439.514 96.273 442.301 91.038 443.514 108.017"/><polygon class="cls-9" points="463.514 87.145 463.514 108.017 474.173 108.017 474.173 106.554 472.562 106.554 472.562 107.06 465.758 107.06 465.758 97.677 473.195 97.677 473.195 96.23 465.726 96.23 465.726 87.943 472.29 87.943 472.29 88.4 474.173 88.4 474.173 87.049 463.514 87.049 463.514 87.145"/><polygon class="cls-9" points="492.152 108.017 493.599 108.017 493.599 91.209 493.982 91.209 508.833 108.017 509.95 108.017 509.95 87.049 508.407 87.049 508.407 103.592 493.429 87.049 492.152 87.049 492.152 108.017"/><polygon class="cls-9" points="533.301 108.017 535.812 108.017 535.812 88.613 540.578 88.613 540.875 88.783 542.567 88.847 542.567 87.049 526.514 87.049 526.514 88.762 527.79 88.783 528.046 88.613 533.397 88.613 533.301 108.017"/><path class="cls-9" d="M613.468,99.309a.332.332,0,0,0-.076-.15,13.617,13.617,0,0,0-1.19-1.112,4.044,4.044,0,0,0-5.318.486,4.1,4.1,0,0,0-.423,4.793,4.647,4.647,0,0,0,2.6,1.716c2.127.794,5.58,2.1,6.256,4.618a6.835,6.835,0,0,1-.644,5.472c-1.307,2.076-4.208,3-7.239,2.706-3.271-.319-4.367-1.685-4.367-1.685l-.041-1.586,1.137-.024a4.788,4.788,0,0,0,3.622,2.425c2.679.393,5.449-1.668,5.8-3.882.419-2.655-1.884-4.386-4.113-5.19l-.063-.022c-2.126-.751-4.6-1.4-5.475-3.7a5.969,5.969,0,0,1,1.546-6.617,7.59,7.59,0,0,1,7.376-.932,6.513,6.513,0,0,1,.787.363c.278.153,1.18.623,1.18.623v1.665Z" transform="translate(-6.912 -9.557)"/></g></svg>