<svg xmlns="http://www.w3.org/2000/svg" viewBox="0 0 390.326 79.552"><defs><style>.cls-1{font-size:15.537px;font-family:YuGothicUI-Semilight, Yu Gothic UI;font-weight:300;letter-spacing:0.853em;}.cls-1,.cls-3{fill:#009ce5;}.cls-2{fill:#93a5af;}</style></defs><title>compomac</title><g id="Capa_2" data-name="Capa 2"><text class="cls-1" transform="matrix(0.956, 0, -0.202, 0.979, 32.506, 74.952)">automation synergy</text></g><g id="Capa_4" data-name="Capa 4"><path class="cls-2" d="M204.424,34.676c-3.615-1.347-7.377-1.042-11.106-1.084-3-.034-5.822.483-7.946,2.921-.217.249-.739.233-1.2.363.176-3.152.176-3.152-2.887-3.152-1.406,0-2.813.053-4.215-.016-1.241-.061-1.623.456-1.607,1.658.053,3.98.018,7.962.02,11.944,0,5.386-.013,10.772.052,16.158.006.538.5,1.52.793,1.534,2.72.119,5.448.07,8.32.07v-10.3c.179.076.381-.223,1.1,1.071a6.786,6.786,0,0,0,4.3,3.012c5.01.54,10.048.868,14.893-.9,3-1.1,4.433-3.523,4.493-6.673.064-3.264.031-6.53-.03-9.794C209.342,37.991,207.738,35.91,204.424,34.676Zm-3.84,14.849c-.235,1.938-1.408,2.74-3.409,2.8-1.4.042-2.8.008-4.2.008v-.026c-1.46,0-2.923.064-4.378-.015a3.8,3.8,0,0,1-3.886-4.054c-.02-1.227-.017-2.454,0-3.68a3.77,3.77,0,0,1,3.851-4.079c2.858-.086,5.724-.072,8.583.009,2.143.061,3.246.888,3.482,2.947A26.181,26.181,0,0,1,200.584,49.525Z" transform="translate(-5.446 -4.16)"/><path class="cls-2" d="M240.26,33.659c-5.963-.16-11.946-.254-17.9.052-3.985.2-7.459,1.807-8.045,6.79a57.131,57.131,0,0,0-.026,11.861,6.828,6.828,0,0,0,6.411,6.4c3.519.433,15.919.411,18.552.409.293,0,.585-.014.878-.023,4.675-.138,7.778-2.718,8.283-7.364a51.662,51.662,0,0,0,.2-9.789C248.175,36.681,245.244,33.793,240.26,33.659Zm-.682,15.49c-.357,1.613-1.129,2.976-4.039,3.126-1.285.066-6.558.095-7.9.018-2.928-.17-4.479-1.808-4.56-4.711-.165-5.9,1.04-7.149,6.918-7.146,1.873,0,3.749-.033,5.618.058,2,.1,4.189.922,4.173,4.929A35.191,35.191,0,0,1,239.578,49.149Z" transform="translate(-5.446 -4.16)"/><path class="cls-2" d="M335.663,33.64c-4.913-.068-9.829-.041-14.742.011a19.126,19.126,0,0,0-3.813.447c-3.075.666-4.554,2.478-4.814,5.626-.078.937.151,1.439,1.2,1.421,2.222-.038,4.447.017,6.669-.041.374-.01.739-.4,1.106-.611.743-.435,1.465-1.2,2.23-1.248,2.677-.156,5.372-.141,8.055-.046,3.284.117,4.531,2.211,3.255,5.364a10.613,10.613,0,0,0-2.9-1.016,124.084,124.084,0,0,0-13.284-.252c-5.892.37-7.291,2.185-7.3,8.15,0,.176,0,.351,0,.527-.03,4.726,2.263,7.1,7.036,7.175,3.568.055,7.138-.018,10.706.03a7.727,7.727,0,0,0,5.144-1.87,11.793,11.793,0,0,1,1.5-.872c.12.928.2,1.542.29,2.24h8.467c0-5.5.01-10.823,0-16.144C344.457,36.971,341.276,33.717,335.663,33.64ZM333.48,53.254c-1.829.322-3.695.428-5.081.577-2.172-.1-3.868-.106-5.548-.27-1.911-.187-2.643-.986-2.637-2.593a2.41,2.41,0,0,1,2.541-2.711c3.484-.072,6.974-.081,10.456.032a2.158,2.158,0,0,1,2.286,2.165A2.345,2.345,0,0,1,333.48,53.254Z" transform="translate(-5.446 -4.16)"/><path class="cls-2" d="M52.7,40.467c2.34-.053,4.682-.043,7.022-.021,2.625.026,3.536.7,4.413,3.241h8.45c.817-3.188-.617-7.96-4.578-9.073a17.75,17.75,0,0,0-4.246-.949c-5.03-.116-10.077-.269-15.094.016s-7.878,2.018-8.81,6.9a37.528,37.528,0,0,0-.4,8.54,14.314,14.314,0,0,0,1.3,5.19c1.668,3.667,5.1,4.644,8.71,4.8,4.5.193,9.014.146,13.516.018a18.794,18.794,0,0,0,4.927-.983c3.42-1.06,5.539-4.842,4.673-9.3H64.07a3.4,3.4,0,0,1-3.257,3.126c-1.68.128-3.364.286-5.047.294-6.464.034-7.62-1.176-7.357-7.55C48.522,42,49.976,40.528,52.7,40.467Z" transform="translate(-5.446 -4.16)"/><path class="cls-2" d="M164,34.273a21.907,21.907,0,0,0-11.319-.407,8.518,8.518,0,0,0-4.955,3.942c-.2.39-.422.772-.816,1.481-2.219-4.378-5.7-5.875-10.182-5.721-4.1.141-8.336-.428-11.225,3.807a12.643,12.643,0,0,0-.078-2.45,2.176,2.176,0,0,0-1.308-1.132,58.133,58.133,0,0,0-6.494,0c-.429.023-1.176.707-1.18,1.091q-.046,5.358-.046,10.716h0V58.786h9.215V45.6c.043-2.595,1.239-4.507,3.148-4.66a36.554,36.554,0,0,1,7.636.071c.918.12,1.85,1.416,2.432,2.382a5.382,5.382,0,0,1,.3,2.57c.025,4.2.011,8.4.011,12.693h9.006V56.82c0-3.982-.013-7.965,0-11.947a3.681,3.681,0,0,1,3.2-3.957,30,30,0,0,1,5.9-.1c3.392.329,4.138,1.291,4.152,4.754v9.682c0,.7,0,1.393-.007,2.089,0,.12,0,.234.007.342V58.77h.885a2.079,2.079,0,0,0,.315.015c.436-.007.872-.011,1.307-.015h6.4c0-5.837.189-11.44-.066-17.023C170.055,37.9,167.773,35.373,164,34.273Z" transform="translate(-5.446 -4.16)"/><path class="cls-2" d="M301.464,34.273a21.908,21.908,0,0,0-11.319-.407,8.516,8.516,0,0,0-4.955,3.942c-.2.39-.422.772-.817,1.481-2.219-4.378-5.7-5.875-10.181-5.721-4.1.141-8.337-.428-11.225,3.807a12.532,12.532,0,0,0-.079-2.45,2.17,2.17,0,0,0-1.308-1.132,58.133,58.133,0,0,0-6.494,0c-.428.023-1.176.707-1.179,1.091q-.048,5.358-.046,10.716h0V58.786h9.215V45.6c.042-2.595,1.238-4.507,3.147-4.66a36.563,36.563,0,0,1,7.637.071c.918.12,1.849,1.416,2.432,2.382a5.37,5.37,0,0,1,.3,2.57c.025,4.2.011,8.4.011,12.693h9.006c0-.69,0-1.262,0-1.833,0-3.982-.012-7.965,0-11.947a3.682,3.682,0,0,1,3.2-3.957,30,30,0,0,1,5.9-.1c3.391.329,4.137,1.291,4.152,4.754v9.682c0,.7,0,1.393-.007,2.089,0,.12,0,.234.007.342V58.77h.885a2.066,2.066,0,0,0,.315.015c.435-.007.871-.011,1.307-.015h6.4c0-5.837.189-11.44-.065-17.023C307.522,37.9,305.24,35.373,301.464,34.273Z" transform="translate(-5.446 -4.16)"/><path class="cls-2" d="M373.389,48.846a3.4,3.4,0,0,1-3.257,3.126c-1.681.128-3.364.286-5.047.294-6.464.034-7.621-1.176-7.357-7.55.112-2.714,1.566-4.188,4.3-4.249,2.34-.053,4.682-.043,7.022-.021,2.624.026,3.536.7,4.413,3.241h8.45c.817-3.188-.617-7.96-4.579-9.073a17.742,17.742,0,0,0-4.245-.949c-5.03-.116-10.078-.269-15.094.016s-7.878,2.018-8.81,6.9a37.528,37.528,0,0,0-.4,8.54,14.333,14.333,0,0,0,1.295,5.19c1.669,3.667,5.1,4.644,8.711,4.8,4.5.193,9.013.146,13.516.018a18.794,18.794,0,0,0,4.927-.983c3.419-1.06,5.539-4.842,4.673-9.3Z" transform="translate(-5.446 -4.16)"/><path class="cls-2" d="M103.172,33.659c-5.963-.16-11.946-.254-17.9.052-3.985.2-7.458,1.807-8.045,6.79A57.131,57.131,0,0,0,77.2,52.362a6.829,6.829,0,0,0,6.412,6.4c3.519.433,15.918.411,18.551.409.293,0,.585-.014.878-.023,4.675-.138,7.778-2.718,8.283-7.364a51.579,51.579,0,0,0,.2-9.789C111.087,36.681,108.156,33.793,103.172,33.659Zm-.682,15.49c-.357,1.613-1.129,2.976-4.039,3.126-1.284.066-6.557.095-7.9.018-2.928-.17-4.479-1.808-4.56-4.711-.165-5.9,1.04-7.149,6.918-7.146,1.873,0,3.749-.033,5.618.058,2,.1,4.189.922,4.174,4.929A35.445,35.445,0,0,1,102.49,49.149Z" transform="translate(-5.446 -4.16)"/></g><g id="Capa_3" data-name="Capa 3"><path class="cls-3" d="M6.794,71.239H19.54A8.965,8.965,0,0,1,22.788,68.3a39.079,39.079,0,0,1,4.467-1.711c.211-.072.054-1.765.049-1.972-.018-.819.2-2.016-.512-2.6a3.278,3.278,0,0,0-.947-.328A17.516,17.516,0,0,1,22.3,60.332c-.919-.552-2.512-1.716-2.512-2.942l.061-1.777a1.567,1.567,0,0,1,.981-1.287,10.147,10.147,0,0,1,4.9-.858c1,0,2,0,2.994,0a10.028,10.028,0,0,0,.76-1.674,18.092,18.092,0,0,0,.81-2.029c.239-.76-1.059-1.446-1.52-1.849A17.943,17.943,0,0,1,25.79,44.8l-1.164-1.626a1.878,1.878,0,0,1,.367-1.593c.613-.858,1.042-1.471,1.042-1.471s.184-1.226,4.351-.306c.565.193,1.125.4,1.683.614.781.3,2.067,1.173,2.921.9.651-.209,1.465-1.3,1.889-1.82a1.975,1.975,0,0,0,.489-2.332A25.549,25.549,0,0,1,34.655,32.1s-.449-2.206.449-2.9,1.389-1.143,1.389-1.143.776-.736,2.37,0a14.433,14.433,0,0,1,2.856,1.871q.73.581,1.42,1.211c.422.386,1.115,1.441,1.783,1.154a12.5,12.5,0,0,0,1.831-1.153,8.408,8.408,0,0,0,1.758-1.465c.151-.174-.1-.7-.156-.909-.121-.441-.236-.885-.341-1.33a13.908,13.908,0,0,1-.511-2.995,7.689,7.689,0,0,1,.143-2.308A3.2,3.2,0,0,1,50.832,20.3s1.512-.327,2.819,1.552c.714,1.026,1.391,2.078,2.06,3.134.428.675.8,1.625,1.578,1.95.608.252,1.8-.258,2.433-.4a7.651,7.651,0,0,0,1.575-.362,10.4,10.4,0,0,0,.448-2.612,18.036,18.036,0,0,1,.485-2.569,10.615,10.615,0,0,1,1.716-2.982,3.209,3.209,0,0,1,1.593-.286c1.144,0,1.757,0,1.961.245a9.855,9.855,0,0,1,1.593,2.615,29.49,29.49,0,0,1,.94,4.739c.122,1.225,2.655,1.184,2.655,1.184V5.631H6.794Z" transform="translate(-5.446 -4.16)"/><path d="M5.446,69.768H18.192a8.957,8.957,0,0,1,3.247-2.941,39.354,39.354,0,0,1,4.468-1.711c.211-.072.054-1.764.049-1.972-.018-.819.2-2.016-.512-2.6a3.308,3.308,0,0,0-.947-.328,17.457,17.457,0,0,1-3.548-1.358c-.919-.552-2.512-1.716-2.512-2.941l.061-1.777a1.565,1.565,0,0,1,.98-1.287,10.139,10.139,0,0,1,4.9-.858c1,0,2,0,2.994,0a10.041,10.041,0,0,0,.76-1.675,18.016,18.016,0,0,0,.81-2.029c.238-.759-1.059-1.445-1.52-1.849a17.943,17.943,0,0,1-2.983-3.12L23.278,41.7a1.878,1.878,0,0,1,.367-1.593c.613-.858,1.042-1.471,1.042-1.471s.184-1.225,4.351-.306c.565.193,1.125.4,1.683.614.781.3,2.067,1.173,2.921.9.651-.209,1.465-1.3,1.889-1.82a1.977,1.977,0,0,0,.489-2.333,25.5,25.5,0,0,1-2.713-5.061s-.45-2.206.449-2.9,1.389-1.144,1.389-1.144.776-.735,2.37,0a14.478,14.478,0,0,1,2.856,1.871q.73.582,1.42,1.211c.422.386,1.115,1.441,1.783,1.154a12.582,12.582,0,0,0,1.831-1.152,8.408,8.408,0,0,0,1.758-1.465c.151-.174-.1-.706-.156-.91-.121-.441-.236-.885-.341-1.33a13.888,13.888,0,0,1-.511-2.994,7.7,7.7,0,0,1,.143-2.309,3.2,3.2,0,0,1,3.186-1.838S51,18.5,52.3,20.379c.714,1.026,1.391,2.078,2.06,3.133.428.676.8,1.626,1.578,1.95.608.252,1.8-.257,2.433-.4a7.6,7.6,0,0,0,1.575-.362,10.4,10.4,0,0,0,.448-2.612,18.023,18.023,0,0,1,.485-2.568A10.627,10.627,0,0,1,62.6,16.538a3.209,3.209,0,0,1,1.593-.286c1.144,0,1.756,0,1.961.246a9.845,9.845,0,0,1,1.593,2.614,29.49,29.49,0,0,1,.94,4.739c.122,1.225,2.655,1.185,2.655,1.185V4.16H5.446Z" transform="translate(-5.446 -4.16)"/></g></svg>