<svg id="Capa_2" data-name="Capa 2" xmlns="http://www.w3.org/2000/svg" viewBox="0 0 382 132"><defs><style>.cls-1{fill:#00529b;}.cls-2{fill:#fff;opacity:0.99;}</style></defs><title>desch</title><rect class="cls-1" width="382" height="132" rx="11.649"/><path class="cls-2" d="M376.5,87.054c-.549.281-1.1.552-1.647.846-2.088,1.128-4.141,2.329-6.264,3.385a140.76,140.76,0,0,1-25.319,9.243,321.525,321.525,0,0,1-39.192,7.936c-7.238,1.065-14.512,1.907-21.785,2.7-7.544.826-15.093,1.771-22.665,2.134q-18.256.874-36.546,1.009c-9.973.087-19.955-.168-29.925-.519-7.86-.277-15.727-.719-23.555-1.472-9.957-.957-19.89-2.2-29.809-3.505a328.455,328.455,0,0,1-40.375-7.829C88.238,98.054,77.257,94.551,67.079,88.92c-5.236-2.9-10.151-6.283-13.593-11.312-4.82-7.041-4.73-13.3.858-19.352A42.957,42.957,0,0,1,61.868,51.9c8.214-5.541,17.368-9.116,26.7-12.2a311.019,311.019,0,0,1,52.034-11.845,405.057,405.057,0,0,1,40.328-4.068c12.923-.616,25.873-.68,38.812-.9,4.258-.071,8.525.049,12.781.23q12.441.533,24.874,1.244c3.872.216,7.734.585,11.6.873,2.123.158,4.247.292,6.371.436l.1-.65a12.487,12.487,0,0,0-1.756-.463c-6.627-.786-13.248-1.656-19.891-2.284-7.289-.689-14.592-1.294-21.9-1.672-10.065-.521-20.146-1.165-30.215-1.08-12.714.106-25.429.758-38.13,1.439-6.982.374-13.964,1.076-20.894,2.016-10.553,1.431-21.1,2.977-31.579,4.871-17.58,3.179-35.028,7-52,12.706C50.205,43.54,41.472,46.97,33.4,51.884c-5.066,3.085-9.766,6.6-13.078,11.674a15.222,15.222,0,0,0,.984,18.152c3.4,4.092,7.734,7.049,12.234,9.761,9.354,5.639,19.485,9.448,29.871,12.6,20.672,6.279,41.894,9.8,63.282,12.337q15.715,1.865,31.525,2.9c11.831.768,23.688,1.3,35.541,1.5,10.509.183,21.033-.062,31.541-.4q17.133-.556,34.245-1.671c8.43-.548,16.881-1.18,25.235-2.388,10.105-1.461,20.164-3.345,30.157-5.454,12.693-2.679,25.3-5.777,37.37-10.7,7.952-3.241,15.791-6.708,23.039-11.384a13.3,13.3,0,0,0,1.5-1.317Z" transform="translate(-5.17 -4.553)"/><path class="cls-2" d="M202.917,77.557c-1.835.03-3.672.043-5.5-.026-1.017-.038-1.347.4-1.307,1.339.086,2,.016,4.025.246,6.011.591,5.088,2.83,7.411,7.464,7.467,8.687.105,17.378.089,26.066.009,4.2-.038,6.9-2.054,7.233-5.945.436-5.061.345-10.172.34-15.262a14.089,14.089,0,0,0-.849-3.778,5.286,5.286,0,0,0-4.292-3.746,15.909,15.909,0,0,0-3.356-.37c-7.124-.033-14.248-.017-21.372-.017h-1.938v-9.8h23.659c0,1.365.055,2.609-.017,3.846-.064,1.1.282,1.6,1.445,1.532,1.828-.113,3.667-.082,5.488-.251a1.472,1.472,0,0,0,.925-1.088,49.676,49.676,0,0,0-.219-5.188c-.462-5.044-2.626-7.4-7.563-7.515q-11.975-.275-23.959,0c-4.642.1-6.768,2.033-7.386,6.582A47.729,47.729,0,0,0,198.2,66.9c.665,3.445,2.43,5.117,5.8,5.6a21.8,21.8,0,0,0,3.064.214c6.908.017,13.816.006,20.724,0h1.765V83.025h-25.4c0-1.525-.026-2.875.008-4.224C204.194,77.894,203.811,77.542,202.917,77.557Z" transform="translate(-5.17 -4.553)"/><path class="cls-2" d="M99.4,92.414c1.722-.09,3.452,0,5.179-.024,6.952-.095,13.912-.032,20.854-.356,7.224-.337,12.126-4.28,15-10.85a33.593,33.593,0,0,0,2.2-18.148,21.708,21.708,0,0,0-5.414-12.445c-4.041-4.318-9.236-5.819-14.916-5.881-7.5-.082-15,.024-22.5-.061-1.624-.018-1.973.557-1.96,2.057.063,7.269.028,14.538.029,21.808,0,7.431.021,14.864-.019,22.3C97.839,91.984,98.153,92.479,99.4,92.414Zm9.058-38.827c4.419.054,8.84,0,13.26.012,6.537.01,10.676,3.289,11.607,9.775a32.027,32.027,0,0,1-.061,9.671c-1.007,6.045-4.236,9.033-10.487,9.654-4.913.488-9.892.3-14.842.416-1.231.029-1.013-.883-1.016-1.592-.017-4.39-.008-8.78-.008-13.17s.038-8.781-.019-13.17C106.871,53.983,107.238,53.572,108.453,53.587Z" transform="translate(-5.17 -4.553)"/><path class="cls-2" d="M255.149,44.732c-5.259.079-7.876,2.505-7.969,7.793q-.281,16.015,0,32.04c.085,5.2,2.72,7.743,7.58,7.792q12.543.124,25.09,0c4.411-.045,6.816-2.1,7.226-6.493.382-4.084.241-8.218.317-12.33,0-.136-.139-.275-.269-.517-1.582,0-3.195.011-4.809,0-3.757-.029-3.755-.033-3.75,3.742,0,2.09,0,4.179,0,6.243H256.08V53.716h22.486c0,2.556-.049,4.987.045,7.413.018.446.6,1.232.953,1.247,2.567.107,5.141.058,7.634.058,0-3.65.323-7.245-.077-10.757-.571-5.021-2.809-6.884-7.853-6.949C271.229,44.625,263.187,44.61,255.149,44.732Z" transform="translate(-5.17 -4.553)"/><path class="cls-2" d="M297.626,90.452V92.39c2.555,0,4.917-.077,7.271.03,1.333.06,1.641-.45,1.63-1.683-.05-5.535-.025-11.07-.018-16.6,0-.625.066-1.25.1-1.872h26.121V92.4c2.688,0,5.059-.076,7.422.029,1.356.06,1.733-.385,1.725-1.732-.054-8.791-.026-17.582-.026-26.372,0-6.024-.03-12.047.017-18.07.01-1.191-.326-1.645-1.556-1.588-1.939.09-3.889.1-5.827-.005-1.358-.071-1.768.42-1.751,1.759.06,4.937-.027,9.876.049,14.813.023,1.453-.468,1.852-1.864,1.842q-11.334-.086-22.668,0c-1.321.009-1.8-.345-1.776-1.727.069-4.991-.008-9.984.048-14.976.013-1.249-.314-1.778-1.639-1.7a39.16,39.16,0,0,1-5.34-.008c-1.612-.131-1.959.472-1.953,2.007C297.648,61.258,297.626,75.855,297.626,90.452Z" transform="translate(-5.17 -4.553)"/><path class="cls-2" d="M187.41,83.084c-8.527.056-17.054.027-25.581.026h-1.993c0-3.392.062-6.534-.03-9.671-.038-1.318.415-1.661,1.659-1.645,4.587.059,9.175-.01,13.762.046,1.17.014,1.687-.319,1.635-1.55-.061-1.462.007-2.93.006-4.394,0-2.606-.006-2.608-2.52-2.608-4.744,0-9.487,0-14.509,0,0-2.995.067-5.753-.029-8.505-.046-1.343.485-1.646,1.693-1.634,4.64.048,9.282.019,13.923.019,3.724,0,7.448.01,11.172,0,2.334-.006,2.339-.017,2.35-2.282.007-1.465-.087-2.936.016-4.393.1-1.423-.385-1.849-1.822-1.842q-17.161.088-34.323,0c-1.485-.007-1.914.414-1.909,1.911.052,14.6.031,29.191.036,43.787,0,.629.053,1.258.088,2.03h4.028c10.848,0,21.695-.022,32.543.029,1.346.006,1.8-.382,1.727-1.737a45.836,45.836,0,0,1,.009-5.694C189.451,83.426,188.851,83.075,187.41,83.084Z" transform="translate(-5.17 -4.553)"/></svg>