<svg id="Capa_1" data-name="Capa 1" xmlns="http://www.w3.org/2000/svg" viewBox="0 0 247.182 71.847"><defs><style>.cls-1{fill:#007a77;}</style></defs><title>dodge</title><path class="cls-1" d="M108.892,31.929c3.035-2.172,5.971-4.277,8.91-6.377q11.289-8.065,22.571-16.139a1.274,1.274,0,0,1,1.772-.1q16.762,11.839,33.568,23.618c.172.121.332.259.613.48-4.015,3.119-6.735,6.965-6.657,12.208.077,5.182,2.647,9.123,6.714,12.346-2.971,1.957-5.846,3.851-8.722,5.743q-12.708,8.364-25.414,16.733c-.556.366-.967.619-1.681.138Q124.829,69.958,109.048,59.4a4.923,4.923,0,0,1-.386-.332c4.275-3.524,7.627-7.667,7.876-13.44C116.8,39.678,113.312,35.619,108.892,31.929Zm11.151,29.586a5.993,5.993,0,0,0,.608.07c8.74,0,17.482.086,26.221-.036a20.535,20.535,0,0,0,13.008-4.644c6.794-5.556,7.183-14.489.863-20.578a20.457,20.457,0,0,0-14.407-5.665c-7.332-.1-14.666-.025-22-.025h-4.261v4.249h5.106V57.3h-5.139Z" transform="translate(-13.435 -9)"/><path d="M89.717,28.74c7.129.12,13.2,1.611,18.426,5.688a18.337,18.337,0,0,1,2.828,2.756,12.419,12.419,0,0,1-.03,16.6c-3.575,4.275-8.346,6.53-13.686,7.627-7.449,1.529-14.689.879-21.47-2.737a22.03,22.03,0,0,1-5.117-3.766c-5.848-5.823-5.6-13.8.473-19.408A26.01,26.01,0,0,1,85.5,29.108C87.1,28.876,88.722,28.823,89.717,28.74ZM98.144,46.9c0-4.927-1.032-8.2-2.906-10.49-3.068-3.751-7.512-3.745-10.574.015-3.852,4.729-3.889,13.386-.077,18.163,3.095,3.879,7.656,3.884,10.728-.021A13.378,13.378,0,0,0,98.144,46.9Z" transform="translate(-13.435 -9)"/><path d="M13.435,61.551V57.264H18.5v-22.3H13.438V30.606h4.318c7.333,0,14.667-.077,22,.025a20.42,20.42,0,0,1,14.952,6.188,13.226,13.226,0,0,1-.55,19.387,20.348,20.348,0,0,1-13.881,5.375c-8.739.13-17.48.037-26.221.035C13.89,61.616,13.725,61.583,13.435,61.551ZM31.47,34.966c0,6.909-.012,13.764.041,20.619,0,.294.573.8.919.84a13.426,13.426,0,0,0,9.881-2.595A10,10,0,0,0,46.18,43.205C44.74,38.019,39.256,34.119,31.47,34.966Z" transform="translate(-13.435 -9)"/><path d="M212.3,35.6l-2.008,2.275c-1-.56-2.031-1.054-2.973-1.675-3.911-2.578-8.3-2.957-12.777-2.711-1.933.106-3.366,1.349-4.553,2.815-3.683,4.546-3.992,12.637-.678,17.441a9.319,9.319,0,0,0,13.636,1.368,1.924,1.924,0,0,0,.624-1.166c.058-2.426.029-4.853.029-7.487h-4.67V41.68h16.11c.019.373.058.785.058,1.2,0,3.666-.026,7.333.025,11a2.3,2.3,0,0,1-.915,1.957,26.915,26.915,0,0,1-15.557,6.147c-6.985.61-13.627-.559-19.537-4.524a20.309,20.309,0,0,1-4.483-4.132c-4.2-5.256-3.78-11.893.933-16.7,3.929-4.008,8.919-5.846,14.324-6.74a36.114,36.114,0,0,1,11.2.056c1.305.19,2.721-.427,4.093-.629.4-.059,1-.124,1.221.1C208.378,31.409,210.288,33.471,212.3,35.6Z" transform="translate(-13.435 -9)"/><path d="M220.4,61.444v-4.2h5.057V34.778h-4.873V30.157c.44-.022.852-.06,1.265-.06,9.381,0,18.762.012,28.144-.025a1.681,1.681,0,0,1,1.837,1.128c.98,2.215,2.077,4.378,3.194,6.7-.637.4-1.217.811-1.842,1.137A1.507,1.507,0,0,1,251,38.528a9.289,9.289,0,0,0-6.016-3.588c-2.418-.392-4.887-.47-7.5-.7v8.291c3.308.933,5.26.033,6.16-2.885h3.282V50.055l-3.247.173c-1.048-2.632-2.835-3.534-6.332-3.042,0,1.181,0,2.4,0,3.616a29.433,29.433,0,0,1,.009,3.576c-.158,1.342.481,1.8,1.621,2.085a12.874,12.874,0,0,0,6.448-.106,18.453,18.453,0,0,0,9.858-6.281c.835-1.021,1.667-2.043,2.614-3.2l2.714,2.349c-1.929,3.968-3.815,7.878-5.749,11.765a1.3,1.3,0,0,1-.959.608q-16.629.027-33.258-.015C220.615,61.58,220.579,61.542,220.4,61.444Z" transform="translate(-13.435 -9)"/><path class="cls-1" d="M189.394,42.017l5.328,3.933-5.238,3.589C188.7,47.013,189.051,44.631,189.394,42.017Z" transform="translate(-13.435 -9)"/><path class="cls-1" d="M138.045,56.216c0-1.116,0-2.259,0-3.4.011-5.582.052-11.164.01-16.745-.008-1.1.329-1.353,1.384-1.327a16.327,16.327,0,0,1,8.453,2.06c7,4.308,7.029,13.463.033,17.782C145.012,56.383,140.822,57.092,138.045,56.216Z" transform="translate(-13.435 -9)"/><path class="cls-1" d="M89.336,45.951,95.391,41.9c1.012,2.719.713,5.287.021,8.1Z" transform="translate(-13.435 -9)"/></svg>