<?xml version="1.0" encoding="utf-8"?>
<!-- Generator: Adobe Illustrator 23.0.3, SVG Export Plug-In . SVG Version: 6.00 Build 0)  -->
<svg version="1.1" id="Capa_1" xmlns="http://www.w3.org/2000/svg" xmlns:xlink="http://www.w3.org/1999/xlink" x="0px" y="0px"
	 viewBox="0 0 1596.6 290.2" style="enable-background:new 0 0 1596.6 290.2;" xml:space="preserve">
<style type="text/css">
	.st0{fill:#118136;}
</style>
<title>fequsaingssac</title>
<g id="Capa_15">
	<path class="st0" d="M188.9,139.2c-9.6,0-17,8.7-22.1,25.8c-2.6-0.6-5.7-1.4-9.3-2.3c10.4-29.9,20.2-53.1,29.1-69.1
		c8.8-15.8,18.5-27.8,28.8-35.8c22.2,7.3,41.3,10.9,56.7,10.9c12.2,0,22.8-2.4,31.5-7.2c9.1-5,13.7-11.3,13.7-18.7
		c0-6.4-3.4-11.6-10.1-15.4c-6.4-3.6-14.8-5.4-25-5.4c-16.9,0-35.1,5.8-54.3,17.2c-24.1-9-39.5-14.5-46-16.3c-7.1-2-14.4-3-21.8-2.9
		c-11.6,0-22,1.7-30.9,4.9C121.7,8.3,109.8,0,93.6,0C75.2,0,57.1,12.6,40.1,37.4C30.1,51.9,28.9,56,28.9,58l0,0.4
		c0.5,2.8,2.4,3.1,3,3.1c1.3,0,1.8-0.8,4.1-4.4l0.1-0.1C53.6,23.9,73.3,7.2,94.5,7.2c12.2,0,21.2,6.5,27.4,19.8
		c-20.4,7.4-39.1,24.1-55.7,49.7c-17.1,26.4-25.8,52.9-25.8,78.7c0,11.6,2.3,21.1,6.9,28.4c4.8,7.6,11.1,11.4,18.9,11.4
		c17.4,0,33.9-13.5,48.9-40.2c14.7-25.7,22.4-54.8,22.3-84.4c0.1-12.2-1.5-24.4-4.9-36.2c1.5-0.1,3.1-0.2,4.7-0.2
		c12.4,0,30.3,4.7,53.1,14c5.9,2.4,11.7,4.7,17.2,6.7C184,73,161.1,107.9,139.5,158.6h-2.4c-6,0-11.6,2.6-16.9,7.8
		s-7.9,10.8-7.9,16.7c0,2.7,1.6,3.6,3,3.6c2.3,0,3-2.9,3.4-4.3c3.4-10.5,9.1-15.8,17.6-16c-2.1,5-3.7,8.9-4.9,11.6
		c-15.9,38.3-30.7,65.6-43.9,81.1c-13,15.2-27.8,22.9-43.9,22.9c-10.2,0-18.7-3.7-25.9-11.4c-7.1-7.5-11-17.4-10.8-27.7v-0.2
		c1.6,4.9,5.2,5.8,7.6,5.8c3.3,0,6-1.9,8.1-5.6c2-3.6,3-7.7,2.9-11.9c0-12.9-5.7-15.6-10.5-15.6c-4.3,0-8,2.8-10.9,8.3
		C1.4,229,0,235.1,0,242.2c0,14,4.4,25.6,13.1,34.6c8.7,8.9,20,13.5,33.7,13.5c22.7,0,45-11.8,66.2-35.1c7.5-8.1,13.9-17.1,19-26.8
		c4.6-9,10.7-24.1,18.2-44.9c1.9-5.5,3.5-9.9,4.6-13.2l0.7,0.2c3.6,0.9,6.5,1.6,8.9,2.1c-7.1,25.1-12.9,32.4-16.5,34.1
		c-1.4,0.5-2.4,1.9-2.4,3.4c0,1.5,1,3.2,3.8,3.2c4.2,0,8.5-3,13-9c4.5-6.2,7.7-13.2,9.6-20.6c1.5-5.4,2.3-8,2.7-9.3h1.2
		c7.1,0,13-2.1,17.5-6.1c4.5-4.1,7-9.9,6.8-16C200.1,140.9,193.1,139.2,188.9,139.2z M304.9,51.2c-4.6,2.7-9.9,4.1-15.3,4
		c-11.9,0-25.1-2.6-39.3-7.8l-13.4-4.7c14.3-8.5,30.6-13,47.2-12.9c7.6,0,14.1,1.5,19.4,4.3c5,2.7,7.4,5.7,7.4,9.1
		C310.9,46.1,308.9,48.7,304.9,51.2z M125.1,36c2.4,8.1,3.6,16.6,3.7,25c0,28.5-7.2,57-21.5,84.8C93.2,173.2,78.9,187,64.8,187
		c-5,0-9.1-2.9-12.6-8.9c-3.6-6.3-5.5-14.1-5.5-23.1c0-24.9,8.6-50.4,25.7-75.7C88.8,54.9,106.6,40.3,125.1,36z M189.2,162.6
		c-3.1,2.7-7.1,4-12,4h-0.6l0.3-1.1c3.6-12.7,7.9-19.4,12.4-19.4c1.4,0,4.3,0,4.3,6.7C193.9,156.5,192.2,160.2,189.2,162.6
		L189.2,162.6z"/>
	<path class="st0" d="M222,120.1h11.3c2.3,0,4,0.4,5,1.2c1,0.8,1.5,2.1,1.3,3.3c-0.1,0.8-0.2,1.6-0.4,2.3l-28.2,86.4
		c-1.2,3.8-3.9,5.7-8.1,5.7h-5.9l-2.5,7.1H295l14.5-39.1h-7.1c-5.2,11.1-11.6,19.2-19.2,24.3c-7.6,5.1-16.9,7.7-27.7,7.7h-12.1
		c-3,0-5.1-0.4-6.2-1.2c-1.1-0.8-1.8-2.2-1.6-3.6c0.1-0.9,0.2-1.8,0.5-2.7l13.1-40.2h6.4c4.8,0,8.6,1.2,11.3,3.6
		c2.7,2.4,3.9,5.9,3.6,10.4c-0.3,3.6-0.8,7.2-1.7,10.7h6.8l16.7-51.3h-6.9c-3.3,7.3-7.1,12.4-11.3,15.3c-4.2,2.9-9.7,4.3-16.5,4.3
		h-6l12.2-37.7c1.5-4.3,4.3-6.4,8.3-6.4h17.7c5.8,0,10.5,1.8,14,5.3c3.6,3.5,5.2,8.2,4.9,14c-0.3,3.4-0.9,6.8-1.8,10.2h7.1
		l10.5-36.7H224.3L222,120.1z"/>
	<path class="st0" d="M403.6,110.1c-26.5-0.1-51.2,13.5-65.5,35.9c-7.1,10.9-11.2,23.5-11.8,36.5c-0.7,13.6,3,24.7,11.2,33.1
		s19.3,12.7,33.2,12.7c1.5,0,3.3-0.1,5.6-0.2c2.3-0.2,5-0.4,8-0.6c-0.5,2.9-0.9,5.8-1.2,8.7c-0.3,6.4,1.1,11.4,4.3,14.8
		s8,5.2,14.5,5.2c6.6,0,12-1.6,16.4-4.8c4.5-3.4,7.7-8.2,9.1-13.6l-4.6-1c-1.4,3.4-2.8,5.8-4.2,7c-1.3,1.2-3,1.9-4.8,1.9
		c-2.5,0-4.4-1.4-5.8-4.1s-2.4-9.6-2.9-20.7c8.5-4.1,16.3-9.6,22.9-16.3c6.2-6.4,11.3-13.9,14.9-22.1c3.6-8.1,5.8-16.8,6.3-25.6
		c0.7-14-3.1-25.3-11.4-33.9C429.5,114.4,418.1,110.1,403.6,110.1z M388.5,206.6c-0.4,4-1.1,7.9-2.1,11.8c-2.1,0.9-4.3,1.6-6.6,2.1
		c-2.2,0.5-4.5,0.7-6.8,0.7c-3.5,0.1-7-0.6-10.1-2.1c-2.5-3.2-3.7-7.2-3.4-11.2c0.6-9,7.9-16,16.9-16.2c3.5-0.1,6.8,1.3,9.1,4
		C387.7,198.2,388.7,201.9,388.5,206.6z M424.5,144.2c-0.7,10.4-2.9,20.7-6.4,30.6c-3.6,10.7-8.7,20.8-15.1,30.1
		c-1.2-6.7-3.9-11.9-8-15.4c-4.1-3.6-9.6-5.3-16.3-5.3c-7.1,0-13,1.9-17.6,5.7c-4.6,3.8-7.5,9-8.7,15.7c-0.8-4.5-1.1-9.1-0.8-13.6
		c0.9-14.1,4.4-27.9,10.5-40.7c5.7-12.2,12.3-21.1,20-26.8c5.9-4.7,13.2-7.3,20.7-7.4c6.9,0,12.4,2.4,16.4,7.3
		C423.1,129.1,424.9,135.8,424.5,144.2L424.5,144.2z"/>
	<path class="st0" d="M599.3,112.8h-41.1l-2.4,7.1c4.3,0,7.3,0.4,9.2,1.2c1.8,0.7,3.3,2,4.2,3.7c1,2.1,1.4,4.4,1.2,6.7
		c-0.1,1.9-0.5,3.8-1.1,5.6L551.7,191c-3.1,9.5-7.7,16.8-13.9,21.7c-6.1,4.9-13.7,7.6-21.5,7.4c-7.5,0-13.4-2-17.6-6
		c-4.2-4-6.2-9.4-5.8-16.1c0.4-4.5,1.4-8.9,2.8-13.1l19.1-59.4c1.2-3.8,4-5.7,8.4-5.7h8.4l2.3-7.1h-57.4l-2.3,7.1h9.5
		c2.6,0,4.4,0.4,5.4,1.1c1,0.7,1.6,2,1.4,3.2c0,0.7-0.2,1.4-0.4,2.1L472,182c-1.7,5-2.7,10.2-3,15.5c-0.7,8.6,3,16.9,9.8,22.2
		c7,5.7,17.5,8.6,31.4,8.6c8.8,0,16.4-1.4,22.9-4.2c6.3-2.7,11.9-6.8,16.5-12c4.5-5.2,8.2-12.1,11-20.8l18.6-57.3
		c1.3-4.4,3.4-7.8,6.3-10.1c2.9-2.3,6.8-3.5,11.6-3.8L599.3,112.8z"/>
	<path class="st0" d="M672.5,166.5c-3.4-2.7-9.4-5.7-18.1-8.9c-13.1-4.9-20.9-8.5-23.4-11c-2.5-2.4-3.7-5.8-3.5-10.1
		c0.2-5.5,2.9-10.5,7.2-13.9c4.5-3.7,10.2-5.6,17.2-5.6c5.1-0.1,10.1,1.3,14.3,4.1c4.2,2.8,7.4,6.9,9.2,11.6c2,5,2.9,12.1,2.6,21.4
		h6.9l11-39.1h-6.8l-9.4,7c-4.1-3.9-8.8-7-14-9.1c-5-1.9-10.4-2.8-15.8-2.8c-11.6,0-21.2,3.4-28.8,10.3c-7.6,6.7-12,16.2-12.3,26.3
		c-0.4,4.4,0.3,8.9,1.9,13.1c1.5,3.6,3.9,6.7,7.1,9.1c3.1,2.4,9.4,5.5,18.9,9.2c12.1,4.8,19.2,8.1,21.1,9.7
		c3.5,2.8,5.3,7.2,4.9,11.6c-0.3,5.9-3,10.9-8.2,15.1c-5.1,4.2-11.6,6.3-19.4,6.3c-6,0.2-11.9-1.3-17-4.3
		c-4.8-2.8-8.5-7.1-10.6-12.2c-2.2-5.3-3.1-12.6-2.7-22h-7l-11.2,40.7h7.2l6.9-7c4.6,4.1,9.9,7.4,15.6,9.6
		c14.1,4.4,29.3,3.6,42.9-2.2c6.7-3,12.4-7.8,16.5-13.9c3.9-5.8,6.2-12.5,6.5-19.4c0.3-4.6-0.4-9.2-2.1-13.4
		C678.5,172.5,675.8,169.1,672.5,166.5z"/>
	<path class="st0" d="M803,218.9c-3.6,0-6.5-0.8-8.6-2.4c-1.5-1.1-2.4-3.2-2.6-6.1l-8.8-97.6h-10.7l-67.6,95
		c-2.6,3.4-5.8,6.4-9.5,8.7c-2.6,1.6-5.6,2.4-8.6,2.4l-2.2,7.1h41.5l2.2-7.1h-3.2c-3.5,0-6-0.7-7.7-2.1c-1.6-1.5-2.5-3.7-2.2-5.9
		c0.1-2.8,1.4-5.8,3.7-9.1l8.4-11.8h39.2l1.8,20.4c0.1,0.8,0.1,1.6,0.1,2.4c0,1.8-0.9,3.6-2.5,4.6c-1.5,1-4.4,1.5-8.5,1.5h-3.9
		l-2.2,7.1h53.2l2.3-7.1L803,218.9z M733.1,181.5L762,141l3.5,40.5H733.1z"/>
</g>
<g id="Capa_14">
	<path class="st0" d="M899.5,111.6h53.4l-1.8,7.4h-6.2c-2.9,0-5,0.4-6.2,1.3c-1.4,1-2.3,2.6-2.7,4.3l-22.1,88.2
		c-0.2,0.8-0.3,1.5-0.3,2.3c-0.1,1.3,0.4,2.5,1.4,3.3c1.4,1,3.5,1.5,6.3,1.5h7.9l-1.8,7.3h-52.2l1.8-7.3h5.9c4.2,0,6.8-1.9,7.7-5.8
		l22-87.8c0.2-0.9,0.4-1.9,0.4-2.8c0.1-1.3-0.5-2.5-1.5-3.3c-1-0.8-2.7-1.2-5.2-1.2h-8.5L899.5,111.6z"/>
	<path class="st0" d="M969.5,111.6h32.6l36.9,80.5l12.9-56.7c0.5-1.9,0.8-3.8,0.9-5.7c0.1-3-1-5.8-3.1-7.9c-2.3-2-5.3-3.1-8.3-2.9
		h-3.2l1.8-7.3h37.3l-1.9,7.3c-3.9,0.2-6.9,1.4-9,3.4c-3.1,3.3-5.2,7.4-6.2,11.9l-21,93h-8.4l-42.2-91.7L972,199.2
		c-0.6,2.4-1,4.8-1.1,7.3c-0.1,3.6,1.3,7.1,3.9,9.6c2.6,2.4,6.3,3.7,11.2,3.8l-1.6,7.3h-41.9l1.7-7.3c4.3,0,8.5-1.6,11.8-4.4
		c3.2-3.1,5.4-7,6.4-11.4l19.6-74.5c0.4-1.3,0.6-2.7,0.7-4c0.1-2-0.9-3.8-2.5-5c-1.6-1.2-4.5-1.8-8.7-1.8h-3.7L969.5,111.6z"/>
	<path class="st0" d="M1166.4,121.2c2.1-2.3,3.8-4.9,4.9-7.7h6.5l-6.5,41h-6.4c-0.4-13.7-2.9-23.5-7.4-29.5c-4.1-5.8-10.9-9.1-18-9
		c-6.7,0-13.1,2.6-19.3,7.8c-6.2,5.2-11.8,14.4-16.9,27.7c-5.1,13.3-7.7,26.1-7.7,38.4c0,10.6,2.1,18.6,6.3,24
		c4,5.3,10.3,8.4,16.9,8.2c5.9,0,10.6-1.6,14.2-4.9c3.6-3.3,6.7-9.2,9.4-17.7c2.6-8.5,3.9-13.9,3.9-16c0.1-1.1-0.4-2.1-1.2-2.8
		c-0.8-0.6-2.3-0.9-4.5-0.9h-7.2l1.5-6.9h47l-1.8,6.9h-3.5c-4.3,0-6.9,1.8-7.8,5.3l-11,42.1h-5.4l-3.2-14.5
		c-4.5,5.4-10.1,9.7-16.5,12.8c-6.2,2.7-12.9,4.1-19.6,4c-12,0-22.1-4-30.2-12.1c-8.2-8.1-12.3-19.4-12.3-34c0-13,3.2-25.7,9.3-37.2
		c6.2-11.8,14.4-21,24.5-27.5c9.8-6.4,21.2-9.8,32.9-9.7c6.8,0,12.3,1,16.7,2.9C1158.9,113.9,1163.1,117.1,1166.4,121.2z"/>
	<path class="st0" d="M1262.1,121l8.4-7.1h6.4l-8.4,39.9h-6.5c-0.2-9.4-1.4-16.7-3.5-21.8c-1.9-4.8-5.1-8.9-9.2-11.9
		c-4-2.8-8.8-4.3-13.6-4.2c-6.6,0-11.8,1.9-15.8,5.7c-3.9,3.7-6.1,8.8-6,14.2c0,4.4,1.3,7.8,3.8,10.3s10,6.2,22.5,11.2
		c8.3,3.3,14.1,6.4,17.5,9.1c3.3,2.7,5.9,6.2,7.7,10.2c1.8,4.3,2.8,9,2.7,13.7c0.1,7-1.7,13.8-5.1,19.8c-3.5,6-8.6,11-14.8,14.1
		c-6.5,3.4-14,5.2-22.5,5.2c-6,0.1-12-0.9-17.6-2.9c-5.6-2.3-10.8-5.6-15.2-9.8l-6.1,7.2h-6.8l8.4-41.5h6.5c0,9.6,1.3,17.1,3.6,22.5
		c2.2,5.1,5.8,9.5,10.5,12.5c4.9,3,10.5,4.5,16.2,4.4c7.3,0,13.3-2.1,17.9-6.4c4.4-3.9,6.9-9.5,6.9-15.4c0.2-4.5-1.7-8.9-5.2-11.9
		c-1.9-1.7-8.7-5-20.3-9.9c-9.1-3.8-15.1-6.9-18.2-9.4c-3.1-2.5-5.5-5.7-7.1-9.3c-1.7-4.2-2.6-8.8-2.5-13.3
		c0-10.8,3.4-19.8,10.3-26.8c6.8-7,15.7-10.5,26.6-10.5c5.1-0.1,10.2,0.9,15,2.8C1253.5,113.9,1258.1,117.1,1262.1,121z"/>
</g>
<g id="Capa_16">
	<path class="st0" d="M1385.8,161.9l5.3-4.4h4l-5.2,25h-4c-0.1-5.9-0.9-10.4-2.2-13.6c-1.2-3-3.2-5.6-5.8-7.4
		c-2.5-1.8-5.5-2.7-8.5-2.6c-3.6-0.2-7.2,1.1-9.9,3.6c-2.5,2.3-3.8,5.5-3.8,8.9c-0.1,2.4,0.7,4.7,2.3,6.4c1.6,1.6,6.3,3.9,14.1,7
		c5.2,2.1,8.8,4,10.9,5.7c2.1,1.7,3.7,3.9,4.8,6.3c1.2,2.7,1.7,5.6,1.7,8.6c0,4.3-1.1,8.6-3.2,12.4c-2.2,3.8-5.4,6.8-9.3,8.8
		c-4.4,2.2-9.2,3.3-14.1,3.2c-3.8,0.1-7.5-0.5-11-1.8c-3.5-1.4-6.7-3.5-9.5-6.1l-3.8,4.5h-4.2l5.3-25.9h4.1c0,6,0.8,10.7,2.3,14
		c1.3,3.2,3.6,5.9,6.6,7.8c3,1.9,6.6,2.8,10.1,2.8c4.1,0.2,8.1-1.3,11.2-4c2.8-2.4,4.3-5.9,4.3-9.6c0.1-2.8-1.1-5.6-3.3-7.4
		c-1.2-1-5.4-3.1-12.7-6.2c-5.7-2.4-9.4-4.3-11.4-5.9c-1.9-1.5-3.4-3.5-4.4-5.8c-1.1-2.6-1.6-5.5-1.5-8.3c0-6.8,2.1-12.4,6.4-16.7
		s9.8-6.6,16.6-6.6c3.2,0,6.4,0.6,9.4,1.8C1380.5,157.5,1383.4,159.4,1385.8,161.9z"/>
	<path class="st0" d="M1401,213c2.1,0,4.1,0.9,5.5,2.4c3,3.4,3,8.5,0,11.8c-2.8,3.1-7.5,3.3-10.6,0.5c-0.2-0.2-0.3-0.3-0.5-0.5
		c-3-3.4-3-8.5,0-11.8C1396.9,213.8,1398.9,212.9,1401,213z"/>
	<path class="st0" d="M1466.8,156h6.3l8.2,62.2c0,1.5,0.7,2.9,1.7,3.9c1.5,1.1,3.3,1.6,5.1,1.5h2.1l-1.1,4.5h-31.2l1.1-4.5h2.3
		c2.4,0,4.1-0.3,4.9-1c0.9-0.7,1.4-1.8,1.3-2.9c0-0.5-0.1-1-0.1-1.6l-1.7-13h-23l-4.6,7.5c-1.1,1.7-1.8,3.7-1.9,5.8
		c-0.1,1.4,0.5,2.8,1.5,3.7c1.3,1,2.9,1.5,4.6,1.3h1.9l-1.1,4.5h-24.4l1.1-4.5c1.8,0,3.5-0.6,5-1.6c2.1-1.5,3.9-3.3,5.3-5.5
		L1466.8,156z M1461.6,174l-15.6,25.8h19L1461.6,174z"/>
	<path class="st0" d="M1501.6,213c2.1,0,4.1,0.9,5.5,2.4c3,3.4,3,8.5,0,11.8c-2.8,3.1-7.5,3.3-10.6,0.5c-0.2-0.2-0.3-0.3-0.5-0.5
		c-3-3.4-3-8.5,0-11.8C1497.5,213.8,1499.5,212.9,1501.6,213z"/>
	<path class="st0" d="M1576.3,162.8c1.9-1.3,3.3-3.2,4-5.5h4.1l-5.2,27.2h-4c0-7.1-0.6-12.2-1.8-15.4c-1-3-2.9-5.5-5.5-7.3
		c-2.6-1.8-5.7-2.7-8.9-2.6c-3.8,0-7.5,1.6-11.1,4.7s-6.8,8.4-9.7,15.9c-2.8,7.4-4.2,15.3-4.2,23.2c-0.1,3.9,0.6,7.8,2.1,11.4
		c1.3,2.9,3.5,5.3,6.2,6.9c2.8,1.7,6,2.6,9.2,2.5c4.5-0.1,8.8-1.7,12.2-4.6c3.8-3.1,6.9-7.7,9.2-13.8l3.9,1.9
		c-2.6,7.4-6.5,13-11.5,16.7c-5.3,3.8-11.6,5.8-18.1,5.6c-8.7,0-15.5-2.6-20.6-7.8c-5-5.2-7.6-12.2-7.6-21
		c-0.1-8.3,1.7-16.5,5.3-23.9c3.5-7.4,8.2-13,13.9-16.8c5.5-3.8,12-5.8,18.6-5.7c3.7-0.1,7.4,0.6,10.9,2
		C1571,157.8,1574,160,1576.3,162.8z"/>
	<path class="st0" d="M1588.8,213c2.1,0,4.1,0.9,5.5,2.4c3,3.4,3,8.5,0,11.8c-2.8,3.1-7.5,3.3-10.6,0.5c-0.2-0.2-0.3-0.3-0.5-0.5
		c-3-3.4-3-8.5,0-11.8C1584.7,213.8,1586.7,212.9,1588.8,213z"/>
</g>
</svg>
