<svg xmlns="http://www.w3.org/2000/svg" viewBox="0 0 362.567 133.732"><defs><style>.cls-1{fill:#2d55aa;}.cls-2{fill:#ccc;}.cls-3{fill:#85c879;}.cls-4{fill:#fff;}</style></defs><title>galvi</title><g id="Capa_5" data-name="Capa 5"><path class="cls-1" d="M32.926,0H362.567a0,0,0,0,1,0,0V133.732a0,0,0,0,1,0,0H0a0,0,0,0,1,0,0V32.926A32.926,32.926,0,0,1,32.926,0Z"/></g><g id="Capa_3" data-name="Capa 3"><path class="cls-2" d="M369.28,50.205v-2.5a47.987,47.987,0,1,0,0,95.974V124.992a30.077,30.077,0,0,1-14.058-3.47l2.922-3.957a24.7,24.7,0,0,0,11.136,2.659V105.612a10.266,10.266,0,1,1,0-20.532V70.545a24.7,24.7,0,0,0-10.644,2.422l-3.685-4.417-5.02,4.187,3.182,3.814a24.917,24.917,0,0,0-5.73,7.109l-4.41-1.606L340.737,88.2l4.361,1.588a24.046,24.046,0,0,0-.234,10.073l-4.926,2.157a30.3,30.3,0,0,1-.88-7.245c0-11.215,4.447-19.229,12.907-25.685a8.213,8.213,0,0,0-2.807.9c-1.513.846-6.409,5.153-9.466,11.907l-1.346-.6a24.561,24.561,0,0,1,8.556-12.2s-2.666.231-5.42,3.631a35.154,35.154,0,0,0-4.588,7.922l-.041-.018-1.541-.778.026-.017s2.956-8.2,7.26-10.651a7.821,7.821,0,0,0-4.155,2.628,26.828,26.828,0,0,0-4.307,7.383c-.007.02-.009.036-.015.056l-.911-.46c.3-1.188,1.894-7.095,5-9.08a5.46,5.46,0,0,0-3.427,2.461,16.986,16.986,0,0,0-2.528,6.137l-.024-.012A44.29,44.29,0,0,0,324.716,87C328.9,66.419,347.463,50.205,369.28,50.205Zm-8.69,31.952a1.615,1.615,0,1,1-1.615,1.615A1.615,1.615,0,0,1,360.59,82.157Zm0,23.455a1.615,1.615,0,1,1-1.615,1.615A1.615,1.615,0,0,1,360.59,105.612Zm-5.306-3.768a1.615,1.615,0,1,1,1.615-1.615A1.615,1.615,0,0,1,355.284,101.844Zm-.308-12.073a1.615,1.615,0,1,1-1.614,1.615A1.615,1.615,0,0,1,354.976,89.771ZM346.9,106.1a24.881,24.881,0,0,0,5.842,7.777l-2.944,3.987a30.351,30.351,0,0,1-7.608-9.7Z" transform="translate(-12.635 -14.561)"/><path class="cls-3" d="M331.572,113.217l7.522-4.946a1.1,1.1,0,0,0,.368-1.456c-1.57-2.843-5.863-12.241-.81-22.582a1.118,1.118,0,0,0-.426-1.466l-4.89-2.842a1.112,1.112,0,0,0-1.414.249l-7.6,9.115a1.086,1.086,0,0,0-.2.345c-.32.915-1.5,4.988-.279,12.424,0,0-.3,2.185,6.224,10.9A1.115,1.115,0,0,0,331.572,113.217Z" transform="translate(-12.635 -14.561)"/><path class="cls-3" d="M248.528,93.532a1.189,1.189,0,0,0,1.021-.58l14.135-23.709a1.872,1.872,0,0,1,1.733-.913,1.717,1.717,0,0,1,1.649,1.144l7.6,27.235,10.347-50.325a2.063,2.063,0,0,1,2.02-1.648h0a2.064,2.064,0,0,1,2.051,1.844l5.015,47,7.2-46.625s.184-1.818,1.81-1.814,1.773,1.772,1.773,1.772l5.855,48.417,5.595-47.7S316.255,45.2,318,45.2s1.563,2.4,1.563,2.4v89.735A1.545,1.545,0,0,1,317.9,138.8a1.5,1.5,0,0,1-1.613-1.489V103.261s-.5-4.319-1.191,1.042c-.577,4.45-4.22,31.993-4.22,31.993s-.155,1.851-1.653,1.851-1.6-1.826-1.6-1.826L302.789,98.2s-.4-1.192-.695,1.042c-.261,1.963-5.737,30.645-7.06,37.57a1.845,1.845,0,0,1-1.825,1.5h0a1.86,1.86,0,0,1-1.852-1.679L287.3,95.12l-1.043-10.672s-.546-1.192-.844.149c-.261,1.174-7,30.184-8.666,37.335a2.014,2.014,0,0,1-2.008,1.556h0a2.032,2.032,0,0,1-1.933-1.508l-9.432-35.348s-.5-.993-.993.1-6.367,11.243-6.367,11.243-1.712,3.947-4.8,3.947H102.172a4.2,4.2,0,0,1-4.195-4.2h0a4.2,4.2,0,0,1,4.195-4.194Z" transform="translate(-12.635 -14.561)"/><path class="cls-4" d="M109.454,110.423s1.688-2.581-.794-3.971h-8.439v8.935h8.042S112.035,114.792,109.454,110.423Zm-6.552-2.407h4.12c.546,0,.694.645.744,1.042s-.844.795-.844.795H102.9Zm4.566,5.51H102.9V111.54h4.566C108.957,112.93,107.468,113.526,107.468,113.526Z" transform="translate(-12.635 -14.561)"/><path class="cls-4" d="M121.833,111.416a2.168,2.168,0,0,0,.943-1.985c0-1.49-.4-2.383-.943-2.582a8.231,8.231,0,0,0-2.978-.471h-6.2v9.084h2.383V112.31h4.417s.695.049.695.695v2.457h2.383v-2.854S122.478,111.515,121.833,111.416ZM119.6,110.3h-4.666v-2.283H119.7a1.255,1.255,0,0,1,.744,1.142A1.285,1.285,0,0,1,119.6,110.3Z" transform="translate(-12.635 -14.561)"/><path class="cls-4" d="M220.729,111.416a2.168,2.168,0,0,0,.943-1.985c0-1.49-.4-2.383-.943-2.582a8.238,8.238,0,0,0-2.979-.471h-6.205v9.084h2.383V112.31h4.418s.695.049.695.695v2.457h2.383v-2.854S221.374,111.515,220.729,111.416ZM218.5,110.3h-4.666v-2.283h4.765a1.255,1.255,0,0,1,.745,1.142A1.285,1.285,0,0,1,218.5,110.3Z" transform="translate(-12.635 -14.561)"/><path class="cls-4" d="M132.346,106.378h-2.78l-4.617,9.009,2.532.075,1.291-1.936h4.517l1.042,1.861h2.78Zm-3.028,5.51,1.712-2.954,1.614,2.954Z" transform="translate(-12.635 -14.561)"/><polygon class="cls-4" points="131.008 96.359 136.779 91.817 133.168 91.817 128.328 95.313 128.328 91.817 125.796 91.817 125.796 100.901 128.328 100.901 128.328 96.856 133.912 100.901 137.412 100.901 131.008 96.359"/><rect class="cls-4" x="138.115" y="91.817" width="2.308" height="9.084"/><polygon class="cls-4" points="143.133 91.817 143.133 100.901 145.516 100.901 145.516 94.374 151.472 100.901 154.413 100.901 154.413 91.817 151.696 91.817 151.696 97.675 146.297 91.817 143.133 91.817"/><path class="cls-4" d="M179.255,109.505v-.962a2.165,2.165,0,0,0-2.165-2.165h-6.254a2.165,2.165,0,0,0-2.165,2.165V113.3a2.165,2.165,0,0,0,2.165,2.165h6.254a2.165,2.165,0,0,0,2.165-2.165v-3H173.2v1.787h3.773v.64a.874.874,0,0,1-.875.874h-4.269a.874.874,0,0,1-.874-.874v-3.861a.874.874,0,0,1,.874-.874H176.1a.8.8,0,0,1,.875.775v.739Z" transform="translate(-12.635 -14.561)"/><polygon class="cls-4" points="183.439 93.753 183.439 91.817 177.532 91.817 175.993 91.817 175.149 91.817 175.149 100.901 177.532 100.901 177.532 97.327 183.439 97.327 183.439 95.391 177.532 95.391 177.532 93.753 183.439 93.753"/><polygon class="cls-4" points="231.722 93.753 231.722 91.817 225.815 91.817 224.276 91.817 223.433 91.817 223.433 100.901 224.276 100.901 225.815 100.901 231.722 100.901 231.722 98.965 225.815 98.965 225.815 97.327 231.722 97.327 231.722 95.391 225.815 95.391 225.815 93.753 231.722 93.753"/><path class="cls-4" d="M206.482,106.378h-5.113a2.531,2.531,0,0,0-2.531,2.531v4.021a2.532,2.532,0,0,0,2.531,2.532h5.113a2.532,2.532,0,0,0,2.532-2.532v-4.021A2.532,2.532,0,0,0,206.482,106.378Zm.224,5.932a1.391,1.391,0,0,1-1.39,1.39h-2.78a1.39,1.39,0,0,1-1.39-1.39v-2.78a1.39,1.39,0,0,1,1.39-1.39h2.78a1.39,1.39,0,0,1,1.39,1.39Z" transform="translate(-12.635 -14.561)"/><path class="cls-4" d="M231.873,112.037v.322a1.39,1.39,0,0,1-1.39,1.39H227.7a1.39,1.39,0,0,1-1.39-1.39v-2.78a1.389,1.389,0,0,1,1.39-1.389h2.78a1.39,1.39,0,0,1,1.39,1.389v.323h2.308v-.943a2.532,2.532,0,0,0-2.532-2.532h-5.112a2.532,2.532,0,0,0-2.532,2.532v4.021a2.531,2.531,0,0,0,2.532,2.531h5.112a2.531,2.531,0,0,0,2.532-2.531v-.943Z" transform="translate(-12.635 -14.561)"/><rect class="cls-4" x="220.925" y="6.683" width="11.695" height="11.695"/><path class="cls-4" d="M214.382,48.416V77.242c0,.037-4.545-.034-4.964-.055a24.339,24.339,0,0,1-8.655-2.047,25.544,25.544,0,0,1-11.956-10.992,23.69,23.69,0,0,1-1.582-3.539,21.317,21.317,0,0,1-1.239-7.055V48.416H173.6c-.179.008,0,5.55.013,5.972.258,10.533,5.567,20.1,13.682,26.7q.351.285.708.562a39.831,39.831,0,0,0,11.743,6.491c4.831,1.6,9.611,1.37,14.632,1.37h12.141V58.338h7.037V89.507H245.7V48.416Z" transform="translate(-12.635 -14.561)"/><path class="cls-4" d="M156.351,77.738h-5.644l0-3.775s-.02-6.917-.045-10.171c-.077-10.124-5.509-15.5-15.608-15.518q-37.866-.054-75.733-.06a19.7,19.7,0,0,0-3.344.144C45.461,50.183,37.75,59.4,38.411,69.308c.774,11.619,8.52,20.212,20.979,20.212H77.9v7.842c0,3.073-1.565,4.7-5.055,4.7H42.6v12.6H72.849a17.535,17.535,0,0,0,18.088-17.3V62.92H77.9V78.867H59.39a10.13,10.13,0,0,1-10.155-9.492c0-5.56,3.457-9.7,8.769-10.515a31.809,31.809,0,0,1,4.724-.312q19.562-.055,39.123-.055,16.767-.023,33.534-.04c2.267,0,3.965-.265,3.965,1.745,0,1.075-.913,1.338-3.626,1.338-7.171.108-14.347-.073-21.516.075-8.008.165-13.98,6.171-13.954,13.745.027,7.626,5.513,14.163,14.47,14.163h54.487V21.169h-12.86Zm-43.7-2.456c0-1.629.55-2.039,2.364-2.039,6.972,0,14.17.022,21.14.022,1.614,0,1.928.979,1.928,2.243,0,1.152-.426,1.814-2.305,1.814-3.533,0-17.295-.09-20.635-.09C112.865,77.232,112.65,76.548,112.65,75.282Z" transform="translate(-12.635 -14.561)"/></g></svg>