<svg id="Capa_1" data-name="Capa 1" xmlns="http://www.w3.org/2000/svg" viewBox="0 0 335.95 184.231"><defs>
<style>
.cls-1{fill:#1566ac;}
.cls-1:hover{fill: #000;}
</style>
</defs><title>gummi</title><rect class="cls-1" x="308.912" y="127.002" width="17.146" height="15.313"/><path class="cls-1" d="M344.5,179.4c-2.055,0-4.03.129-5.567-1.531a7.286,7.286,0,0,1-1.7-4.909v-12.9H320.081v12.9c0,.124,0,.248,0,.373.054,5.445,1.392,11.339,5.089,15.415a17.969,17.969,0,0,0,12.107,5.521c.854.06,9.839.152,9.839.026V179.336C347.118,179.372,344.7,179.4,344.5,179.4Z" transform="translate(-11.169 -11.011)"/><path class="cls-1" d="M288.13,138.014c-7.131,0-12.557,1.419-16.589,3.783-4.282-2.424-10.155-3.783-17.926-3.783-18.842,0-25.814,9.876-26.478,21.054h.033v32.988h19.1V159.068c.716-3.628,2.67-5.475,7.673-5.438,5.566.04,7.149,1.81,7.7,5.438v32.988h19.1V159.068h.033c.716-3.628,2.67-5.475,7.673-5.438,5.566.04,7.149,1.81,7.7,5.438v32.988h19.1V159.068C315.271,146.355,307.518,138.014,288.13,138.014Z" transform="translate(-11.169 -11.011)"/><path class="cls-1" d="M193.037,138.014c-7.131,0-12.557,1.419-16.589,3.783-4.282-2.424-10.155-3.783-17.926-3.783-18.842,0-25.814,9.876-26.478,21.054h.033v32.988h19.1V159.068c.716-3.628,2.67-5.475,7.672-5.438,5.567.04,7.15,1.81,7.706,5.438v32.988h19.1V159.068h.033c.716-3.628,2.67-5.475,7.673-5.438,5.566.04,7.149,1.81,7.705,5.438v32.988h19.1V159.068C220.178,146.355,212.425,138.014,193.037,138.014Z" transform="translate(-11.169 -11.011)"/><path class="cls-1" d="M109.607,173.763c-.076,4.617-3.113,6.5-7.669,6.538-5.43.048-7.669-1.112-7.766-6.538V140.957h-16.7v32.806c0,12.969,9,21.475,24.719,21.479,15.407,0,23.511-10.076,24.116-21.479V140.957h-16.7Z" transform="translate(-11.169 -11.011)"/><path class="cls-1" d="M69.147,170.9a13.475,13.475,0,0,0-2.932-5.52,8.753,8.753,0,0,0-3.792-2.231,7.4,7.4,0,0,0-2.122-.5H42.867v10.1H55c1.456,0,2.636,1.578,2.636,3.524,0,3.573-2.889,3.523-2.889,3.523-.454,0-14.739.055-15.938-.044a22.759,22.759,0,0,1-3.4-.532q-.713-.171-1.411-.4a11.724,11.724,0,0,1-4.285-2.428,9.658,9.658,0,0,1-2.26-3,12.564,12.564,0,0,1-1.166-7.5,18.181,18.181,0,0,1,1.852-6.188c2.021-3.66,6.2-5.8,10.328-6.449H69.957V140.565H37.542c-16.733,0-26.373,9.818-26.373,26.136,0,4.257.368,8.552,2.086,12.473,3.468,7.911,10.617,15.11,21.891,15.11,3.112,0,6.26-.043,9.382-.043,2.941,0,5.886-.061,8.824.009.207,0,.416-.02.624-.023.3.018.594.047.9.047,8.331,0,15.085-7.069,15.085-15.789,0,0,0-.143,0-.178A18.035,18.035,0,0,0,69.147,170.9Z" transform="translate(-11.169 -11.011)"/><path class="cls-1" d="M245.67,114.2c-10.657-21.276-32.755-64.182-32.755-64.182l-26.933.208L173.675,74.449l17.915.008,4.113,7.926s-16.442.043-24.1-.009c-14.728-.1-23.181-7.112-23.172-19.152.009-12.13,9.27-20.76,21.014-21.386,13.31-.175,74.223.313,74.223.313l.313-31.046s-55.785-.337-79.876.28C139.957,12,118.184,34.1,116.415,57.263c-2.632,34.451,20.33,55,40.661,56.428C185.818,115.715,214.808,114.2,245.67,114.2Z" transform="translate(-11.169 -11.011)"/></svg>