<svg xmlns="http://www.w3.org/2000/svg" viewBox="0 0 544.085 110.874"><defs><style>.cls-1{fill:#043265;}.cls-2{fill:#9c9a9c;}.cls-3{fill:#fff;}</style></defs><title>jakob</title><g id="Capa_2" data-name="Capa 2"><path class="cls-1" d="M26.015,87.8S25.493,98.328,18.877,98.5s-7.835-.7-9.141-1.306L20.1,121.659s10.533,2.176,17.236-.958,14.277-10.185,14.277-30.9V13.045H26.015Z" transform="translate(-9.736 -12.348)"/><polygon class="cls-1" points="223.583 0.696 195.609 0.696 166.824 32.964 165.692 32.964 165.692 0.696 139.895 0.696 139.895 76.143 165.576 76.143 165.576 42.018 166.359 42.018 192.011 76.143 223.583 76.143 191.895 35.634 223.583 0.696"/><path class="cls-1" d="M263.614,12.348c-22.5,0-40.741,17.439-40.741,38.95s18.24,38.949,40.741,38.949S304.355,72.809,304.355,51.3,286.114,12.348,263.614,12.348Zm0,55.729c-8.206,0-14.857-7.356-14.857-16.431s6.651-16.432,14.857-16.432,14.857,7.357,14.857,16.432S271.819,68.077,263.614,68.077Z" transform="translate(-9.736 -12.348)"/><path class="cls-1" d="M88.259,13.045,53.437,88.491H78.944L84.69,75.346h32.3l5.485,13.145H147.8L113.678,13.045Zm1.364,47.937,11-27.1,11.52,27.1Z" transform="translate(-9.736 -12.348)"/><path class="cls-1" d="M374.694,53.786c-3.83-2.786-9.605-5.339-11.52-5.6v-.61s8.328-2.844,10.65-7.428,5.02-13.552-2.38-19.558S356.3,13.045,348.81,13.045H308.882V88.491h39.232s17.991-.58,24.375-6.035,7.66-9.634,7.66-15.322S378.524,56.572,374.694,53.786ZM334.649,25.7h10.215c1.857,0,4.294,1.276,6.384,3.6a8.9,8.9,0,0,1,0,11.723c-3.715,4.179-9.75,3.946-9.75,3.946h-6.849Zm18.533,47.079c-4.147,4.419-10.886,4.173-10.886,4.173h-7.647V56.572h11.4c2.074,0,4.8,1.35,7.128,3.805A9.041,9.041,0,0,1,353.182,72.776Z" transform="translate(-9.736 -12.348)"/></g><g id="Capa_3" data-name="Capa 3"><polygon class="cls-2" points="542.692 0.696 482.451 0.696 481.058 0.696 372.531 109.223 373.924 109.223 434.165 109.223 435.558 109.223 544.085 0.696 542.692 0.696"/><path class="cls-3" d="M437.331,106.866s2.02,2.24.655,3.675-1.8,1.517-2.2,1.67l7.138,2.754s2.669-1.789,3.454-3.841.962-5.08-3.227-9.269S428.9,87.54,428.9,87.54l-5.416,5.416Z" transform="translate(-9.736 -12.348)"/><polygon class="cls-3" points="457.234 37.317 451.315 43.237 451.747 55.852 451.89 55.63 445.366 49.106 439.907 54.565 455.161 69.819 460.596 64.385 453.696 57.485 453.48 57.781 465.807 59.252 472.488 52.571 457.593 51.086 457.234 37.317"/><path class="cls-3" d="M473.483,42.166c-4.825,4.825-5.153,12.32-.734,16.739s11.914,4.091,16.739-.734,5.154-12.319.734-16.739S478.308,37.341,473.483,42.166Zm11.45,11.45a4.782,4.782,0,1,1-.19-6.562A4.645,4.645,0,0,1,484.933,53.616Z" transform="translate(-9.736 -12.348)"/><path class="cls-3" d="M436.657,79.785l7.885,22.622,5.4-5.4L448.5,93.136l6.834-6.834,3.818,1.5,5.361-5.361-22.475-8.032Zm9.98,9.4-3.152-7.807,7.917,3.042Z" transform="translate(-9.736 -12.348)"/><path class="cls-3" d="M505.626,27.376a10.857,10.857,0,0,0-3.484,1.22l-.123-.123s1.125-2.275.672-3.676-1.715-3.765-4.44-3.469a9.907,9.907,0,0,0-6.146,3.1l-8.152,8.152L499.207,47.83l8.009-8.01s3.556-3.79,3.757-6.2-.384-3.512-1.534-4.662A4.487,4.487,0,0,0,505.626,27.376Zm-13.541,2.477,1.9-1.9a2.522,2.522,0,0,1,1.863-.518,2.359,2.359,0,0,1,2.192,2.192,3.572,3.572,0,0,1-1.08,2.555l-1.277,1.277ZM504.8,35.574a4.452,4.452,0,0,1-1.348,2.956l-1.512,1.512-3.926-3.927,2.254-2.254a3.067,3.067,0,0,1,2.143-.676A2.419,2.419,0,0,1,504.8,35.574Z" transform="translate(-9.736 -12.348)"/></g><g id="Capa_4" data-name="Capa 4"><path d="M368.136,112.338l8.059-6.492h-2.7c-2.833,2.284-8.447,6.859-10.265,8.356V99.288H361.3v23.125h1.931v-6.331l3.395-2.611,7.823,8.942h2.6Z" transform="translate(-9.736 -12.348)"/><path d="M131.006,98.129l-11,24.376h2.4l3.076-6.825h13.443l3.077,6.825h2.4l-11-24.376Zm-4.677,15.67,5.9-12.988,5.858,12.988Z" transform="translate(-9.736 -12.348)"/><path d="M154.841,105.207a7.129,7.129,0,0,0-6.158,3.046V105.6H146.74v16.787h1.943v-9.9a5.758,5.758,0,0,1,6.158-5.528c4.29,0,5.5,3.211,5.5,5.528v9.9h1.943v-9.9A7.031,7.031,0,0,0,154.841,105.207Z" transform="translate(-9.736 -12.348)"/><path d="M340.68,105.207a7.131,7.131,0,0,0-6.159,3.046V105.6h-1.942v16.787h1.942v-9.9a5.758,5.758,0,0,1,6.159-5.528c4.289,0,5.5,3.211,5.5,5.528v9.9h1.943v-9.9A7.031,7.031,0,0,0,340.68,105.207Z" transform="translate(-9.736 -12.348)"/><path d="M170.074,101.259h-1.755v4.3h-2.947v1.827h2.947v10.563c0,5.176,2.392,5.479,5.107,5.21v-1.793c-3.245.3-3.352-.879-3.352-3.417V107.381h3.642v-1.827h-3.642Z" transform="translate(-9.736 -12.348)"/><path d="M263.279,101.259h-1.755v4.3h-2.946v1.827h2.946v10.563c0,5.176,2.393,5.479,5.108,5.21v-1.793c-3.246.3-3.353-.879-3.353-3.417V107.381h3.643v-1.827h-3.643Z" transform="translate(-9.736 -12.348)"/><path d="M179.807,109.213V105.6h-1.788v16.787h1.788v-8.543c0-4.238,2.252-6.588,5.959-6.588v-2.053A6.757,6.757,0,0,0,179.807,109.213Z" transform="translate(-9.736 -12.348)"/><path d="M191.475,99.288a1.175,1.175,0,1,0,1.159,1.158A1.151,1.151,0,0,0,191.475,99.288Z" transform="translate(-9.736 -12.348)"/><rect x="180.845" y="93.057" width="1.788" height="16.787"/><path d="M354.889,99.288a1.175,1.175,0,1,0,1.158,1.158A1.152,1.152,0,0,0,354.889,99.288Z" transform="translate(-9.736 -12.348)"/><rect x="344.258" y="93.057" width="1.788" height="16.787"/><path d="M206.377,104.863c-4.99,0-8.664,4.211-8.664,9.18a9.063,9.063,0,0,0,9.011,9.179,9.374,9.374,0,0,0,7.675-4.552l-1.218-1.219a7.865,7.865,0,0,1-6.457,3.908,7.159,7.159,0,0,1-7.1-6.384h15.11C215.041,108.9,211.3,104.863,206.377,104.863Zm-6.758,8.247a6.885,6.885,0,0,1,6.758-6.417c3.362,0,6.03,2.587,6.446,6.417Z" transform="translate(-9.736 -12.348)"/><path d="M278.617,104.863c-4.99,0-8.663,4.211-8.663,9.18a9.063,9.063,0,0,0,9.01,9.179,9.375,9.375,0,0,0,7.676-4.552l-1.219-1.219a7.865,7.865,0,0,1-6.457,3.908,7.159,7.159,0,0,1-7.105-6.384H286.97C287.282,108.9,283.539,104.863,278.617,104.863Zm-6.758,8.247a6.886,6.886,0,0,1,6.758-6.417c3.362,0,6.03,2.587,6.447,6.417Z" transform="translate(-9.736 -12.348)"/><path d="M228.575,105.281a7.623,7.623,0,0,0-6.621,3.576V99.288h-1.788v23.177h1.788v-3.146a7.7,7.7,0,0,0,6.621,3.576,8.486,8.486,0,0,0,8.377-8.806C236.952,109.221,233.409,105.281,228.575,105.281Zm0,15.827a6.694,6.694,0,0,1-6.621-7.019c0-3.875,2.747-7.052,6.621-7.052s6.59,3.177,6.59,7.052S232.45,121.108,228.575,121.108Z" transform="translate(-9.736 -12.348)"/><path d="M249.388,113.211c-3.237-.562-5.229-1.192-5.229-3.079,0-1.754,1.784-3.111,4.358-3.111,2.2,0,4.07.738,4.447,2.624l2.176-.116c-.406-3.076-3.428-4.264-6.623-4.264-3.818,0-6.6,2.152-6.6,4.867,0,3.344,3.819,4.271,6.931,4.768,3.4.563,5.022,1.125,5.022,2.947,0,1.986-1.992,3.245-5.146,3.245-2.905,0-5.307-1.465-5.715-3.036L240.835,118c.609,2.554,3.9,4.877,7.889,4.877,5.105,0,7.345-2.516,7.345-5.032C256.069,114.436,252.375,113.708,249.388,113.211Z" transform="translate(-9.736 -12.348)"/><path d="M299.464,107.021c2.384,0,4.825.978,5.783,3.734h1.843c-.878-4.062-4.578-5.49-7.626-5.49a8.807,8.807,0,0,0,0,17.614c3.048,0,7.3-1.626,7.626-5.951h-1.843c-.283,3.135-3.4,4.164-5.783,4.164a7.036,7.036,0,0,1,0-14.071Z" transform="translate(-9.736 -12.348)"/><path d="M320.128,104.991a6.747,6.747,0,0,0-5.935,3.136V99.17H312.32v23.51h1.873V112.489a5.727,5.727,0,0,1,5.935-5.691c4.133,0,5.3,3.306,5.3,5.691V122.68h1.91V112.489C327.337,109.115,325.287,104.991,320.128,104.991Z" transform="translate(-9.736 -12.348)"/></g></svg>