<svg id="fequsa" xmlns="http://www.w3.org/2000/svg" viewBox="0 0 541.78015 190.84509"><defs><style>.cls-1{fill:#fff;}</style></defs><title>logo-fequsa</title><path class="cls-1" d="M545,109.474V99.75262q-4.99512-.83248-9.9895-1.66558-.31275-3.8108-.97925-7.51374,4.60455-2.09546,9.20886-4.18963-1.25922-4.69546-2.51636-9.39081-5.03118.48789-10.06188.97565-1.2876-3.5863-2.90528-7.00617,3.90271-3.21378,7.80664-6.42694-2.43054-4.2094-4.86072-8.419-4.73968,1.775-9.48034,3.55121-2.16431-3.11617-4.6156-6.0072,2.94378-4.121,5.88708-8.24194-3.43707-3.43689-6.874-6.87421-4.11987,2.94378-8.24194,5.887-2.88795-2.4471-6.0066-4.61584,1.77467-4.74,3.551-9.47986-4.20942-2.43072-8.41943-4.861-3.21314,3.90363-6.42725,7.80713-3.41657-1.61454-7.00635-2.90515.48854-5.03082.97559-10.06189-4.69446-1.25857-9.39026-2.516-2.09454,4.60391-4.189,9.20819-3.70036-.66513-7.515-.97925-.83148-4.99456-1.6648-9.98914-4.8607-.00045-9.72143,0-.8324,4.99456-1.66443,9.98914-3.81171.31191-7.5155.97925-2.09454-4.60447-4.189-9.20819-4.69464,1.25746-9.39026,2.51605.48872,5.03082.97559,10.06189-3.5863,1.28722-7.007,2.90515-3.2124-3.90345-6.42676-7.80713-4.20849,2.43-8.4187,4.86066,1.7754,4.74,3.551,9.47985-3.11536,2.16569-6.00733,4.61585-4.12005-2.94333-8.24194-5.88672-3.43763,3.43662-6.87378,6.87421,2.9436,4.12014,5.887,8.24164l-.03222.03991h22.80224a63.20057,63.20057,0,1,1,.03174,101.85H396.23l.01257.01556q-2.943,4.12189-5.887,8.242,3.43781,3.43781,6.87439,6.87506,4.121-2.943,8.24194-5.88764,2.88721,2.44711,6.0066,4.61621-1.7754,4.73959-3.55079,9.4798,4.20924,2.43027,8.41919,4.86066,3.21333-3.90363,6.42676-7.80713,3.41656,1.61452,7.007,2.90521-.48872,5.03129-.9762,10.06183,4.69538,1.25857,9.39087,2.51636,2.09527-4.60437,4.189-9.20819,3.70019.66466,7.51489.97924.83239,4.99411,1.66443,9.98884,4.86054,0,9.722.00061.83241-4.995,1.66431-9.98945,3.81262-.31283,7.5155-.97924,2.09364,4.60446,4.18836,9.20819,4.69555-1.25748,9.39087-2.51636-.4878-5.03037-.97559-10.06128,3.5863-1.2876,7.00635-2.90576,3.21349,3.90435,6.42676,7.80713,4.21032-2.43045,8.41919-4.86066-1.7754-4.74051-3.55078-9.47925,3.11517-2.166,6.00708-4.61676,4.12023,2.94379,8.24145,5.88764,3.43781-3.437,6.87451-6.87506-2.943-4.12015-5.88708-8.242,2.44794-2.8872,4.6156-6.00659,4.74042,1.77548,9.48034,3.55151,2.42945-4.20931,4.86072-8.41931-3.9027-3.21414-7.80664-6.42724,1.61463-3.41666,2.90528-7.00586,5.03026.487,10.06127.97564,1.25849-4.69629,2.517-9.39026-4.60437-2.09628-9.20886-4.18957.66577-3.70038.97925-7.51434Q540.00562,110.30612,545,109.474Z" transform="translate(-3.21985 -2.34332)"/><path class="cls-1" d="M465.14453,133.50635q-1.39179.89959-5.11621.90027H457.6709l-1.31445,4.29626H488.4541l1.407-4.29626h-2.16821a8.47273,8.47273,0,0,1-5.2041-1.43287,4.92367,4.92367,0,0,1-1.59265-3.69946L475.613,70.39117h-6.44556l-40.76013,57.32007a21.10623,21.10623,0,0,1-5.74744,5.21887,10.42564,10.42564,0,0,1-5.21655,1.47651l-1.31494,4.29626h25.03735l1.314-4.29626h-1.93262a6.948,6.948,0,0,1-4.62305-1.27027,4.10966,4.10966,0,0,1-1.34338-3.5321,10.92556,10.92556,0,0,1,2.22644-5.497l5.06518-7.1131h23.62818l1.07178,12.28723a8.88666,8.88666,0,0,1,.063,1.47766A3.2755,3.2755,0,0,1,465.14453,133.50635Zm-19.62231-21.638,17.39709-24.43476,2.13513,24.43476Z" transform="translate(-3.21985 -2.34332)"/><path class="cls-1" d="M410.91,128.63214a22.7948,22.7948,0,0,0,3.92688-11.73346,17.97268,17.97268,0,0,0-1.28735-8.107,15.08345,15.08345,0,0,0-4.60376-6.00482q-3.07653-2.42414-10.92871-5.39039-11.829-4.39929-14.1189-6.61462a7.46874,7.46874,0,0,1-2.08569-6.0885,11.328,11.328,0,0,1,4.31458-8.39484A15.657,15.657,0,0,1,396.4906,72.9314a15.18637,15.18637,0,0,1,8.63672,2.49389,14.93218,14.93218,0,0,1,5.56409,7.02094q1.83123,4.52746,1.57373,12.88635h4.14953L423.051,71.73029h-4.1023l-5.64661,4.20288a27.25426,27.25426,0,0,0-8.47473-5.496,26.20032,26.20032,0,0,0-9.52929-1.663q-10.46559,0-17.39948,6.23559A22.05948,22.05948,0,0,0,370.45093,90.852a17.60489,17.60489,0,0,0,1.15893,7.87543,13.46522,13.46522,0,0,0,4.25617,5.49585q2.851,2.19516,11.394,5.56646,10.98413,4.38795,12.74561,5.86585a8.02336,8.02336,0,0,1,2.9718,7.02057,12.30424,12.30424,0,0,1-4.91785,9.098,17.88532,17.88532,0,0,1-11.7063,3.78717,19.56526,19.56526,0,0,1-10.27991-2.60883,15.42827,15.42827,0,0,1-6.37066-7.39q-2.02908-4.78025-1.62262-13.27942h-4.19489l-6.7337,24.52619h4.33691l4.14014-4.24915a29.427,29.427,0,0,0,9.42737,5.7727A37.169,37.169,0,0,0,400.939,136.9942,24.37866,24.37866,0,0,0,410.91,128.63214Z" transform="translate(-3.21985 -2.34332)"/><path class="cls-1" d="M364.76245,70.39117H339.96356l-1.45465,4.296a15.08162,15.08162,0,0,1,5.57007.74176,5.21134,5.21134,0,0,1,2.54517,2.22705,7.38194,7.38194,0,0,1,.70294,4.03559,13.13746,13.13746,0,0,1-.65167,3.38769l-10.59333,32.46936q-2.81121,8.63792-8.35742,13.11847a19.99387,19.99387,0,0,1-12.9494,4.4795q-6.79083,0-10.63049-3.608-3.83643-3.61111-3.51148-9.72491a32.72046,32.72046,0,0,1,1.71393-7.8902L313.849,78.11609q1.126-3.42939,5.03985-3.429h5.091l1.40875-4.296h-34.614l-1.40747,4.296h5.70379a5.84358,5.84358,0,0,1,3.2876.67633,2.10588,2.10588,0,0,1,.8631,1.94074,4.66648,4.66648,0,0,1-.25629,1.26172l-10.96747,33.57873a36.90877,36.90877,0,0,0-1.8294,9.3302,15.33073,15.33073,0,0,0,5.93066,13.37067q6.3675,5.19654,18.95136,5.19653a34.32423,34.32423,0,0,0,13.80194-2.54821,27.62757,27.62757,0,0,0,9.93231-7.25745,35.97621,35.97621,0,0,0,6.6582-12.57526l11.23261-34.59808a11.77264,11.77264,0,0,1,3.81433-6.0788,12.1123,12.1123,0,0,1,7.00647-2.29712Z" transform="translate(-3.21985 -2.34332)"/><path class="cls-1" d="M246.72571,68.77411a46.57281,46.57281,0,0,0-39.487,21.63946,44.6525,44.6525,0,0,0-7.14374,22.00861q-.65973,12.33114,6.78137,19.977,7.44041,7.64375,20.02869,7.64282,1.319,0,3.3783-.13672,2.05828-.13869,4.85156-.36584a48.89382,48.89382,0,0,0-.70551,5.26367q-.31073,5.81781,2.60944,8.95831,2.91906,3.13743,8.71942,3.13916a16.42862,16.42862,0,0,0,9.9129-2.88635,14.74047,14.74047,0,0,0,5.48224-8.19836l-2.74914-.59979a11.25689,11.25689,0,0,1-2.55872,4.225,4.29786,4.29786,0,0,1-2.86578,1.13184,3.93286,3.93286,0,0,1-3.5221-2.46338q-1.307-2.46387-1.75976-12.5011a50.16074,50.16074,0,0,0,13.82318-9.845,45.32072,45.32072,0,0,0,8.979-13.33478,43.58352,43.58352,0,0,0,3.77887-15.46045q.677-12.66256-6.88086-20.42816Q259.83921,68.7749,246.72571,68.77411Zm-9.12689,58.19708a41.36634,41.36634,0,0,1-1.27643,7.11255,21.25283,21.25283,0,0,1-3.99164,1.24725,20.20837,20.20837,0,0,1-4.08862.41651,13.02325,13.02325,0,0,1-6.08966-1.29315,9.50833,9.50833,0,0,1-2.03675-6.74372,10.49136,10.49136,0,0,1,10.20893-9.792,6.79835,6.79835,0,0,1,5.46685,2.402A9.182,9.182,0,0,1,237.59882,126.97119Zm21.71753-37.62811a68.03727,68.03727,0,0,1-3.885,18.44409,74.80108,74.80108,0,0,1-9.10389,18.16718q-1.088-6.09623-4.826-9.306a14.53977,14.53977,0,0,0-9.8153-3.20923,16.21442,16.21442,0,0,0-10.642,3.43957,15.21915,15.21915,0,0,0-5.26276,9.44568,32.95961,32.95961,0,0,1-.47955-8.22839,66.81362,66.81362,0,0,1,6.30975-24.54737q5.11469-11.00015,12.03827-16.18011A20.302,20.302,0,0,1,246.146,72.9314a12.22967,12.22967,0,0,1,9.9234,4.3919Q259.72556,81.71573,259.31635,89.34308Z" transform="translate(-3.21985 -2.34332)"/><path class="cls-1" d="M137.13678,74.77905h6.78876a4.83628,4.83628,0,0,1,3.00305.71582,2.27461,2.27461,0,0,1,.81158,2.0094,5.781,5.781,0,0,1-.26275,1.38568l-16.98975,52.09943a4.66872,4.66872,0,0,1-4.89715,3.41724h-3.58307l-1.50269,4.29626H181.199l8.75744-23.60174h-4.28973q-4.68393,10.04571-11.60376,14.67694-6.91983,4.62909-16.68982,4.62854H150.081a6.7766,6.7766,0,0,1-3.74987-.74414,2.362,2.362,0,0,1-.95472-2.18885,6.31111,6.31111,0,0,1,.31665-1.64373l7.87873-24.2439h3.8432a9.719,9.719,0,0,1,6.79022,2.19409,7.46482,7.46482,0,0,1,2.18854,6.2594,40.64647,40.64647,0,0,1-1.00519,6.465h4.10156L179.536,89.55994h-4.14825q-3.01858,6.60425-6.84064,9.214-3.82142,2.60888-9.97473,2.60833h-3.63458l7.38793-22.71972q1.37467-3.88286,5.02356-3.88349h10.65052a11.49424,11.49424,0,0,1,8.47412,3.20185,10.54051,10.54051,0,0,1,2.94085,8.45343,37.45159,37.45159,0,0,1-1.08178,6.12683h4.29034l6.324-22.17h-60.3974Z" transform="translate(-3.21985 -2.34332)"/><path class="cls-1" d="M117.1842,86.30463c-5.79425,0-10.27874,5.233-13.33862,15.55975-1.59808-.37469-3.45636-.82776-5.62567-1.37219,6.29028-18.01129,12.19617-32.0401,17.55939-41.709,5.29553-9.54577,11.14746-16.80231,17.40008-21.579C146.56805,41.5802,158.077,43.799,167.39355,43.799c7.35761,0,13.754-1.47119,19.01172-4.37256,5.492-3.031,8.27643-6.8247,8.27643-11.27557,0-3.87824-2.058-7.01117-6.11682-9.31159-3.83783-2.17523-8.9115-3.27819-15.08044-3.27819-10.17945,0-21.19965,3.49823-32.76307,10.39923-14.51666-5.406-23.843-8.723-27.728-9.86133a46.92732,46.92732,0,0,0-13.14478-1.76129,54.31337,54.31337,0,0,0-18.64612,2.97381c-4.5437-9.93347-11.76934-14.9682-21.491-14.9682-11.14661,0-22.01593,7.588-32.30707,22.55384-6.00159,8.736-6.77136,11.23346-6.77136,12.43328l.01977.21741c.31342,1.71185,1.46643,1.845,1.81226,1.845.79126,0,1.11236-.46106,2.50049-2.63922l.04828-.08276C35.56573,16.79333,47.42371,6.71466,60.25854,6.71466c7.36084,0,12.78626,3.90064,16.55433,11.91547C64.49622,23.10339,53.19293,33.18121,43.199,48.60669c-10.31025,15.91443-15.538,31.88605-15.538,47.47052,0,6.97467,1.40314,12.73029,4.16986,17.10638,2.8758,4.55463,6.71308,6.86414,11.405,6.86414,10.52026,0,20.4502-8.15326,29.51373-24.23358A102.52284,102.52284,0,0,0,86.219,44.91754a75.62871,75.62871,0,0,0-2.9638-21.82471c.92175-.06689,1.8753-.10046,2.84985-.10046,7.50751,0,18.2829,2.85217,32.02124,8.47492,3.55066,1.47619,7.03827,2.82983,10.39716,4.03613C114.24158,46.39813,100.421,67.4231,87.41388,98.05334H85.94916c-3.59131,0-7.01557,1.57807-10.17822,4.691-3.16626,3.11939-4.77173,6.5177-4.77173,10.10077,0,1.61286.98657,2.18524,1.83111,2.18524,1.40253,0,1.82324-1.72363,2.02442-2.60119,2.03735-6.35126,5.51233-9.506,10.616-9.63269-1.26318,3.04779-2.26068,5.3977-2.97827,7.01617-9.58966,23.11121-18.5086,39.578-26.509,48.94232-7.84247,9.17878-16.75549,13.83319-26.491,13.83319a20.4961,20.4961,0,0,1-15.6361-6.89978A23.68053,23.68053,0,0,1,7.35138,148.9505v-.0907a4.54465,4.54465,0,0,0,4.57172,3.4997c1.964,0,3.61547-1.1283,4.90869-3.35474a14.05435,14.05435,0,0,0,1.76367-7.15259c0-7.77472-3.45844-9.40674-6.3598-9.40674-2.60681,0-4.81769,1.678-6.571,4.98615a23.35293,23.35293,0,0,0-2.44476,11.02936c0,8.44873,2.66363,15.4646,7.917,20.85321,5.26129,5.39917,12.09393,8.13647,20.30823,8.13647,13.723,0,27.15942-7.13312,39.93622-21.20257a76.89407,76.89407,0,0,0,11.462-16.16693c2.795-5.40509,6.48181-14.5149,10.95954-27.08136q1.75379-4.98533,2.80444-7.94086l.443.14343c2.17762.558,3.94074.9707,5.34,1.24878-4.29773,15.12763-7.76147,19.56818-9.92615,20.601a2.24847,2.24847,0,0,0-1.47467,2.07038c0,.89551.60242,1.94134,2.30011,1.94134,2.56324,0,5.12787-1.78106,7.84076-5.44543a37.4966,37.4966,0,0,0,5.81336-12.441c.9309-3.25079,1.40753-4.84009,1.65027-5.61249h.70349a15.12452,15.12452,0,0,0,10.53289-3.67908,12.47713,12.47713,0,0,0,4.1048-9.64447C123.93524,87.33569,119.70557,86.30463,117.1842,86.30463Zm57.394-66.00452a24.5502,24.5502,0,0,1,11.726,2.60919c3.01538,1.62372,4.48126,3.41809,4.48126,5.48578,0,1.76721-1.19043,3.35211-3.63879,4.84534a17.43729,17.43729,0,0,1-9.21143,2.39294c-7.16522,0-15.1441-1.58166-23.72863-4.70544L146.112,28.08783A54.848,54.848,0,0,1,174.57825,20.30011ZM67.932,90.32306c-8.482,16.49866-17.10633,24.864-25.63343,24.864-3.00128,0-5.482-1.76458-7.58471-5.39416a27.5526,27.5526,0,0,1-3.31238-13.9596c0-15.02447,5.21216-30.384,15.49145-45.65179C56.806,35.45483,67.50537,26.67175,78.71057,24.057a54.351,54.351,0,0,1,2.20587,15.10876C80.91644,56.35132,76.54773,73.56317,67.932,90.32306Zm49.4461,10.09845a10.65642,10.65642,0,0,1-7.22241,2.40527h-.35553l.18878-.66577c2.18585-7.67456,4.782-11.731,7.50726-11.731.85016,0,2.61945,0,2.61945,4.05707A7.38634,7.38634,0,0,1,117.37805,100.42151Z" transform="translate(-3.21985 -2.34332)"/></svg>