<svg id="Capa_1" data-name="Capa 1" xmlns="http://www.w3.org/2000/svg" viewBox="0 0 175.355 115.963"><defs><style>.cls-1{fill:#2c2926;}.cls-2{fill:#fefefe;}.cls-3{fill:#02953a;}.cls-4{fill:#fefefd;}.cls-5{fill:#faf8f3;}.cls-6{fill:#fbf8f5;}.cls-7{fill:#2d2926;}.cls-8{fill:#2e2926;}.cls-9{fill:#2d2a27;}.cls-10{fill:#2c2825;}.cls-11{fill:#2d2a28;}.cls-12{fill:#2d2927;}.cls-13{fill:#2c2927;}.cls-14{fill:#2e2925;}.cls-15{fill:#2f2b29;}.cls-16{fill:#2d2a24;}.cls-17{fill:#2f2925;}.cls-18{fill:#fdfdfd;}.cls-19{fill:#fbfaf8;}.cls-20{fill:#faf8f6;}</style></defs><title>stm</title><path class="cls-1" d="M46.814,77.781C40.044,65.213,39.033,52.16,43.2,38.735A48.24,48.24,0,0,1,57.427,16.782,49.758,49.758,0,0,1,93.722,3.813a49.071,49.071,0,0,1,26.756,9.158,50.252,50.252,0,0,1,15.852,18.17,50.76,50.76,0,0,1-.13,46.64c1.846,0,3.59.037,5.33-.018.677-.022.791.207.785.818-.031,2.932-.014,5.865-.014,8.8,0,1.095,0,1.094,1.056,1.094q17.307,0,34.614-.021c.8,0,1.035.157,1.029,1.006-.044,6.275-.037,12.551-.011,18.827,0,.62-.147.757-.757.756-11.7-.02-23.4-.008-35.106-.031-.68,0-.853.153-.843.839.042,3.014-.008,6.029.036,9.043.01.7-.2.838-.863.838q-50.112-.025-100.223,0c-.7,0-.923-.127-.911-.876.049-3.014,0-6.029.035-9.043.008-.636-.149-.8-.8-.8-11.675.021-23.35.008-35.025.032-.709,0-.9-.148-.892-.878q.051-9.454,0-18.91c0-.663.186-.8.815-.8q17.348.028,34.7.015c1.182,0,1.182,0,1.182-1.213,0-2.878.021-5.756-.016-8.633-.009-.654.107-.887.826-.864C43,77.821,44.859,77.781,46.814,77.781Z" transform="translate(-3.645 -3.767)"/><path class="cls-2" d="M73.163,28.742c-1.279-.976-2.395-2.162-4.043-2.53A2.067,2.067,0,0,0,66.809,27.9a4.67,4.67,0,0,0,.778,2.893c.3.5.541,1.039.879,1.51.5.694-.354.839-.486,1.277-.119.395-.445.146-.7.025a8.156,8.156,0,0,0-3.847-1.226,1.971,1.971,0,0,0-1.934,2.669,7.367,7.367,0,0,0,2.283,3.067,1,1,0,0,1,.194,1.484c-.315.552-.714.3-1.155.258-1.129-.113-2.209-.6-3.406-.258a2.091,2.091,0,0,0-1.076,3.647,9.493,9.493,0,0,0,2.952,2.063c.652.331.282.713.231,1.048-.047.3-.067.684-.646.7a15.34,15.34,0,0,0-3.21.338,2.034,2.034,0,0,0-1.867,2.373,3.021,3.021,0,0,0,1.992,2.2c.822.282,1.638.595,2.478.807.791.2.358.788.461,1.2.111.438-.228.543-.548.617a12.36,12.36,0,0,0-2.92.99A2.4,2.4,0,0,0,55.8,57.887a2.362,2.362,0,0,0,1.907,1.96,10.009,10.009,0,0,0,3.131.327c.623-.064.745.326.835.741.079.363.274.727-.28,1.041a9.9,9.9,0,0,0-2.941,2.069,1.961,1.961,0,0,0-.523,2.111,2.144,2.144,0,0,0,1.707,1.483,10.587,10.587,0,0,0,3.737-.3c.381-.046.686-.144.833.326.131.418.689.745.067,1.279A14.088,14.088,0,0,0,62.2,71.117a2.569,2.569,0,0,0-.4,2.371A2.14,2.14,0,0,0,64.5,74.761a12.232,12.232,0,0,0,3.1-1.168c.6-.343.742.075,1.031.332a.662.662,0,0,1,.165.979,12.018,12.018,0,0,0-1.571,3.018A2.189,2.189,0,0,0,68.6,80.8a2.672,2.672,0,0,0,2.327-.5,18.947,18.947,0,0,0,2.348-1.666c.549-.436.73.165,1.084.285a.5.5,0,0,1,.33.715,14.547,14.547,0,0,0-.79,2.656c-.037.227-.143.258-.32.256s-.384,0-.576,0q-12.374,0-24.748-.017c-.675,0-.884.144-.856.843.06,1.505,0,3.014.03,4.521.009.467-.125.595-.588.584q-2.053-.047-4.11,0c-.477.01-.588-.149-.585-.6q.027-3.864,0-7.728c0-.481.167-.573.612-.568,2.356.022,4.712.01,7.2.01-.485-.925-.921-1.786-1.383-2.633a50.347,50.347,0,0,1-5.129-13.749A47.665,47.665,0,0,1,42.69,50.89,44.177,44.177,0,0,1,45.5,37.72,49.425,49.425,0,0,1,52.066,25.5a47.224,47.224,0,0,1,6.082-6.849,50.387,50.387,0,0,1,9.79-7.06A49.421,49.421,0,0,1,81.215,6.64a43.7,43.7,0,0,1,6.718-.926c1.472-.091,2.94-.141,4.408-.118a49.081,49.081,0,0,1,7.563.782,48.065,48.065,0,0,1,21.225,9.385,46.108,46.108,0,0,1,6.22,5.734,49.718,49.718,0,0,1,8.788,13.66,48.735,48.735,0,0,1,3.157,10.348,29.945,29.945,0,0,1,.7,6.593c-.027.792.208,1.553.181,2.351a49.652,49.652,0,0,1-3.541,17.75,59.4,59.4,0,0,1-3.149,6.6c-.419.732-.36.8.472.8,1.974,0,3.947.022,5.92-.016.525-.01.634.148.63.636q-.034,3.822-.007,7.646c0,.427-.055.634-.564.621q-2.1-.052-4.192,0c-.473.013-.526-.174-.521-.566.018-1.48-.032-2.962.024-4.439.027-.725-.142-.952-.918-.949-8.057.032-16.115.013-24.172.029-.622,0-.928-.013-.951-.824a8.977,8.977,0,0,0-.652-2.537c-.269-.79.592-.649.809-1.055.16-.3.458.01.694.194,1.1.855,2.062,1.919,3.6,2.1a2.037,2.037,0,0,0,2.267-2.646,11.256,11.256,0,0,0-1.613-3.272c-.157-.236-.518-.529-.084-.812.394-.257.524-1.044,1.277-.621a11.858,11.858,0,0,0,2.85,1.2,2.247,2.247,0,0,0,2.612-.882,2.572,2.572,0,0,0-.068-2.493,12.031,12.031,0,0,0-2.251-2.542.633.633,0,0,1-.11-.956c.226-.343.251-.861.923-.664a12.048,12.048,0,0,0,3.524.361,1.869,1.869,0,0,0,1.855-1.127,2.116,2.116,0,0,0-.266-2.257,10.535,10.535,0,0,0-3.1-2.342.807.807,0,0,1-.364-.955c.051-.367.159-.741.647-.839a9.736,9.736,0,0,1,1.714-.056,7,7,0,0,0,2.315-.521,2.17,2.17,0,0,0,.238-3.606,10.142,10.142,0,0,0-3.116-1.328c-.532-.111-1.088-.22-1.04-1.113.046-.853.609-.846,1.093-.98a10.138,10.138,0,0,0,2.92-1.178,1.971,1.971,0,0,0,.958-1.994,2.052,2.052,0,0,0-1.451-1.8,8.265,8.265,0,0,0-3.069-.48c-1.033.024-1.395-.351-1.527-1.357-.043-.324.185-.3.311-.364a13.305,13.305,0,0,0,2.543-1.611c1.393-1.126,1.694-2.666.257-3.775a3.616,3.616,0,0,0-2.653-.434c-.76.073-1.5.343-2.259.449-.727.1-.6-.716-.956-1.039-.244-.22.066-.414.293-.6a9.357,9.357,0,0,0,2.272-2.608,2.127,2.127,0,0,0-.17-2.619,2.327,2.327,0,0,0-2.5-.574,9.605,9.605,0,0,0-2.738,1.057c-.682.386-.947-.119-1.374-.434-.529-.389-.1-.66.053-.934a15.565,15.565,0,0,0,1.478-2.808,2.228,2.228,0,0,0-.539-2.512,2.187,2.187,0,0,0-2.529-.245,10.473,10.473,0,0,0-2.843,1.917c-.623.556-.843-.112-1.231-.24-.362-.119-.432-.374-.283-.773a9.711,9.711,0,0,0,.834-3.226c.016-.95-.106-1.868-1.156-2.27a2.5,2.5,0,0,0-2.756.545,11.786,11.786,0,0,0-1.689,1.967,1.213,1.213,0,0,1-1.861.436c-.2-.123-.123-.268-.128-.456a17.389,17.389,0,0,0-.134-3.988,1.75,1.75,0,0,0-1.381-1.426,2.273,2.273,0,0,0-2.311.721,11.032,11.032,0,0,0-1.718,3.14c-.2.495-.477.661-.884.528-.371-.121-.915.064-.987-.722a8.612,8.612,0,0,0-.9-3.448A2.061,2.061,0,0,0,90.738,17.6a2.2,2.2,0,0,0-1.88,1.534,15.026,15.026,0,0,0-.821,3.4c-.036.245,0,.6-.356.453-.374-.153-.851.5-1.144-.238a13.476,13.476,0,0,0-1.532-3.047A2.289,2.289,0,0,0,82.773,18.6c-1.042.131-1.608.886-1.82,2.044a6.771,6.771,0,0,0-.013,2.8,1.315,1.315,0,0,1-1.285,1.619c-.273.03-.186-.189-.271-.276-.779-.8-1.32-1.785-2.186-2.528a2.236,2.236,0,0,0-2.932-.351,2.907,2.907,0,0,0-.82,2.88c.19.715.373,1.435.618,2.131s.233,1.223-.563,1.51C73.363,28.483,73.266,28.644,73.163,28.742Z" transform="translate(-3.645 -3.767)"/><path class="cls-3" d="M99.544,22.7a10.081,10.081,0,0,1-.139,2.22c-.11.415.109.669.5.812a9.285,9.285,0,0,1,2.465.967c.59.424,1.14-.227,1.37-.69.571-1.146,1.648-1.8,2.423-2.745.117-.142.3-.526.66-.213a.62.62,0,0,1,.237.717,22.627,22.627,0,0,1-1.174,4.117c-.217.41.173.613.46.726a10.476,10.476,0,0,1,2.163,1.407c.447.316.775.413,1.242-.082a11.137,11.137,0,0,1,3.275-2.32c.293-.142.466-.176.717.052.269.244.09.4-.013.621a16.149,16.149,0,0,1-1.869,3.424.936.936,0,0,0,.167,1.431,17.348,17.348,0,0,1,1.692,1.777.711.711,0,0,0,1.048.137,12.722,12.722,0,0,1,3.581-1.457.75.75,0,0,1,.825.19c.252.326-.068.548-.229.782a16.393,16.393,0,0,1-2.235,2.466c-.864.836-.923.892-.264,1.9a10.161,10.161,0,0,1,.945,1.719.917.917,0,0,0,1.333.544,17.523,17.523,0,0,1,3.267-.583c.439-.094.959-.044,1.124.429.132.378-.317.613-.59.8a14.319,14.319,0,0,1-2.8,1.767c-.8.306-.846.634-.61,1.479a7.909,7.909,0,0,1,.493,2.216c-.008.534.237.73.756.7a15.905,15.905,0,0,1,4.12.479.8.8,0,0,1,.672.609c.095.4-.318.341-.537.461a13.094,13.094,0,0,1-3.757,1.263c-.411.083-.631.274-.6.721.023.327,0,.657,0,.986,0,2.687,0,2.669,2.644,3.23a9,9,0,0,1,2.08.955c.263.132.245.353.2.561-.073.321-.356.39-.635.421a28.309,28.309,0,0,1-3.908.334c-.593-.017-.817.21-.894.784-.121.886-.31,1.764-.509,2.636a.469.469,0,0,0,.286.626c.869.494,1.691,1.069,2.561,1.562a4.016,4.016,0,0,1,1.09,1.084c.342.426-.075.68-.516.709a9.834,9.834,0,0,1-2.924-.292c-.373-.088-.746-.174-1.113-.28a.636.636,0,0,0-.871.391,14.809,14.809,0,0,1-1.293,2.587c-.277.5.059.744.3.98a22.762,22.762,0,0,1,2.606,2.8.841.841,0,0,1,.206.816c-.129.361-.427.09-.64.085-1.464-.032-2.624-.9-3.887-1.472-.367-.167-.539-.205-.8.137a12.2,12.2,0,0,1-1.7,1.953c-.709.592-.463,1.114-.05,1.6a9.736,9.736,0,0,1,1.7,3.219c.091.261.28.539.008.741a.763.763,0,0,1-.78-.047,13.384,13.384,0,0,1-3.276-2.392c-.386-.351-.6-.322-1.018-.048a25.59,25.59,0,0,1-2.223,1.632c-.816.425-.175,1.133-.044,1.561a12.9,12.9,0,0,1,.754,3.573c0,.17.227.368-.035.5a.536.536,0,0,1-.614-.115,13.166,13.166,0,0,1-1.806-1.774c-.126-.178-.236-.367-.367-.541-.345-.457-.611-1.074-1.072-1.315-.487-.255-.946.4-1.46.542a5.414,5.414,0,0,0-.948.219c-.759.372-1.467.679-1.163,1.879a12.76,12.76,0,0,1,.048,3.112c0,.394-.059.812-.489.947s-.524-.328-.69-.57a16.152,16.152,0,0,1-1.722-3.5c-.153-.41-.344-.527-.7-.475-1.023.152-2.053.279-3.06.5-.546.123-.531.7-.565,1.142a21.9,21.9,0,0,1-.735,3.255c-.056.237-.183.663-.61.665s-.5-.361-.618-.661a11.6,11.6,0,0,1-.671-3.324c-.06-.7-.274-1.181-1.084-1.212-.542-.02-1.081-.133-1.623-.186-1.4-.137-1.785.225-2.228,1.67a7.11,7.11,0,0,1-1.512,2.679c-.363.4-.677.268-.783-.273a6.405,6.405,0,0,1-.056-2.511c.388-2.017-.216-2.831-2.258-3.227-.211-.041-.432,0-.625-.152-.581-.46-1-.076-1.287.356a12.413,12.413,0,0,1-2.293,2.815.852.852,0,0,1-.8.248c-.372-.1-.287-.448-.253-.691a9.535,9.535,0,0,1,1.085-3.809c.3-.481.174-.707-.2-.915a20.528,20.528,0,0,1-2.5-1.669c-.318-.244-.6-.127-.877.122a20.3,20.3,0,0,1-3,2.187,1.041,1.041,0,0,1-1.084.124c-.381-.238-.135-.648,0-.965a16.937,16.937,0,0,1,1.828-3.177c.313-.444.453-.747-.106-1.184a11.291,11.291,0,0,1-1.74-1.827.725.725,0,0,0-1.059-.222,18,18,0,0,1-3.408,1.376c-.368.122-.768.3-1.066-.022-.339-.369.09-.637.259-.92a9.9,9.9,0,0,1,2.545-2.715.776.776,0,0,0,.144-1.3,7.9,7.9,0,0,1-1.02-1.84,1.025,1.025,0,0,0-1.417-.689,10.339,10.339,0,0,1-3.731.394c-.267-.013-.589.062-.715-.261s.188-.5.373-.665a16.569,16.569,0,0,1,3.2-2.1c.5-.271.715-.489.53-1.131a11.625,11.625,0,0,1-.6-2.369c-.034-.469-.281-.67-.837-.746a23.138,23.138,0,0,1-3.966-.477c-.261-.083-.68-.035-.7-.438-.022-.422.351-.534.668-.713A17.482,17.482,0,0,1,61.9,55.779c.368-.11.486-.25.482-.606-.013-1.042-.016-2.083.005-3.124.008-.424-.156-.539-.57-.588A13.35,13.35,0,0,1,58,50.149a.736.736,0,0,1-.532-.66c.012-.4.385-.336.619-.408a10.516,10.516,0,0,1,3.8-.351c.587.037.833-.125.926-.614.178-.934.491-1.835.629-2.783a.861.861,0,0,0-.519-1,14.386,14.386,0,0,1-2.8-1.763,5.563,5.563,0,0,1-.508-.408.745.745,0,0,1-.269-.731c.094-.281.427-.138.657-.157a9.787,9.787,0,0,1,3.859.56.8.8,0,0,0,1.16-.534,21.34,21.34,0,0,1,1.1-2.256c.287-.541.3-.9-.318-1.273a3.4,3.4,0,0,1-1.558-1.7c-.148-.4-.592-.694-.923-1.016a.689.689,0,0,1-.2-.884c.163-.264.5-.152.764-.095a11.907,11.907,0,0,1,3.464,1.4c.6.349,1.088.336,1.447-.311.426-.768,1.215-1.232,1.644-2a.678.678,0,0,0-.015-.8c-.584-.978-1.113-1.99-1.662-2.988a.363.363,0,0,1-.038-.073c-.139-.461-.481-.978-.045-1.383s.729.189,1.041.364a10.39,10.39,0,0,1,2.473,1.859,1.088,1.088,0,0,0,1.6.206c.7-.513,1.374-1.062,2.081-1.565A.62.62,0,0,0,76.152,28a14.425,14.425,0,0,1-1.022-4.083c-.02-.25-.138-.5.134-.653.287-.165.492.014.723.194a15.235,15.235,0,0,1,2.776,3.286c.158.217.242.451.544.3a16.021,16.021,0,0,1,3.224-1.269c.3-.079.213-.331.171-.546a11.4,11.4,0,0,1-.1-4.306c.05-.273.073-.567.392-.655.373-.1.583.2.706.44a15.84,15.84,0,0,1,1.721,3.856c.058.286.186.39.518.338,1.02-.161,2.048-.279,3.074-.394.452-.05.476-.349.509-.7a11.1,11.1,0,0,1,.821-3.734c.147-.315.173-.855.673-.794.479.059.534.558.623.948a17.432,17.432,0,0,1,.673,3.853c0,.321.193.434.479.422a16.861,16.861,0,0,1,3.172.254c.474.071.606-.326.719-.645a13.785,13.785,0,0,1,1.827-3.546.654.654,0,0,1,.735-.322c.343.057.292.352.3.587C99.551,21.4,99.544,21.977,99.544,22.7Z" transform="translate(-3.645 -3.767)"/><path class="cls-2" d="M91.315,112.971q-20.595,0-41.191.02c-.77,0-.921-.218-.92-.939q.038-13.443,0-26.885c0-.716.21-.827.863-.825,7.728.024,15.457.015,23.185.017.372,0,.732-.057,1.042.3a1.924,1.924,0,0,0,2.884.321,3.239,3.239,0,0,1,2.341-.625c.548.008,1.209-.177,1.613.066.419.253.045.969.166,1.459.216.876.377,1.8,1.373,2.208a2.468,2.468,0,0,0,3.05-1.251,12.26,12.26,0,0,0,.8-1.539,1.62,1.62,0,0,1,2.11-.943c.224.069.206.2.222.363a11.031,11.031,0,0,0,.636,2.722,2.2,2.2,0,0,0,1.9,1.687,2.123,2.123,0,0,0,2.371-1.619,19.561,19.561,0,0,0,.653-2.7c.062-.353.142-.44.483-.459,1.447-.078,1.406-.073,2.04,1.37a5.5,5.5,0,0,0,1.093,1.668,2.149,2.149,0,0,0,3.793-1.5c.144-1.52.1-1.52,1.626-1.526a4.626,4.626,0,0,1,3.012.635,1.72,1.72,0,0,0,2.159-.29,1.424,1.424,0,0,1,1.025-.346q11.511,0,23.021-.012c.6,0,.768.129.766.754q-.035,13.524,0,27.049c0,.69-.18.842-.85.841Q111.951,112.956,91.315,112.971Z" transform="translate(-3.645 -3.767)"/><path class="cls-2" d="M156.206,107.217c-6.712,0-13.423-.011-20.135.016-.672,0-.863-.144-.858-.841q.048-7.683,0-15.368c0-.6.134-.762.756-.761q20.217.03,40.433,0c.585,0,.78.1.776.746q-.047,7.725,0,15.45c0,.611-.139.772-.758.77C169.684,107.208,162.945,107.217,156.206,107.217Z" transform="translate(-3.645 -3.767)"/><path class="cls-2" d="M26.444,90.278c6.739,0,13.478.009,20.217-.014.6,0,.771.125.768.75q-.044,7.725,0,15.45c0,.61-.143.768-.763.767q-20.216-.028-40.433,0c-.6,0-.773-.128-.77-.758q.045-7.725,0-15.451c0-.623.159-.76.764-.758C12.966,90.287,19.7,90.278,26.444,90.278Z" transform="translate(-3.645 -3.767)"/><path class="cls-4" d="M91.33,117.905q-24.129,0-48.257.016c-.726,0-.962-.143-.944-.919.058-2.437.039-4.877.008-7.316-.007-.547.154-.687.684-.672,1.287.038,2.578.055,3.863-.006.659-.031.758.211.741.789-.039,1.4.018,2.8-.026,4.192-.02.622.119.815.8.813,8.714-.029,17.428-.021,26.142-.021q30.007,0,60.014.019c.712,0,.934-.134.9-.877-.067-1.449,0-2.9-.029-4.356-.008-.436.126-.558.555-.551,1.4.026,2.8.02,4.193,0,.364,0,.535.058.532.484q-.025,3.947,0,7.892c0,.384-.1.549-.5.516-.381-.031-.767-.007-1.15-.007Z" transform="translate(-3.645 -3.767)"/><path class="cls-5" d="M103.742,82.548c-.475,0-.935.014-1.393-.008-.161-.008-.433.125-.468-.155-.026-.212.206-.27.377-.359C103.157,81.561,103.217,81.576,103.742,82.548Z" transform="translate(-3.645 -3.767)"/><path class="cls-6" d="M81.53,82.531H79.765C79.99,81.748,80.183,81.736,81.53,82.531Z" transform="translate(-3.645 -3.767)"/><path class="cls-7" d="M57,30.43c-.753-1.174-1.4-2.277-2.148-3.307-.374-.517-.13-.828.119-1.213.309-.475.6-.132.88.021,1.8.975,3.585,1.967,5.39,2.926.36.192.393.318.169.661-.606.923-.585.933-1.545.4-.776-.434-1.557-.861-2.555-1.413.756,1.206,1.381,2.2,2.007,3.2.115.183.446.306.131.592a.584.584,0,0,1-.7.186c-1.106-.4-2.24-.724-3.4-1.025.792.727,1.379,1.62,2.132,2.357.728.713-.2.944-.383,1.375-.1.238-.191.213-.637-.248q-2.1-2.169-4.183-4.358c-.172-.181-.614-.319-.29-.695.277-.322.479-.8,1.078-.6.825.274,1.658.525,2.492.773C55.978,30.181,56.411,30.279,57,30.43Z" transform="translate(-3.645 -3.767)"/><path class="cls-8" d="M97.523,12.717c-.345,1.166-.769,2.1-.981,3.118-.034.165.029.633-.391.591a7.126,7.126,0,0,1-1.336-.253c-.1-.031.012-.28.066-.436.671-1.92,1.368-3.833,1.958-5.777.18-.6.5-.563.941-.608.569-.057.527.412.589.68.272,1.163.477,2.343.714,3.515.014.069.1.123.2.252.588-1.047,1.158-2.066,1.732-3.082.2-.356.34-.763.9-.707.515.05.765.213.758.79-.027,2.069-.3,4.131-.171,6.2.025.4-.169.468-.489.42-.673-.1-1.141-.293-1.023-1.18a23.481,23.481,0,0,0,.025-2.9l-1.7,3.069c-.156.283-.271.6-.71.525s-.346-.381-.4-.674C98.018,15.137,97.782,14.018,97.523,12.717Z" transform="translate(-3.645 -3.767)"/><path class="cls-1" d="M127.342,30.843c-1.21.625-2.333,1.146-3.391,1.775-.516.307-.73.121-.842-.3-.095-.358-.783-.725.053-1.139,1.786-.883,3.525-1.863,5.29-2.789.228-.12.515-.481.747-.1.2.324.556.612.3,1.138-.751,1.547-1.437,3.125-2.145,4.692-.019.041.01.1.025.215,1.091-.558,2.2-1.039,3.223-1.68.234-.147.6-.544.767.087.115.446.89.888-.037,1.36-1.727.88-3.419,1.829-5.14,2.72-.209.109-.495.523-.714.167-.209-.341-.595-.662-.329-1.222C125.894,34.194,126.571,32.589,127.342,30.843Z" transform="translate(-3.645 -3.767)"/><path class="cls-7" d="M86.605,13.752c-.261-1.449-.49-2.677-.7-3.909-.062-.363-.08-.738.5-.639a.937.937,0,0,0,.544-.119c.3-.139.531,0,.582.344.281,1.906.568,3.811.829,5.719.136.991-.053,1.193-.841,1.138-.3-.021-.417-.213-.587-.374q-1.749-1.656-3.5-3.31a1.765,1.765,0,0,0-.314-.162c.2,1.244.388,2.4.586,3.557.046.265.182.606-.074.74a1.7,1.7,0,0,1-1.249.174c-.347-.1-.241-.429-.279-.692-.268-1.856-.541-3.712-.84-5.564-.046-.289-.385-.6.083-.788.413-.169.832-.358,1.262.064,1.163,1.145,2.356,2.259,3.537,3.385Z" transform="translate(-3.645 -3.767)"/><path class="cls-8" d="M80.3,15.191a3.486,3.486,0,0,1-3.518,3.569,3.768,3.768,0,0,1-3.71-3.841,3.618,3.618,0,1,1,7.228.272Z" transform="translate(-3.645 -3.767)"/><path class="cls-7" d="M130.709,51.342c-.468.27-.535-.263-.547-.58-.013-.356-.352-.92.5-.987.628-.05,1.266-.192,1.9-.276.39-.051.593-.114.406-.608a6.729,6.729,0,0,1-.177-1.351c-.076-.5-.2-.572-.653-.458-.7.176-1.413.286-2.121.424-.27.053-.417-.031-.393-.334a1.3,1.3,0,0,0-.095-.554c-.161-.442-.135-.688.5-.772,1.885-.249,3.756-.611,5.63-.94.509-.09.877.033.875.6,0,.433.251,1.082-.617,1.02a3.745,3.745,0,0,0-.949.157c-1.076.2-1.11.208-.826,1.253a2.771,2.771,0,0,1,.095.634c.02.46.131.7.705.49.465-.172,1-.078,1.506-.215.619-.17.678.347.751.748.077.422.014.854-.536.874a25.382,25.382,0,0,0-2.948.446C132.763,51.061,131.806,51.187,130.709,51.342Z" transform="translate(-3.645 -3.767)"/><path class="cls-7" d="M49.753,49.947c.615.071,1.19.164,1.768.2.473.026.537.3.486.662-.154,1.073-.161,1.079-1.713.83-1.662-.267-3.322-.55-4.984-.821-.158-.025-.364.014-.357-.221a4.991,4.991,0,0,1,.79-3.262c1.166-1.376,3.123-.835,3.722.961l2.929-1.446c.324,1.487-.076,2.041-1.907,2.652C50.212,49.589,49.924,49.63,49.753,49.947Z" transform="translate(-3.645 -3.767)"/><path class="cls-9" d="M122.052,31.074c-.483-.278-.628-.794-1-1.1-.312-.258-.017-.5.083-.626.566-.712.377-1.249-.3-1.725a.7.7,0,0,1-.174-.174,1.1,1.1,0,0,0-1.7-.326c-.12.075-.357.345-.475.078-.218-.492-.788-.679-.945-1.188-.02-.063.174-.154.312-.2,2.16-.773,4.325-1.536,6.462-2.37.489-.191.635.1.882.314.223.2.446.376.25.752C124.305,26.686,123.183,28.88,122.052,31.074Z" transform="translate(-3.645 -3.767)"/><path class="cls-7" d="M54.6,40.644c-.084.917-.46,1.292-1.467,1.275-.441-.007-.718.086-.785.566a1.78,1.78,0,0,1-.2.677c-.414.664-.432,1.173.326,1.643.44.272.334,1.44-.1,1.75-.234.167-.428-.026-.6-.18-.989-.878-1.981-1.751-2.965-2.633-.645-.578-1.256-1.2-1.925-1.744-.458-.375-.231-.747-.143-1.159.1-.474.452-.388.764-.389,1.832,0,3.663.008,5.5-.009a2.288,2.288,0,0,0,1.276-.129C54.416,40.229,54.677,40.217,54.6,40.644Z" transform="translate(-3.645 -3.767)"/><path class="cls-10" d="M106.51,19.226c-.943-.357-1.982-.752-3.024-1.142-.219-.082-.185-.261-.134-.4.7-1.883,1.418-3.758,2.1-5.645.188-.514.393-.651.939-.4.812.371,1.678.622,2.518.931.737.271.115.708.089,1.047-.03.388-.315.369-.627.205-.255-.135-.567-.163-.82-.3-.644-.348-.971-.159-1.154.533-.067.253-.143.363.16.461.325.106.624.289.947.4.877.309.916.452.463,1.278-.146.265-.272.287-.5.189a8.145,8.145,0,0,1-.872-.375c-.629-.365-.9-.146-1.123.5-.207.614-.091.926.537,1.076a5.957,5.957,0,0,0,.9.3c.452.029.444.33.328.55C107.084,18.727,107.216,19.286,106.51,19.226Z" transform="translate(-3.645 -3.767)"/><path class="cls-11" d="M53.1,38.323a1.719,1.719,0,0,0,1.214-.268.842.842,0,0,0,.312-1.095.8.8,0,0,0-1.16-.357c-.534.231-.819.75-1.32,1.031a1.958,1.958,0,0,1-2.355-.145,2.155,2.155,0,0,1-.593-2.4,2.7,2.7,0,0,1,1.116-1.411c.275-.148.6-.558.842-.029.16.346.767.813-.094,1.126a.971.971,0,0,0-.407.395.681.681,0,0,0,.03.888c.286.309.6.215.894-.021.4-.323.764-.687,1.185-.972a2.246,2.246,0,0,1,2.586.252,2.491,2.491,0,0,1,.7,2.5,2.208,2.208,0,0,1-1.547,1.662c-.815.24-1.134.311-1.193-.707C53.31,38.651,53.209,38.537,53.1,38.323Z" transform="translate(-3.645 -3.767)"/><path class="cls-12" d="M60.073,21.565a2.651,2.651,0,0,1,2.535-2.31c.389.048.384.5.421.819.025.23.072.544-.336.471s-.657.232-.912.426a.6.6,0,0,0-.16.724c.145.337.359.336.637.338a3.435,3.435,0,0,0,1.151-.342,2.073,2.073,0,0,1,2.526.67,2.261,2.261,0,0,1,.371,2.471,2.36,2.36,0,0,1-2.183,1.478c-.638.028-1.236.075-1.1-.9.064-.445-.032-.747.617-.46.493.219.9-.216,1.241-.578.324-.347.011-.629-.146-.862-.285-.422-.684-.408-1.142-.193a4.04,4.04,0,0,1-1.227.35A1.889,1.889,0,0,1,60.073,21.565Z" transform="translate(-3.645 -3.767)"/><path class="cls-13" d="M131.682,52.454c1.539-.422,3.133.015,4.688-.317.941-.2,1.009-.087,1,.872-.009.84.23,1.656.183,2.507-.028.487-.18.609-.622.563-.36-.037-.794.12-.726-.536a4.193,4.193,0,0,0-.124-1.366c-.085-.377-.216-.4-.517-.411-.854-.026-.989.119-.743.972a1.517,1.517,0,0,1,.07.637c-.038.266.229.751-.368.689-.374-.039-.992.315-.973-.54,0-.173-.123-.4-.13-.616-.028-.907-.518-1.229-1.41-.977-.284.08-.225.262-.228.436a5.66,5.66,0,0,0,.016,1.309c.167.754-.376.646-.774.725-.6.12-.557-.276-.57-.682a9.9,9.9,0,0,0-.145-2.592c-.12-.4-.041-.771.555-.68A5.455,5.455,0,0,0,131.682,52.454Z" transform="translate(-3.645 -3.767)"/><path class="cls-8" d="M67.935,19.73a2.329,2.329,0,0,1-1.886-.489,1.993,1.993,0,0,1-.445-2.159,2,2,0,0,1,1.823-1.463,5.98,5.98,0,0,1,.656,0,.788.788,0,0,1,.686,1.18c-.134.226-.307.134-.486.053a.876.876,0,0,0-1.112.364.522.522,0,0,0-.019.716,1,1,0,0,0,1.085.274,2.31,2.31,0,0,1,3.022,1.575,2.472,2.472,0,0,1-2.184,3.06,2.378,2.378,0,0,1-1.533-.37c-.546-.343-.023-.754.046-1.131.089-.487.4-.218.584-.11a1.3,1.3,0,0,0,.7.144.781.781,0,0,0,.9-.795.767.767,0,0,0-.848-.844C68.591,19.723,68.263,19.73,67.935,19.73Z" transform="translate(-3.645 -3.767)"/><path class="cls-7" d="M133.731,43.17c.555-1.583.331-2.329-.742-2.859a2.529,2.529,0,0,0-3.012.776c-.7,1.086-.408,2,.941,3.073-.412.186-.805.385-1.214.54a.666.666,0,0,1-.785-.278,3.931,3.931,0,0,1-.3-4.213,4.069,4.069,0,0,1,4.26-1.613,3.561,3.561,0,0,1,2.664,3.051c.116.536.108,1.088-.707,1.143A4.876,4.876,0,0,0,133.731,43.17Z" transform="translate(-3.645 -3.767)"/><path class="cls-7" d="M114.853,17.972c-.591-1.285-1.521-2-2.287-1.8a2.645,2.645,0,0,0-2.01,2.648c.071,1.117.7,1.548,2.626,1.8-.054.506-.5.81-.656,1.254-.107.293-.384.182-.56.146a3.4,3.4,0,0,1-2.8-2.307,3.6,3.6,0,0,1,.636-3.585,3.615,3.615,0,0,1,4.437-1.143,3.768,3.768,0,0,1,1.334,1.144.546.546,0,0,1-.019.681C115.316,17.178,115.1,17.56,114.853,17.972Z" transform="translate(-3.645 -3.767)"/><path class="cls-7" d="M120,21.647c-.4-1.283-1.248-2.037-2.128-1.913a2.954,2.954,0,0,0-2.208,2.517c.08,1.134.905,1.8,2.423,1.967-.895,1.691-1.067,1.591-2.591.645a3.3,3.3,0,0,1-1.3-3.522,3.467,3.467,0,0,1,2.193-2.751,3.4,3.4,0,0,1,4.045.719c.552.552.929,1.024.181,1.719A5.058,5.058,0,0,1,120,21.647Z" transform="translate(-3.645 -3.767)"/><path class="cls-14" d="M44.618,54.876a22.427,22.427,0,0,1,.172-2.383c-.013-.2-.132-.616.272-.507.351.094.922-.113,1.025.472.2,1.14.183,1.178,1.328,1.137,1.309-.048,2.6.287,3.905.176.213-.018.334.025.383.289.217,1.165-.008,1.388-1.179,1.209a5.5,5.5,0,0,0-1.392-.01,15.7,15.7,0,0,1-2.433-.186c-.571-.027-.866.069-.784.734.036.288.265.838-.437.751-.481-.059-.994-.086-.867-.816A5.731,5.731,0,0,0,44.618,54.876Z" transform="translate(-3.645 -3.767)"/><path class="cls-15" d="M63.206,27.688a7.389,7.389,0,0,1-.92.883c-.3.2-.476-.141-.669-.313-1.485-1.324-2.965-2.655-4.454-3.975-.2-.173-.256-.27-.066-.52.709-.93.994-.956,1.833-.174,1.283,1.2,2.591,2.37,3.882,3.56A.916.916,0,0,1,63.206,27.688Z" transform="translate(-3.645 -3.767)"/><path class="cls-7" d="M133.1,35.809a.535.535,0,0,1-.331.369q-2.713,1.428-5.42,2.869c-.68.361-.707-.27-.942-.6-.27-.382-.269-.614.213-.86,1.7-.872,3.373-1.8,5.071-2.685.22-.114.5-.459.726-.222A5.792,5.792,0,0,1,133.1,35.809Z" transform="translate(-3.645 -3.767)"/><path class="cls-11" d="M70.516,13.98c.232-.075.225.128.3.264q1.452,2.737,2.91,5.47c.445.838-.462.688-.747.971-.327.324-.555.084-.733-.258q-1.3-2.5-2.634-4.986A1.016,1.016,0,0,1,70.516,13.98Z" transform="translate(-3.645 -3.767)"/><path class="cls-7" d="M89.186,9.1c.179-.021.336-.051.495-.055,1.142-.03,1.106-.027,1.155,1.084.08,1.784.22,3.566.312,5.35.013.249.174.708-.353.624-.4-.064-1,.368-1.187-.417a2.8,2.8,0,0,1-.1-.552c-.051-1.742-.116-3.484-.151-5.227A6.212,6.212,0,0,0,89.186,9.1Z" transform="translate(-3.645 -3.767)"/><path class="cls-16" d="M91,38.639c8.459-.324,15.291,6.931,15.138,15.172A14.965,14.965,0,0,1,90.58,68.27,15.116,15.116,0,0,1,76.371,53.556C76.254,45.663,83.142,38.456,91,38.639Z" transform="translate(-3.645 -3.767)"/><path class="cls-17" d="M115.5,98.592a3.954,3.954,0,0,0-.719,1.213q-2.14,4.1-4.274,8.2a2.26,2.26,0,0,1-2.418,1,.932.932,0,0,1-.468-.425c-1.055-2.145-2.135-4.28-3.114-6.46-.435-.968-.951-1.891-1.5-2.865,0,.326,0,.653,0,.979,0,1.671.017,3.342-.018,5.013-.01.494.13.735.62.83a1.693,1.693,0,0,1,.793.362c.292.269,1.088-.058.91.754-.269,1.228-.8,1.834-1.59,1.834-1.671,0-3.342-.026-5.013.013-.606.014-.835-.094-.836-.78,0-.791.08-1.442.868-1.8.431-.2.485-.535.483-.974-.017-3.506-.006-7.013-.009-10.52,0-.314.123-.716-.245-.884-.8-.369-.535-.994-.387-1.551.424-1.6.441-1.592,2.11-1.592,1.041,0,2.082,0,3.123,0a.655.655,0,0,1,.7.391c1.223,2.324,2.484,4.629,3.734,6.938.569,1.051,1.143,2.1,1.772,3.255.424-.837.817-1.6,1.2-2.374q1.9-3.816,3.8-7.632c.153-.307.279-.6.755-.589,1.97.033,3.941.014,5.991.014-.266.8-.526,1.543-.75,2.293-.1.338-.206.589-.633.506-.356-.068-.461.1-.459.46.013,3.644-.012,7.287.027,10.931a1.57,1.57,0,0,0,1.115,1.594.461.461,0,0,1,.344.305c.132.442-.911,1.835-1.4,1.837-2.247.009-4.493,0-6.74,0-.153,0-.312.038-.407-.167a1.772,1.772,0,0,1,1.3-2.464c1.158-.133,1.329-.319,1.329-1.46C115.5,102.769,115.5,100.769,115.5,98.592Z" transform="translate(-3.645 -3.767)"/><path class="cls-17" d="M68.761,91.1c1.287,0,2.575.015,3.861-.009.432-.008.643.054.624.567-.041,1.066-.024,2.136-.007,3.2a.685.685,0,0,1-.463.75,18.507,18.507,0,0,0-2.015.947c-.416.237-.515,0-.621-.278-.085-.22-.1-.459-.178-.693-.5-1.449-.958-1.793-2.429-1.692-.816.056-1.077.648-1.3,1.314-.245.741.3,1.11.713,1.464a20,20,0,0,0,3.516,2.006,7.07,7.07,0,0,1,3.626,3.99,3.2,3.2,0,0,1,.1,1.436,17.007,17.007,0,0,1-.515,2.085c-.446,1.707-1.767,2.274-3.317,2.506a58.342,58.342,0,0,1-7.35.157c-1.784.041-1.785.008-1.785-1.748,0-.932.036-1.865-.013-2.793a1.124,1.124,0,0,1,.73-1.243c.714-.329,1.251-1.026,2.158-.961.316.023.439.089.419.419-.025.409,0,.821,0,1.232a2.067,2.067,0,0,0,2.123,2.307c1.538.162,1.86-.053,2.237-1.5a1.56,1.56,0,0,0-.906-1.944c-1.238-.72-2.5-1.4-3.775-2.053a5.59,5.59,0,0,1-3.138-6.613,3.308,3.308,0,0,1,1.833-2.195,4.794,4.794,0,0,1,2.5-.673C66.514,91.13,67.638,91.1,68.761,91.1Z" transform="translate(-3.645 -3.767)"/><path class="cls-9" d="M89.821,97.4a12.5,12.5,0,0,0-.157-2.445,1.355,1.355,0,0,0-1.257-1.232c-.477-.042-.369.289-.37.535-.007,1.506,0,3.013,0,4.519,0,2.274.014,4.547-.012,6.821,0,.489.094.7.624.639.405-.048.821-.007,1.231-.016.385-.008.578.082.376.52q-.4.867-.733,1.763c-.122.327-.347.36-.639.36q-3.822-.006-7.643.006c-.429,0-.544-.125-.349-.523a8.9,8.9,0,0,0,.539-1.232c.212-.685.591-1.039,1.342-.887.393.079.5-.107.5-.5q-.02-5.752,0-11.5c0-.567-.248-.583-.648-.416a1.943,1.943,0,0,0-1.15,1.874c-.028.475-.156.636-.657.7-.991.126-1.966.377-2.982.584,0-1.871.011-3.7-.008-5.539,0-.393.11-.5.505-.5q7.231.019,14.463,0c.389,0,.516.1.51.5-.023,1.424-.02,2.849,0,4.273,0,.425-.133.592-.565.71C91.8,96.668,90.893,97.03,89.821,97.4Z" transform="translate(-3.645 -3.767)"/><path class="cls-18" d="M78.656,15c.008,1.207-.791,2.34-1.671,2.237a2.416,2.416,0,0,1-2.276-2.256,1.994,1.994,0,0,1,1.86-2.122A2.123,2.123,0,0,1,78.656,15Z" transform="translate(-3.645 -3.767)"/><path class="cls-19" d="M48.25,49.063c-.057.281.04.754-.289.555-.494-.3-1.341.3-1.5-.527a.773.773,0,0,1,.806-.893A.92.92,0,0,1,48.25,49.063Z" transform="translate(-3.645 -3.767)"/><path class="cls-19" d="M123.282,25.348c-.319.586-.6,1.1-.879,1.627-.06.114-.135.2-.242.121a1.633,1.633,0,0,1-.658-.8c-.067-.217.1-.294.24-.314C122.276,25.9,122.669,25.506,123.282,25.348Z" transform="translate(-3.645 -3.767)"/><path class="cls-20" d="M51.106,41.992c-.332,1.386-.33,1.383-1.467.434-.161-.134-.349-.235-.652-.434Z" transform="translate(-3.645 -3.767)"/><path class="cls-2" d="M91.3,40.287c7.137-.2,13.222,6.017,13.2,13.2a13.236,13.236,0,0,1-26.472-.059A13.167,13.167,0,0,1,91.3,40.287Z" transform="translate(-3.645 -3.767)"/></svg>