<svg xmlns="http://www.w3.org/2000/svg" viewBox="0 0 421.557 74.044"><defs><style>.cls-1{fill:#003b77;}.cls-2{fill:#ff671f;}.cls-3{fill:#fff;}</style></defs><title>tollok</title><g id="Capa_3" data-name="Capa 3"><path class="cls-1" d="M405.62,48.2c-.974-1.257-1.107-2.1-.1-3.441,4.333-5.755,8.548-11.6,12.8-17.416,3.077-4.214,6.14-8.437,9.489-13.038h-2.25c-9.25,0-18.5.057-27.75-.042a3.8,3.8,0,0,0-1.852.38,4.036,4.036,0,0,0-1.5,1.531c-3.418,5.434-6.9,10.826-10.377,16.226-.386.6-.843,1.154-1.267,1.729l-.465-.176V14.424H356.069v68.8h26.438V63.614c4.338,5.9,8.214,11.861,11.993,17.881a3.412,3.412,0,0,0,3.339,1.923c5.013-.12,10.03-.041,15.046-.04h19.657c-.9-1.235-1.508-2.107-2.154-2.949Q418.022,64.3,405.62,48.2Z" transform="translate(-11.629 -11)"/><path class="cls-1" d="M11.629,35.443H32.138V83.119c.9.059,26.649.015,26.649.015s-.053-29.118-.06-42.5c0-1.689,0-3.378,0-5.209H79.236V14.359H11.629Z" transform="translate(-11.629 -11)"/><path class="cls-1" d="M412.254,46.462c-.027,6.179,4.226,10.44,10.451,10.471A10.2,10.2,0,0,0,433.182,46.6,10.266,10.266,0,0,0,422.721,36C416.547,35.981,412.281,40.247,412.254,46.462Zm17.893.082c-.02,4.4-3.476,8.13-7.46,8.059a7.809,7.809,0,0,1-7.586-8.2,7.866,7.866,0,0,1,7.49-8.065C426.778,38.277,430.168,41.958,430.147,46.544Z" transform="translate(-11.629 -11)"/><path class="cls-1" d="M290.017,20.278c-10.643,8.8-15.336,20.113-13.213,33.928a83.841,83.841,0,0,0,2.174,8.4c-8.021,0-15.846-.079-23.667.053-2.079.035-2.66-.516-2.647-2.6.084-14.323.042-28.647.041-42.971V14.479H226.519V83.188H283.3V69.583c.694.727.97,1,1.229,1.29,11.555,12.858,25.907,16.848,42.344,12.449a36.122,36.122,0,0,0,21.418-54.4C336.059,9.529,308.112,5.316,290.017,20.278Zm25.353,44.17c-9.286.167-17.29-7.2-17.484-16.089-.19-8.655,7.742-16.366,17.073-16.6,9.169-.229,17.152,7.218,17.343,16.179S324.932,64.276,315.37,64.448Z" transform="translate(-11.629 -11)"/><path class="cls-1" d="M190.135,38.348V14.3H163.817V74.855l.04-.021v8.373h56.734V62.6H190.135Z" transform="translate(-11.629 -11)"/><path class="cls-1" d="M419.473,40.9h-.91V52.188h2.286v-4.54h1.387l2.735,4.54h2.77l-2.9-4.653a3.277,3.277,0,0,0,.794-.306,2.921,2.921,0,0,0,1.181-1.184,3.978,3.978,0,0,0,0-3.546,2.936,2.936,0,0,0-1.177-1.184,3.574,3.574,0,0,0-1.76-.419h-4.4Zm4.222,2.049a1.172,1.172,0,0,1,.625.163,1.082,1.082,0,0,1,.413.465,1.6,1.6,0,0,1,.146.7,1.663,1.663,0,0,1-.154.7,1.074,1.074,0,0,1-.413.466,1.158,1.158,0,0,1-.617.163h-2.846V42.945Z" transform="translate(-11.629 -11)"/></g><g id="Capa_2" data-name="Capa 2"><path class="cls-1" d="M117.087,11c-21.652,0-39.2,16.429-39.2,36.694s17.552,36.695,39.2,36.695,39.2-16.429,39.2-36.695S138.738,11,117.087,11Zm0,52.69c-9.438,0-17.089-7.162-17.089-16S107.649,31.7,117.087,31.7s17.088,7.162,17.088,16S126.524,63.69,117.087,63.69Z" transform="translate(-11.629 -11)"/><path class="cls-2" d="M135.9,11c-21.651,0-39.2,16.429-39.2,36.694s17.552,36.695,39.2,36.695,39.2-16.429,39.2-36.695S157.556,11,135.9,11Zm0,52.69c-9.438,0-17.088-7.162-17.088-16S126.466,31.7,135.9,31.7s17.089,7.162,17.089,16S145.342,63.69,135.9,63.69Z" transform="translate(-11.629 -11)"/><circle class="cls-3" cx="129.609" cy="10.035" r="7.527"/><polygon class="cls-2" points="131.913 13.697 127.59 13.862 125.286 10.2 127.304 6.374 131.627 6.209 133.932 9.87 131.913 13.697"/><circle class="cls-3" cx="108.907" cy="15.054" r="7.527"/><polygon class="cls-2" points="111.212 18.716 106.889 18.88 104.584 15.219 106.603 11.393 110.926 11.228 113.23 14.889 111.212 18.716"/><circle class="cls-3" cx="97.617" cy="32.617" r="7.527"/><polygon class="cls-2" points="99.921 36.279 95.598 36.444 93.294 32.782 95.312 28.956 99.635 28.791 101.94 32.452 99.921 36.279"/><circle class="cls-3" cx="102.635" cy="52.69" r="7.527"/><polygon class="cls-2" points="104.939 56.351 100.616 56.516 98.312 52.854 100.33 49.028 104.653 48.863 106.958 52.525 104.939 56.351"/><circle class="cls-3" cx="120.198" cy="63.98" r="7.527"/><polygon class="cls-2" points="122.502 67.642 118.179 67.806 115.875 64.145 117.894 60.319 122.217 60.154 124.521 63.815 122.502 67.642"/><circle class="cls-3" cx="140.897" cy="59.589" r="7.527"/><polygon class="cls-2" points="143.202 63.251 138.879 63.416 136.574 59.754 138.593 55.928 142.916 55.763 145.22 59.424 143.202 63.251"/><circle class="cls-3" cx="152.188" cy="41.399" r="7.527"/><polygon class="cls-2" points="154.492 45.06 150.169 45.225 147.865 41.564 149.884 37.738 154.207 37.573 156.511 41.234 154.492 45.06"/><circle class="cls-3" cx="147.17" cy="21.327" r="7.527"/><polygon class="cls-2" points="149.474 24.988 145.151 25.153 142.847 21.492 144.866 17.665 149.189 17.5 151.493 21.162 149.474 24.988"/></g></svg>