<svg id="Capa_2" data-name="Capa 2" xmlns="http://www.w3.org/2000/svg" viewBox="0 0 302.291 112.393"><defs><style>.cls-1{fill:#f58220;}</style></defs><title>trasmil</title><path class="cls-1" d="M129.005,83.5c.018-5.155-.061-24.748-.061-29.48,0-9.509-2.584-12.729-11.108-15.334-8.381-2.561-16.1-2.113-24.725-2.037-1.825.016-5.34.325-5.34.325L87.743,50.8s3.119-.334,5.786-.6c3.207-.326,10.21-.512,15.105,1.007,1.852.574,3.723,1.311,3.736,3.908.038,7.763.278,15.527.234,23.29-.025,4.3-2.329,6.592-6.622,7.284a20.217,20.217,0,0,1-7.237-.251c-3.664-.738-6.012-3.5-5.964-6.8.055-3.767,2.61-5.315,5.675-6.273a39,39,0,0,1,7.064-.976l.14-12.317s-3.368.119-4.966.206c-6.514.352-8.838.771-13.532,2.815C73,68.269,75.551,84.669,82.761,91.219c9.693,8.805,30.762,10.027,41.276,2.185C127.329,90.948,129.232,87.887,129.005,83.5Z" transform="translate(-8.79 -6.234)"/><path class="cls-1" d="M80.923,37.3s-.647.012-1.966,0c-8.172-.05-16.275.338-23.811,4-4.92,2.391-7.53,6.249-7.449,11.868.061,4.22.049,8.441.034,12.662h0V94.785H63.624V65.831c0-1.425.021-2.85.021-4.275,0-6.337.93-7.871,7.05-9.422a56.984,56.984,0,0,1,10.193-1.191Z" transform="translate(-8.79 -6.234)"/><path class="cls-1" d="M280.122,6.234a10.346,10.346,0,0,0-10.409,10.372,10.419,10.419,0,0,0,20.829-.36A10.388,10.388,0,0,0,280.122,6.234Z" transform="translate(-8.79 -6.234)"/><rect class="cls-1" x="263.376" y="34.314" width="16.112" height="54.16"/><rect class="cls-1" x="285.56" y="11.138" width="16.731" height="101.255"/><path class="cls-1" d="M247.945,36.6c-7.818-1.73-21.147.4-24.214,5.462q-.144-.167-.291-.33a10.828,10.828,0,0,0-2.372-2.018,20.282,20.282,0,0,0-2.672-1.342,32.956,32.956,0,0,0-7.018-1.968,38.6,38.6,0,0,0-16.4.483,34.632,34.632,0,0,0-6.2,2.209c-.967.453-1.9.962-2.827,1.491-.052.03-.144.073-.249.122a12.045,12.045,0,0,1-6.649-.661c-9.345-3.328-18.992-5.183-28.888-2.526-10.353,2.78-15.39,11.234-13.188,21.7a24.867,24.867,0,0,0,5.767,11.183,94.191,94.191,0,0,1,9.292,12.564c2.26,3.734,4.432,7.534,4.938,12.005.486,4.3-1.395,7.072-5.6,7.936a25.867,25.867,0,0,1-4.707.309,215.863,215.863,0,0,1-24.7-1.057c-2.206-.213-2.955-.241-2.955-.241v13.617a135.6,135.6,0,0,0,21.584,1.572c7.073-.027,14.709-.177,21.449-2.566a19.227,19.227,0,0,0,11.075-9.631,21.966,21.966,0,0,0,2.04-9.578,23.548,23.548,0,0,0-5.235-14.424,158.666,158.666,0,0,1-11.383-16.876,25.615,25.615,0,0,1-3.3-7.638c-.324-1.643.022-3.967,2.117-4.484,4.226-1.042,9.5-1.846,14.613-.393,5.054,1.436,7.563,4.828,7.564,10.067l-.054,3.246V94.77h16.359V58.132s3.9-5.5,9.729-5.5c5.763,0,9.543,5.5,9.543,5.5V94.77h16.36V58.132s3.594-5.624,9.295-5.438,9.047,5.438,9.047,5.438V94.77h16.545V57.4a42.927,42.927,0,0,0-1.825-6.286A23.6,23.6,0,0,0,247.945,36.6Z" transform="translate(-8.79 -6.234)"/><path class="cls-1" d="M25.078,14.935H8.79V95.572c0,12.583,6.986,20.716,22.416,21.46a17.422,17.422,0,0,0,2.259,0V101.663s-.831-.023-2.016-.108c-4.27-.3-6.045-2-6.372-5.983h0V52.446h17.15V39.309H25.078Z" transform="translate(-8.79 -6.234)"/></svg>