<svg id="Capa_1" data-name="Capa 1" xmlns="http://www.w3.org/2000/svg" viewBox="0 0 585.066 183.902"><defs><style>.cls-1{fill:#e9b932;}.cls-2{fill:#293157;}</style></defs><title>welte</title><path class="cls-1" d="M604.117,57.134c-.9-.592-1.725-1.189-2.6-1.7-3.724-2.157-7.468-4.277-11.2-6.427Q571.687,38.259,553.057,27.5c-7.723-4.456-15.464-8.877-23.16-13.381-.9-.524-3.613-2.142-3.613-2.142s-2.768,1.613-3.686,2.16c-10.92,6.508-21.879,12.95-32.8,19.442q-18.639,11.075-37.236,22.215c-1.548.927-2.984,2.04-4.378,3,.65,30.49-.232,60.587.923,90.624l79.747,45.757q38.145-22.965,75.651-45.688C604.371,118.422,604.244,87.83,604.117,57.134ZM527.09,173.425c-39.209.288-70.61-31.891-70.248-69.863-.427-36.51,29.486-69.726,69.662-69.8a69.832,69.832,0,0,1,.586,139.662Z" transform="translate(-19.434 -11.972)"/><path class="cls-1" d="M429.822,55.255c-8.695-5.018-56.049-32.415-71.027-41.1-.572-.332-2.741-1.474-2.741-1.474S353.628,14.2,352.8,14.7c-9.037,5.455-18.105,10.864-27.135,16.332a16.637,16.637,0,0,0-1.613,1.17s.005,5.94.024,10.489c16.8-8.043,33.914-10.619,51.744-5.41A68.361,68.361,0,0,1,416.913,69.4c15.4,26.281,11.44,59.733-8.392,81.442-21.931,24.007-53.356,29.6-84.612,15.4-2.372.01-15.634.156-15.634.156s34.014,19.979,50.656,29.483l75.478-46.05c-.127-30.984-.255-61.679-.382-92.381C432.526,56.665,431.142,56.016,429.822,55.255Z" transform="translate(-19.434 -11.972)"/><path class="cls-2" d="M313.926,84.951c3.741,0,7.056-.169,10.671.037-.5,1.168-.821,1.908-1.123,2.658-6.542,16.323-5.3,32.053,4.469,46.66,8.657,12.936,21.04,20.128,36.664,21.476a94.663,94.663,0,0,0,25.435-1.613c4.93-.911,9.766-2.31,14.222-5.39-.013-3.191-.02-6.46-.042-9.73-.022-3.288-.077-6.576-.078-9.864,0-3.238-.16-6.485.051-9.964l12.618-.053c0-1.254.015-2.254-.018-3.251-.144-4.621-.2-9.248-.5-13.859a54.513,54.513,0,0,0-1.151-8.2c-4.493-20.459-22.657-36.2-47.205-35.932A47.835,47.835,0,0,0,334.8,71.388c-.641.6-1.362,1.115-2.541,2.072-.02-4.953-.038-9.311-.058-13.976l-18.3.076c-.014-3.591-.024-6.859-.043-10.128-.02-3.221-.048-6.44-.075-10.049-13.858,8.141-27.036,16.348-40.928,24.428-.014-3.455.046-6.316-.058-9.17-.1-2.919.4-5.886-.392-8.721l-30.051.124c.063,15.1.124,30.016.186,44.931-6.408-16.3-17.592-27-34.642-30.946-16.925-3.915-32.023.248-45.746,12.05,1.857-9.178,4.528-17.28,6.154-25.807-11.577.047-22.749.094-34.2.142-2.2,9.821-4.318,19.617-6.611,29.371-2.281,9.691-4.192,19.475-7.136,29.111-5.644-19.365-10.354-38.882-15.554-58.137l-21.738.091C81.454,53.668,79.88,60.338,78.3,67.005c-1.581,6.682-3.18,13.36-4.749,20.044-1.551,6.6-2.93,13.253-5.038,19.768C62.5,86.773,57.221,66.629,51.548,46.859l-32.114.133Q34.98,102.521,50.347,157.4l33.924-.141c3.465-14.305,6.891-28.46,10.318-42.614.164.015.328.029.492.045,3.364,14.208,6.731,28.417,10.067,42.5,8.094.5,31.8.158,34.265-.485,3.311-11.035,6.179-22.251,9.656-33.412.444.294.568.33.6.407.539,1.212,1.039,2.443,1.6,3.647,7.189,15.5,19.057,25.308,35.89,28.416,12.509,2.309,24.954.879,37.13-2.647a20.039,20.039,0,0,0,7.753-3.884c-.04-9.619-.079-19.248-.119-29.033,3.6-.016,7.022-.029,10.716-.044.051,12.3.1,24.374.152,36.516l30.465-.126c-.1-23.8-.2-47.473-.3-71.285l10.114-.042c.1,23.805.2,47.474.294,71.206l30.823-.127c-.05-12.012-.1-23.813-.146-35.614C314,108.815,313.913,96.943,313.926,84.951Zm45.1-1.7c9.5-4.863,25.433-1.874,31.3,12.687a4.827,4.827,0,0,1,.017,1.277l-25.9.107c.031,7.449.06,14.505.091,21.972,12.649.243,25.327-.134,38.381.023a8.07,8.07,0,0,1-1.147,1.636c-9.055,7.071-18.99,11.626-30.816,11.282a26.292,26.292,0,0,1-25.436-21.785A24.947,24.947,0,0,1,359.021,83.249ZM229.281,121.71c-6.183,4.671-12.712,8.688-20.442,10.261-6.11,1.244-12.23,1.552-18.246-.466a25.994,25.994,0,0,1-17.737-26.045,24.547,24.547,0,0,1,16.831-22.672C199.7,79.5,213.911,84.527,218.16,97.83q-13.016.052-25.749.106c-.671,2.569-.805,16.309-.262,22.046,3.069.332,6.218.072,9.348.1,3.288.032,6.575-.016,9.862-.03l9.553-.04,9.946-.041A15.484,15.484,0,0,1,229.281,121.71Z" transform="translate(-19.434 -11.972)"/><path class="cls-2" d="M590.174,106.224a63.987,63.987,0,0,0-62.338-66.477c-37.541-.808-65.145,29.77-65.516,63.274a63.953,63.953,0,0,0,127.854,3.2Z" transform="translate(-19.434 -11.972)"/></svg>