<svg id="Capa_2" data-name="Capa 2" xmlns="http://www.w3.org/2000/svg" viewBox="0 0 52 52"><defs><style>.cls-1{fill:#fff;}</style></defs><title>menu-responsive</title><path class="cls-1" d="M64.1,37H43.905a2.73,2.73,0,1,0,0,5.448H64.1A2.73,2.73,0,1,0,64.1,37Z" transform="translate(-28 -24)"/><path class="cls-1" d="M64.1,47.276H43.905a2.73,2.73,0,1,0,0,5.448H64.1a2.73,2.73,0,1,0,0-5.448Z" transform="translate(-28 -24)"/><path class="cls-1" d="M64.1,57.552H43.905a2.73,2.73,0,1,0,0,5.448H64.1a2.73,2.73,0,1,0,0-5.448Z" transform="translate(-28 -24)"/><path class="cls-1" d="M72.833,24H35.167A7.175,7.175,0,0,0,28,31.167V68.833A7.175,7.175,0,0,0,35.167,76H72.833A7.175,7.175,0,0,0,80,68.833V31.167A7.175,7.175,0,0,0,72.833,24Zm3.1,44.833a3.1,3.1,0,0,1-3.1,3.1H35.167a3.1,3.1,0,0,1-3.1-3.1V31.167a3.1,3.1,0,0,1,3.1-3.1H72.833a3.1,3.1,0,0,1,3.1,3.1Z" transform="translate(-28 -24)"/></svg>