<svg id="Capa_1" data-name="Capa 1" xmlns="http://www.w3.org/2000/svg" viewBox="0 0 172.183 158.249"><defs><style>.cls-1{fill:#fff;}</style></defs><title>asistencia</title><path d="M110.787,181.388h-66.4c-.479,0-.958.006-1.436-.019a4.089,4.089,0,0,1-4.247-4.4c-.023-4.413-.012-8.826-.015-13.239,0-1.677-.011-3.353,0-5.029a4.356,4.356,0,0,1,3.231-4.353c1.109-.346,2.239-.627,3.355-.95,1.492-.431,1.745-.786,1.759-2.32.03-3.42-.054-6.848.131-10.26a63.556,63.556,0,0,1,34.15-52.863,1.315,1.315,0,0,0,.8-1.353c.072-6.285,4.338-10.566,10.621-10.582q18.063-.047,36.126,0c6.207.017,10.511,4.333,10.569,10.529a1.487,1.487,0,0,0,.948,1.475c16.905,9.258,27.79,23.2,32.472,41.92a57.034,57.034,0,0,1,1.64,13.515c.017,2.566.017,5.131.033,7.7a1.888,1.888,0,0,0,1.665,2.214c1.18.348,2.375.649,3.548,1.019a4.149,4.149,0,0,1,3.124,4.194q.018,9.236-.012,18.473a3.987,3.987,0,0,1-4.126,4.28c-3.008.094-6.02.05-9.03.05q-29.454,0-58.91,0ZM82.118,97.351c-.661.4-1.068.638-1.461.893a54.756,54.756,0,0,0-24.91,42.373c-.239,3.681-.094,7.386-.19,11.078a9.83,9.83,0,0,1-7.431,9.764,1.128,1.128,0,0,0-.95,1.3c.036,2.84.015,5.68.016,8.519,0,1.615,0,1.616,1.595,1.616H172.671a8.027,8.027,0,0,1,.821,0c.685.071.889-.252.883-.9-.022-2.464-.007-4.927-.014-7.39a6.745,6.745,0,0,0-.115-.814h-1.13l-85.088,0c-.616,0-1.233.022-1.847-.013a4.212,4.212,0,0,1-4.062-4.314,4.156,4.156,0,0,1,4.171-4.187c.547-.016,1.094-.01,1.642-.01h78.3c-.087-2.766-.125-5.35-.261-7.928-.209-3.955-.128-7.968-.8-11.848-2.751-15.98-11.106-28.381-24.571-37.368-.264-.177-.56-.307-1.032-.562,0,.611,0,1.01,0,1.409,0,6.055.011,12.111,0,18.167a4.251,4.251,0,1,1-8.493.043q-.086-14.928-.156-29.857c-.011-2.2-.447-2.665-2.631-2.665q-17.5,0-35,0c-2.2,0-2.644.453-2.644,2.652q0,14.832.007,29.663a4.535,4.535,0,0,1-1.017,3.141,4.258,4.258,0,0,1-4.754,1.249,4.164,4.164,0,0,1-2.757-4.153q-.016-9.186,0-18.373Z" transform="translate(-10.69 -33.498)"/><path class="cls-1" d="M82.118,97.351v1.488q0,9.186,0,18.373a4.164,4.164,0,0,0,2.757,4.153,4.258,4.258,0,0,0,4.754-1.249,4.535,4.535,0,0,0,1.017-3.141q-.02-14.832-.007-29.663c0-2.2.448-2.651,2.644-2.652q17.5,0,35,0c2.184,0,2.62.461,2.631,2.665q.07,14.928.156,29.857a4.251,4.251,0,1,0,8.493-.043c.013-6.056,0-12.112,0-18.167,0-.4,0-.8,0-1.409.472.255.768.385,1.032.562,13.465,8.987,21.82,21.388,24.571,37.368.669,3.88.588,7.893.8,11.848.136,2.578.174,5.162.261,7.928h-78.3c-.548,0-1.095-.006-1.642.01a4.156,4.156,0,0,0-4.171,4.187,4.212,4.212,0,0,0,4.062,4.314c.614.035,1.231.013,1.847.013l85.088,0h1.13a6.745,6.745,0,0,1,.115.814c.007,2.463-.008,4.926.014,7.39.006.647-.2.97-.883.9a8.027,8.027,0,0,0-.821,0H48.787c-1.594,0-1.595,0-1.595-1.616,0-2.839.02-5.679-.016-8.519a1.128,1.128,0,0,1,.95-1.3,9.83,9.83,0,0,0,7.431-9.764c.1-3.692-.049-7.4.19-11.078a54.756,54.756,0,0,1,24.91-42.373C81.05,97.989,81.457,97.754,82.118,97.351Z" transform="translate(-10.69 -33.498)"/><path class="cls-1" d="M71.694,36.792a11.385,11.385,0,0,0-10.961-2.885l-.958.313c-.1.039-.2.079-.3.116A11.245,11.245,0,0,0,52.4,45.1c-.029,2.052-.079,4.1-.129,6.156q-.051,2.16-.1,4.318c-1.6.9-3.346,1.9-5.108,2.936-1.806-1.075-3.477-2.045-5.061-2.937-.02-2.9-.071-5.8-.121-8.674l-.033-1.91a11.2,11.2,0,0,0-6.818-10.433A10.954,10.954,0,0,0,22.263,37.29c-.348.384-.7.765-1.1,1.189a42.6,42.6,0,0,0-4.928,6.042c-9.632,15.055-6.444,35.259,7.416,47,.842.712.841,1.024.84,1.59q-.06,36.041-.079,72.005c-.261,6.651.008,13.669,6.276,19.95a22.922,22.922,0,0,0,32.432.034,23.715,23.715,0,0,0,6.892-16.6c-.056-7.689-.036-15.5-.017-23.056L70.013,138,70,137.358c.013-.509.014-1.06.015-1.666l.021-12.616c.02-9.522.04-19.369-.018-29.2a2.978,2.978,0,0,1,1.285-2.716,35.815,35.815,0,0,0,.389-54.372Z" transform="translate(-10.69 -33.498)"/><path d="M67.1,41.844a4.619,4.619,0,0,0-5.034-1.186A4.523,4.523,0,0,0,59.229,45.2c-.03,2.074-.08,4.148-.129,6.222-.054,2.238-.107,4.475-.137,6.712A2.214,2.214,0,0,1,57.7,60.3c-3.035,1.708-6.173,3.474-9.21,5.316a2.429,2.429,0,0,1-2.9-.031c-3.391-2.051-6.227-3.694-8.925-5.171a2.5,2.5,0,0,1-1.476-2.527c0-3.662-.069-7.38-.132-10.977L35.023,45.1a4.37,4.37,0,0,0-2.695-4.277,4.182,4.182,0,0,0-5.006,1.055c-.38.419-.767.835-1.153,1.25A36.658,36.658,0,0,0,21.99,48.2a29.4,29.4,0,0,0,6.075,38.1,8.392,8.392,0,0,1,3.258,6.815q-.062,36.085-.08,72.17c-.264,6.594.237,10.9,4.282,14.949a16.12,16.12,0,0,0,22.772.024,16.846,16.846,0,0,0,4.887-11.713c-.075-10.185-.017-20.371,0-30.557l.024-14.782c.02-9.6.04-19.525-.018-29.289a9.722,9.722,0,0,1,3.591-7.872,28.993,28.993,0,0,0,.319-44.2Zm1.83,16.639A20.859,20.859,0,0,1,65.8,75.768c-2.334,3.2-5.59,5.7-7.59,9.12-2.779,4.751-2.76,10.57-2.683,16.074q.447,32.18-.044,64.365c-.04,2.631-.114,5.378-1.364,7.694a8.2,8.2,0,0,1-13.909.917c-1.544-2.078-1.562-4.169-1.552-6.652l.07-17.126.141-34.252L38.946,98.1c.016-3.871.005-7.877-1.573-11.412-2.025-4.536-6.319-7.62-9.087-11.745a20.467,20.467,0,0,1-.155-22.032c-1.667,3.234-.832,7.322,1.239,10.313S34.558,68.3,37.7,70.13c3.383,1.969,7.191,3.778,11.06,3.182,3.182-.49,5.867-2.526,8.639-4.163,2.722-1.608,5.77-2.989,7.528-5.616,2.032-3.037,1.849-6.987,1.589-10.632A19.429,19.429,0,0,1,68.929,58.483Z" transform="translate(-10.69 -33.498)"/><path d="M55.567,155.288l.034.019.077-3.637v-.095h-.024Z" transform="translate(-10.69 -33.498)"/><polygon points="44.53 136.617 44.595 136.576 44.596 136.566 44.604 136.208 44.54 136.209 44.53 136.617"/></svg>