<svg id="Capa_1" data-name="Capa 1" xmlns="http://www.w3.org/2000/svg" viewBox="0 0 125.683 163.511"><title>calidad</title><path d="M128.941,57.892,126.2,55.148a4.321,4.321,0,0,0-6.112,0L92.038,83.2,80.915,72.072a4.323,4.323,0,0,0-6.113,0l-2.743,2.744a4.328,4.328,0,0,0,0,6.113L88.982,97.852a4.328,4.328,0,0,0,6.113,0l33.846-33.847A4.328,4.328,0,0,0,128.941,57.892Z" transform="translate(-37.455 -21.5)"/><path d="M100.5,21.5a55,55,0,1,0,55,55A55.062,55.062,0,0,0,100.5,21.5Zm0,101.452A46.453,46.453,0,1,1,146.952,76.5,46.505,46.505,0,0,1,100.5,122.952Z" transform="translate(-37.455 -21.5)"/><path d="M100,136c-.437,0-.867-.024-1.3-.033L77.531,171.821l-6.093-16.947a4.132,4.132,0,0,0-4.542-2.681l-17.782,2.852L66.421,125.73a60.2,60.2,0,0,1-6.359-4.966l-22.023,37.3a4.131,4.131,0,0,0,4.212,6.179L65,160.6l7.794,21.677a4.131,4.131,0,0,0,7.445.7l28.082-47.567A60.5,60.5,0,0,1,100,136Z" transform="translate(-37.455 -21.5)"/><path d="M162.554,158.069,140.33,120.424A60.211,60.211,0,0,1,134,125.433l17.482,29.612L133.7,152.193a4.132,4.132,0,0,0-4.542,2.681l-6.093,16.947-15.12-25.611-4.646,7.869,17.063,28.9a4.131,4.131,0,0,0,7.445-.7L135.6,160.6l22.744,3.648A4.131,4.131,0,0,0,162.554,158.069Z" transform="translate(-37.455 -21.5)"/></svg>