<svg id="Capa_1" data-name="Capa 1" xmlns="http://www.w3.org/2000/svg" viewBox="0 0 125.683 161.511"><title>calidad</title><path d="M128.941,57.892,126.2,55.148a4.321,4.321,0,0,0-6.112,0L92.038,83.2,80.915,72.072a4.323,4.323,0,0,0-6.113,0l-2.743,2.744a4.328,4.328,0,0,0,0,6.113L88.982,97.852a4.328,4.328,0,0,0,6.113,0l33.846-33.847A4.328,4.328,0,0,0,128.941,57.892Z" transform="translate(-37.455 -21.5)"/><path d="M100.5,21.5a55,55,0,1,0,55,55A55.062,55.062,0,0,0,100.5,21.5Zm0,101.452A46.453,46.453,0,1,1,146.952,76.5,46.505,46.505,0,0,1,100.5,122.952Z" transform="translate(-37.455 -21.5)"/><path d="M100.5,138c-1.377,0-2.739-.062-4.093-.151L77.531,169.821l-6.093-16.947a4.132,4.132,0,0,0-4.542-2.681l-17.782,2.852,15.663-26.531a62.049,62.049,0,0,1-6.26-5.133L38.039,156.069a4.131,4.131,0,0,0,4.212,6.179L65,158.6l7.794,21.677a4.131,4.131,0,0,0,7.445.7l25.516-43.22C104.017,137.908,102.27,138,100.5,138Z" transform="translate(-37.455 -21.5)"/><path d="M162.554,156.069,142.223,121.63a62.165,62.165,0,0,1-6.287,5.088l15.543,26.327L133.7,150.193a4.132,4.132,0,0,0-4.542,2.681l-6.093,16.947L108.942,145.9l-4.646,7.868,16.063,27.208a4.131,4.131,0,0,0,7.445-.7L135.6,158.6l22.744,3.648A4.131,4.131,0,0,0,162.554,156.069Z" transform="translate(-37.455 -21.5)"/></svg>