<svg id="Capa_1" data-name="Capa 1" xmlns="http://www.w3.org/2000/svg" viewBox="0 0 155.856 126.403"><title>precios</title><path d="M115.568,143.454A52.98,52.98,0,1,1,137.845,83h9.342a62.037,62.037,0,1,0-24.923,66.816Z" transform="translate(-25.233 -36.703)"/><path d="M178,131.451h-9.957V94.091A3.176,3.176,0,0,0,164.784,91H135.216a3.176,3.176,0,0,0-3.254,3.091v37.36h-9.957a2.919,2.919,0,0,0-2.184,5.009l26.539,25.213a5.34,5.34,0,0,0,7.28,0l26.539-25.213A2.919,2.919,0,0,0,178,131.451Zm-28,24.275L131.45,138.1h7.512V97.651h22.076V138.1h7.512Z" transform="translate(-25.233 -36.703)"/><path d="M108,110.273c0-7.857-4.239-12.378-11.026-15.122L89.89,92.282C85.038,90.35,81.4,89.111,81.4,85.7c0-3.179,2.758-4.984,7.091-4.984,4.394,0,7.875,1.545,11.538,4.354l6.344-7.92a25.592,25.592,0,0,0-14.809-7.087V66.231H84.294v3.975c-9.312,1.542-15.6,8.176-15.6,16.229,0,8.077,5.458,12.809,11.218,15.151l7.223,3.081c4.857,2,8.017,3.119,8.017,6.62,0,3.3-2.567,5.364-7.813,5.364-4.575,0-9.7-2.367-13.655-5.808l-7.217,8.622a30.551,30.551,0,0,0,17.827,7.905v3.4h7.272v-3.605C102.031,125.563,108,118.4,108,110.273Z" transform="translate(-25.233 -36.703)"/></svg>