<svg id="Capa_2" data-name="Capa 2" xmlns="http://www.w3.org/2000/svg" viewBox="0 0 175.5 157.38"><title>presentaciones</title><path d="M185.5,24.25H105.106a1.357,1.357,0,0,1-1.356-1.356V20.675a3.93,3.93,0,0,0-3.925-3.925h-.65a3.93,3.93,0,0,0-3.925,3.925v2.219a1.357,1.357,0,0,1-1.356,1.356H18.5a4.25,4.25,0,0,0,0,8.5h3.394a1.357,1.357,0,0,1,1.356,1.356v97.32a8.333,8.333,0,0,0,8.324,8.324h62.32a1.357,1.357,0,0,1,1.356,1.356v8.058a1.354,1.354,0,0,1-.708,1.191L65.126,166.322a2.772,2.772,0,0,0-1.112,3.758l1.412,2.6a2.771,2.771,0,0,0,3.757,1.111l24.064-13.062a1.356,1.356,0,0,1,2,1.192v7.556a2.774,2.774,0,0,0,2.771,2.771h2.958a2.774,2.774,0,0,0,2.771-2.771v-7.556a1.342,1.342,0,0,1,.663-1.165,1.337,1.337,0,0,1,1.335-.03L129.817,173.8a2.774,2.774,0,0,0,3.757-1.114l1.411-2.6a2.775,2.775,0,0,0-1.112-3.758l-29.414-15.967a1.348,1.348,0,0,1-.709-1.191v-8.058a1.357,1.357,0,0,1,1.356-1.356h67.32a8.333,8.333,0,0,0,8.324-8.324V34.106a1.357,1.357,0,0,1,1.356-1.356H185.5a4.25,4.25,0,0,0,0-8.5ZM172.25,129.894a1.357,1.357,0,0,1-1.356,1.356H33.106a1.357,1.357,0,0,1-1.356-1.356V34.106a1.357,1.357,0,0,1,1.356-1.356H170.894a1.357,1.357,0,0,1,1.356,1.356Z" transform="translate(-14.25 -16.75)"/><path d="M41.556,75.352a6.214,6.214,0,0,1-.029,12.428v7.141a13.358,13.358,0,0,0,.134-26.714c-.045,0-.089.005-.134.005v7.141Z" transform="translate(-14.25 -16.75)"/><path d="M42.5,49.46c-.323-.005-.65.012-.974.018v7.136c.29-.006.581-.013.869-.009a25.518,25.518,0,0,1,4.764.526l1.892.39,7.129-7.16,6.858,4.094-2.924,9.684L61.36,65.62a25.127,25.127,0,0,1,4.649,8.318l.606,1.836,9.767,2.595-.116,7.985-9.839,2.308-.66,1.818a25.13,25.13,0,0,1-4.891,8.178L59.588,100.1l2.64,9.765-6.975,3.892-6.917-7.366-1.9.334a25.5,25.5,0,0,1-4.777.387c-.043,0-.087-.005-.13-.005v7.149h.025a32.468,32.468,0,0,0,4.17-.211l8.141,8.67,16.719-9.329-3.1-11.485a32.192,32.192,0,0,0,4.276-7.151l11.575-2.715.28-19.144-11.49-3.052a32.175,32.175,0,0,0-4.065-7.273L71.493,51.18,55.054,41.365l-8.391,8.427A32.519,32.519,0,0,0,42.5,49.46Z" transform="translate(-14.25 -16.75)"/><path d="M153,62H100a4,4,0,0,1,0-8h53a4,4,0,0,1,0,8Z" transform="translate(-14.25 -16.75)"/><path d="M153.5,86.5h-53a4,4,0,0,1,0-8h53a4,4,0,0,1,0,8Z" transform="translate(-14.25 -16.75)"/><path d="M153.5,111.5h-53a4,4,0,0,1,0-8h53a4,4,0,0,1,0,8Z" transform="translate(-14.25 -16.75)"/></svg>